<svg width="420" height="420" xmlns="http://www.w3.org/2000/svg">
 <title>Slice 1</title>CSS SVG Logo source http://jaspreetchahal.org

 <g>
  <title>background</title>
  <rect fill="none" id="canvas_background" height="422" width="422" y="-1" x="-1"/>
 </g>
 <g>
  <title>Layer 1</title>
  <g fill-rule="evenodd" fill="none" id="Page 1">
   <g id="Layer_1">
    <path fill="#131313" id="Shape" d="m294.36801,15.608012l-24.688,0l25.674,27.859l0,13.261l-52.882,0l0,-15.526l25.669,0l-25.669,-27.86l0,-13.28l51.896,0l0,15.546l0,0zm-62.378,0l-24.688,0l25.673,27.859l0,13.261l-52.882,0l0,-15.526l25.672,0l-25.672,-27.86l0,-13.28l51.897,0l0,15.546l0,0zm-61.768,0.631l-26.64,0l0,24.313l26.64,0l0,16.176l-45.574,0l0,-56.666l45.574,0l0,16.177l0,0zm0,0"/>
    <path fill="#1572B6" id="Shape" d="m88.34601,386.217012l-27.071,-303.62l297.45,0l-27.096,303.571l-121.811,33.77l-121.472,-33.721zm0,0"/>
    <path fill="#33A9DC" id="Shape" d="m210.00201,394.126012l98.427,-27.288l23.157,-259.415l-121.584,0l0,286.703zm0,0"/>
    <g id="Group">
     <path fill="#FFFFFF" id="Shape" d="m210.00101,217.423012l49.275,0l3.403,-38.132l-52.678,0l0,-37.239l0.129,0l93.246,0l-0.893,9.991l-9.152,102.616l-83.33,0l0,-37.236zm0,0"/>
     <path fill="#EBEBEB" id="Shape" d="m210.22401,314.131012l-0.163,0.046l-41.472,-11.199l-2.652,-29.698l-20.151,0l-17.228,0l5.216,58.467l76.278,21.176l0.172,-0.048l0,-38.744zm0,0"/>
     <path fill="#FFFFFF" id="Shape" d="m256.11101,253.083012l-4.484,49.87l-41.532,11.21l0,38.742l76.339,-21.158l0.56,-6.29l6.478,-72.374l-37.361,0zm0,0"/>
     <path fill="#EBEBEB" id="Shape" d="m210.13001,142.052012l0,23.128l0,14.019l0,0.092l-89.828,0l-0.119,0l-0.747,-8.37l-1.697,-18.878l-0.89,-9.991l93.281,0zm0,0"/>
     <path fill="#EBEBEB" id="Shape" d="m210.00101,217.427012l0,23.129l0,14.017l0,0.092l-40.828,0l-0.119,0l-0.746,-8.369l-1.698,-18.878l-0.89,-9.991l44.281,0zm0,0"/>
    </g>
   </g>
  </g>
 </g></svg>