<?xml version="1.0" encoding="utf-8"?>
<!-- Generator: Adobe Illustrator 17.0.0, SVG Export Plug-In . SVG Version: 6.00 Build 0)  -->
<!DOCTYPE svg PUBLIC "-//W3C//DTD SVG 1.1//EN" "http://www.w3.org/Graphics/SVG/1.1/DTD/svg11.dtd">
<svg version="1.1" id="Layer_1" xmlns="http://www.w3.org/2000/svg" xmlns:xlink="http://www.w3.org/1999/xlink" x="0px" y="0px"
	 width="331.934px" height="400.977px" viewBox="0 0 331.934 400.977" enable-background="new 0 0 331.934 400.977"
	 xml:space="preserve">
<g>
	
		<circle fill="none" stroke="#FFFFFF" stroke-width="1.7037" stroke-linecap="round" stroke-linejoin="round" stroke-miterlimit="10" cx="236.299" cy="146.507" r="3.564"/>
	
		<path fill="none" stroke="#35A8E0" stroke-width="4.8219" stroke-linecap="round" stroke-linejoin="round" stroke-miterlimit="10" d="
		M247.193,55.309c0.057-0.049,0.119-0.089,0.178-0.139c6.398-5.559,7.077-15.252,1.518-21.649c-5.56-6.399-15.251-7.08-21.65-1.52
		c-0.058,0.049-0.106,0.105-0.162,0.156"/>
	<g>
		
			<polyline fill="none" stroke="#E5007E" stroke-width="4.8219" stroke-linecap="round" stroke-linejoin="round" stroke-miterlimit="10" points="
			26.443,125.573 43.181,119.218 49.093,135.757 		"/>
		
			<polyline fill="none" stroke="#E5007E" stroke-width="4.8219" stroke-linecap="round" stroke-linejoin="round" stroke-miterlimit="10" points="
			49.093,135.757 65.83,129.4 71.742,145.938 		"/>
	</g>
	<g>
		
			<polyline fill="none" stroke="#FFEC00" stroke-width="4.8219" stroke-linecap="round" stroke-linejoin="round" stroke-miterlimit="10" points="
			240.929,124.55 241.488,106.655 259.03,107.547 		"/>
		
			<polyline fill="none" stroke="#FFEC00" stroke-width="4.8219" stroke-linecap="round" stroke-linejoin="round" stroke-miterlimit="10" points="
			259.03,107.547 259.587,89.651 277.127,90.543 		"/>
	</g>
	
		<line fill="none" stroke="#FFEC00" stroke-width="4.8219" stroke-linecap="round" stroke-linejoin="round" stroke-miterlimit="10" x1="40.296" y1="67.342" x2="68.775" y2="87.734"/>
	
		<circle fill="none" stroke="#FFFFFF" stroke-width="2.8932" stroke-linecap="round" stroke-linejoin="round" stroke-miterlimit="10" cx="37.769" cy="101.138" r="3.61"/>
	<g>
		
			<line fill="none" stroke="#FFFFFF" stroke-width="2.8932" stroke-linecap="round" stroke-linejoin="round" stroke-miterlimit="10" x1="84.932" y1="109.556" x2="91.376" y2="115.602"/>
		
			<line fill="none" stroke="#FFFFFF" stroke-width="2.8932" stroke-linecap="round" stroke-linejoin="round" stroke-miterlimit="10" x1="91.178" y1="109.355" x2="85.132" y2="115.802"/>
	</g>
	<g>
		
			<line fill="none" stroke="#FFFFFF" stroke-width="2.8932" stroke-linecap="round" stroke-linejoin="round" stroke-miterlimit="10" x1="229.513" y1="84.7" x2="235.956" y2="90.745"/>
		
			<line fill="none" stroke="#FFFFFF" stroke-width="2.8932" stroke-linecap="round" stroke-linejoin="round" stroke-miterlimit="10" x1="235.759" y1="84.499" x2="229.712" y2="90.946"/>
	</g>
	<g>
		<defs>
			<rect id="SVGID_33_" x="-55.862" y="-12.892" width="409.48" height="413.87"/>
		</defs>
		<clipPath id="SVGID_2_">
			<use xlink:href="#SVGID_33_"  overflow="visible"/>
		</clipPath>
		<g clip-path="url(#SVGID_2_)">
			<path fill="#F7941E" d="M316.334,286.948c-0.956,13.067-6.894,24.212-17.149,32.252l-22.952-29.295
				c1.912-1.496,2.744-2.98,2.969-5.375c0.011-0.034,0.011-0.068,0.011-0.09c0.011-0.079,0.011-0.146,0.023-0.214
				c0.09-1.293,0.191-13.472-25.314-43.228c-5.443-6.354-10.964-12.235-15.789-17.127c-0.259-0.259-0.506-0.517-0.765-0.776
				c-7.759-7.85-13.495-12.978-13.719-13.18l22.983-28.216c3.935,2.666,18.896,15.711,35.269,34.773
				C306.46,245.058,317.728,268.112,316.334,286.948z"/>
			<path fill="#C6392A" d="M279.415,284.463l-0.202-0.022c0.011-0.079,0.011-0.146,0.023-0.214
				c0.09-1.293,0.191-13.472-25.314-43.228c-5.443-6.354-10.964-12.235-15.789-17.127l5.297-13.247
				C265.167,219.238,285.409,259.351,279.415,284.463z"/>
			<g>
				<path fill="#823C33" d="M224.138,478.751h-45.697c-0.947,0-1.759-0.678-1.927-1.61l-0.253-1.398
					c-0.017-0.093-0.025-0.189-0.026-0.283c-0.077-6.454-5.328-11.668-11.811-11.668c-3.26,0-6.205,1.32-8.328,3.453
					c-2.153,2.133-3.463,5.098-3.463,8.358l-0.071,254.587c0,1.082-0.877,1.958-1.959,1.958H96.989
					c-1.082,0-1.959-0.877-1.959-1.959l0.009-33.657l0.01-37.272l0.051-244.683v-12.655c0-1.082,0.877-1.959,1.959-1.959h126.548
					c1.076,0,1.951,0.869,1.959,1.945l0.078,11.135l0.453,63.736C226.104,477.866,225.225,478.751,224.138,478.751z"/>
				<path fill="#D2D3D6" d="M170.081,406.371l-3.037-1.727c0.559,1.94,0.325,4.205-0.833,6.256
					c-2.102,3.656-6.337,5.169-9.546,3.392c3.168,1.828,4.052,6.256,1.97,9.932c-2.092,3.677-6.378,5.18-9.567,3.372
					c3.189,1.808,4.093,6.266,2.001,9.953c-2.092,3.676-6.378,5.189-9.577,3.372l-16.209-9.201
					c-3.189,3.057-7.983,3.869-11.852,1.676l-3.453-1.97c-3.869-2.194-5.626-6.723-4.631-11.029l-10.247-5.819v-14.614h78.616
					L170.081,406.371z"/>
				<g>
					<path fill="#FFFFFF" d="M73.677,266.669c5.859-16.711,16.092-33.602,25.381-46.625
						C84.765,225.342,72.542,238.162,73.677,266.669z"/>
				</g>
				<polygon fill="#D2D3D6" points="95.1,399.963 95.1,429.373 225.639,408.046 225.549,399.963 				"/>
				<path fill="#FBB040" d="M253.527,241.201l-3.655,59.253l-111.59,99.512H95.1c0,0-12.168-19.522-12.168-20.006l-0.843-55.868
					l-0.36-23.537l-1.248-82.531l0.753-33.905c8.355-20.276,63.234-21.861,63.234-21.861c6.151-0.855,12.528-1.316,19.061-1.316
					c9.615,0,18.881,0.99,27.597,2.789c1.203,0.259,2.406,0.529,3.587,0.81c0.72,0.169,1.439,0.349,2.148,0.529
					c0.011,0.011,10.098,1.035,22.165,3.756c13.584,3.081,25.336,9.143,32.511,17.543
					C265.099,202.258,253.527,241.201,253.527,241.201z"/>
				<path fill="#F7941E" d="M138.283,399.963h87.266c0.348-0.326,19.568-22.243,19.568-22.243v-77.27L138.283,399.963z"/>
				<path fill="#FFA280" d="M151.689,175.664c0,9.638,7.813,17.452,17.451,17.452l0,0c9.638,0,17.45-7.813,17.45-17.452v-23.653
					c0-9.638-7.813-17.451-17.45-17.451l0,0c-9.639,0-17.451,7.813-17.451,17.451V175.664z"/>
				<circle fill="#FFA280" cx="116.366" cy="106.305" r="8.863"/>
				<circle fill="#FFA280" cx="205.527" cy="89.212" r="8.862"/>
				<g>
					<path fill="#FFA280" d="M199.992,37.194l7.344,75.151c0.678,4.28,0.21,8.797-1.614,13.21
						c-1.821,4.412-4.779,8.191-8.449,11.169l-10.039,8.397c-4.851,3.934-10.931,6.748-17.779,7.831
						c-6.856,1.084-13.509,0.286-19.335-1.96l-12.235-6.676c-4.303-1.659-8.187-4.27-11.202-7.814
						c-3.014-3.543-4.813-7.591-5.473-11.762l-16.541-72.467L199.992,37.194z"/>
					<path fill="#FFC7AC" d="M199.664,37.246l6.286,68.464c0.675,4.271,0.212,8.795-1.615,13.209
						c-1.82,4.412-4.779,8.191-8.456,11.171l-10.042,8.399c-4.841,3.931-10.92,6.745-17.775,7.829
						c-6.846,1.083-13.501,0.283-19.326-1.96l-12.244-6.677c-4.303-1.658-8.18-4.27-11.203-7.813
						c-2.073-2.441-3.566-5.111-4.517-7.899l-16.103-72.962L199.664,37.246z"/>
				</g>
				<path fill="#F48967" d="M171.577,104.554c0,0-4.973,10.616-16.069,2.541L171.577,104.554z"/>
				<path fill="#FFFFFF" d="M151.689,120.821c1.262,7.98,8.753,13.425,16.734,12.163c7.979-1.262,13.423-8.753,12.16-16.733
					L151.689,120.821z"/>
				<polygon fill="#F7941E" points="144.468,373.379 141.094,399.963 95.1,399.963 82.932,379.957 82.463,352.045 165.063,356.491 
									"/>
				<g>
					<path fill="#FBB040" d="M73.681,266.672c0.012,0.461,0.034,0.933,0.057,1.406c0,0.27,0.011,0.529,0.011,0.787
						c1.271-3.813,2.766-7.647,4.419-11.448c0,0,0.011-0.011,0.011-0.022c1.429-10.245,6.433-19.826,14.282-26.854
						c2.331-3.76,4.695-7.329,7.003-10.639C84.999,225.106,72.535,237.898,73.681,266.672z"/>
					<path fill="#FBB040" d="M69.106,295.9c-0.307-8.454,1.529-17.695,4.643-27.035c0-0.259-0.011-0.517-0.011-0.787
						c-0.023-0.472-0.045-0.944-0.057-1.406c-1.136-28.507,11.089-41.327,25.382-46.624c0.135-0.045,0.259-0.101,0.393-0.134
						c5.444-7.872,10.582-14.316,14.327-18.477l-27.148-24.434c-4.739,4.57-15.731,16.54-29.586,39.357
						c-19.635,32.353-27.967,61.277-24.762,85.984c0.588,4.524,2.238,9.038,4.801,13.464L69.106,295.9z"/>
				</g>
				<polygon fill="#F48967" points="180.404,188.989 169.141,216.919 157.488,189.327 				"/>
				<path fill="#F7941E" d="M169.141,216.919l9.02-22.356l16.339,13.079c7.771-15.755,1.496-38.82,0.214-43.104
					c-1.18-0.281-2.384-0.551-3.588-0.809c-0.505,4.161-1.439,11.841-1.844,15.238c-0.562,4.779-15.182,4.644-15.182,4.644
					L169.141,216.919z"/>
				<path fill="#F7941E" d="M169.141,216.919l-10.201-22.356L142.6,207.641c-7.771-15.755-0.148-41.079,1.133-45.363
					c1.181-0.281,3.175-0.22,4.379-0.478c0.505,4.16-0.7,13.769-0.294,17.165c0.562,4.779,15.477,6.63,15.477,6.63L169.141,216.919z
					"/>
				<path fill="#FFFFFF" d="M186.591,158.02c0,0-0.316,20.945-12.494,25.584c4.361,2.53,16.731,16.306,16.731,16.306
					s6.958-28.298,1.722-35.867C188.438,160.41,186.591,158.02,186.591,158.02z"/>
				<path fill="#FFFFFF" d="M151.644,158.02c0,0-2.94,20.945,11.651,27.575l-15.888,14.315c0,0-6.958-28.298-1.722-35.867
					C149.797,160.41,151.644,158.02,151.644,158.02z"/>
				<path fill="none" stroke="#4F2F29" stroke-width="4" stroke-linecap="round" stroke-miterlimit="10" d="M182.968,76.729
					c0,0-11.041,2.157-16.041,3.13"/>
				<path fill="none" stroke="#4F2F29" stroke-width="4" stroke-linecap="round" stroke-miterlimit="10" d="M146.297,84.099
					c0,0-11.041,2.157-16.041,3.13"/>
				<path fill="#FFFFFF" d="M148.111,315.588c0.401,0.954,1.5,1.402,2.454,1.001l1.665-0.701c0.956-0.401,1.404-1.5,1.002-2.454l0,0
					c-0.401-0.954-1.5-1.402-2.454-1l-1.665,0.7C148.157,313.535,147.709,314.634,148.111,315.588L148.111,315.588z"/>
				<path fill="#4F2F29" d="M103.239,69.038l0.014,0.022c-8.075-48.576,60.924-61.229,72.938-45.211
					c24.737-4.932,30.527,19.246,31.44,37.7l-0.794,36.925h-2.106l-2.439-19.317v0v-0.001l-0.237-0.953
					c-0.55-1.551-2.398-4.968-8.655-10.049v-0.001c-6.496-4.368-12.165-10.358-14.881-13.435
					c-6.417,5.959-19.541,14.606-44.294,19.065l0.01,0.003c0,0-0.047,0.006-0.115,0.016c-0.549,0.098-1.102,0.194-1.663,0.288
					c-4.586,0.921-16.549,4.261-17.769,14.16l3.985,21.874h-1.695l-11.758-33.005c-0.875-2.753-1.523-5.408-1.953-7.961
					L103.239,69.038z"/>
				<path fill="#F7941E" d="M126.104,349.687c-2.249-1.125-35.986-16.868-36.368-17.993c-0.225-0.697-4.453-4.656-7.647-7.602
					l-0.36-9.638l0.517-6.185c8.614,4.498,20.984-8.805,23.616-36.919c2.62-28.114,59.219,1.496,64.1,13.495
					C174.831,296.833,128.353,350.811,126.104,349.687z"/>
				<path fill="#40231D" stroke="#40231D" stroke-width="0.8763" stroke-miterlimit="10" d="M147.102,99.826
					c0.156,0.901-0.595,1.783-1.678,1.971l0,0c-1.083,0.188-2.087-0.39-2.243-1.291l-1.356-7.822
					c-0.156-0.901,0.595-1.783,1.678-1.971l0,0c1.083-0.188,2.087,0.39,2.243,1.291L147.102,99.826z"/>
				<path fill="#40231D" stroke="#40231D" stroke-width="0.8763" stroke-miterlimit="10" d="M178.03,94.032
					c0.156,0.901-0.595,1.783-1.678,1.971l0,0c-1.083,0.188-2.087-0.39-2.243-1.291l-1.356-7.822
					c-0.156-0.901,0.595-1.783,1.678-1.971l0,0c1.083-0.188,2.087,0.39,2.243,1.291L178.03,94.032z"/>
			</g>
			<g>
				<g>
					<path fill="#465B66" d="M123.168,412.462c-2.847,5.014-9.024,6.882-13.797,4.172l-3.457-1.963
						c-4.77-2.709-6.329-8.969-3.482-13.983l6.356-11.194c2.847-5.014,9.022-6.883,13.792-4.174l3.457,1.963
						c4.773,2.71,6.333,8.971,3.486,13.985L123.168,412.462z"/>
					<path fill="#FCBC2D" d="M273.173,275.826c-0.708,13.607-4.543,27.383-11.819,40.192c-0.247,0.439-0.495,0.866-0.753,1.293
						c-1.147,1.957-2.362,3.846-3.632,5.668c-9.368,13.573-21.85,23.863-35.772,30.363c-5.836,2.744-11.931,4.813-18.161,6.174
						c-1.642,0.652-3.767,1.552-6.241,2.733c-1.709,0.798-3.587,1.743-5.589,2.823c-5.814,3.149-12.651,7.467-19.444,13.191
						c-0.99,0.832-1.991,1.709-2.98,2.609c-1.305,1.181-2.598,2.418-3.869,3.7c-1.383,1.395-2.744,2.857-4.082,4.386l-12.247,8.221
						c-1.136,1.99,1.777,9.48-0.045,11.448l-31.758-18.038l-22.333-12.685c0.056-0.18,0.135-0.371,0.259-0.574
						c1.327-2.35,6.219-4.521,7.49-6.759l0.169-1.214l1.293-9.626c0.63-1.732,1.192-3.475,1.698-5.195
						c0.304-1.012,0.585-2.013,0.843-3.003c0.214-0.843,0.416-1.676,0.607-2.508c0.169-0.697,0.326-1.394,0.461-2.08
						c0.068-0.304,0.135-0.596,0.191-0.9c0.146-0.72,0.281-1.451,0.405-2.17c0.022-0.112,0.045-0.236,0.067-0.349
						c0.068-0.393,0.135-0.787,0.191-1.181l0.034-0.202c0.056-0.349,0.113-0.686,0.169-1.035c0.045-0.281,0.079-0.573,0.124-0.843
						c0.056-0.416,0.113-0.821,0.169-1.237c0.09-0.652,0.169-1.304,0.236-1.957c0.011-0.022,0.011-0.034,0-0.045
						c0.079-0.675,0.157-1.338,0.214-2.002c0.034-0.326,0.068-0.652,0.09-0.99c0.078-0.978,0.157-1.946,0.214-2.901
						c0.011-0.326,0.034-0.641,0.056-0.956c0.056-1.147,0.09-2.283,0.112-3.385c0.045-1.743,0.045-3.43,0.022-5.049
						c-0.022-0.675-0.034-1.327-0.056-1.979c0-0.045-0.011-0.101-0.011-0.158c-0.033-0.821-0.067-1.619-0.112-2.395
						c-0.034-0.708-0.079-1.395-0.135-2.058c-0.045-0.663-0.101-1.305-0.157-1.923c0-0.011,0-0.022,0-0.022
						c-0.045-0.54-0.101-1.068-0.146-1.574c-0.067-0.641-0.135-1.259-0.202-1.833c-0.034-0.202-0.056-0.393-0.079-0.585
						c-0.022-0.191-0.045-0.371-0.067-0.551c-0.124-0.956-0.248-1.81-0.371-2.586c-0.034-0.214-0.067-0.416-0.101-0.618
						c-0.169-1.023-0.315-1.856-0.438-2.474c-0.022-0.09-0.034-0.169-0.045-0.247c-0.011-0.034-0.011-0.056-0.022-0.079
						c-0.067-0.349-0.123-0.607-0.168-0.776v-0.045c-0.011-0.034-0.023-0.067-0.023-0.09c-0.011-0.056-0.022-0.09-0.022-0.09
						c-6.028-21.783-3.576-46.32,8.783-68.069c21.704-38.224,66.427-54.676,104.46-40.394c3.891,1.462,7.703,3.25,11.425,5.353
						C259.971,214.391,274.804,244.676,273.173,275.826z"/>
					<g>
						<path fill="#FCBC2D" d="M261.351,316.013c-13.167,23.187-34.818,38.336-58.319,43.505
							c-6.124,2.437-18.783,8.225-31.269,18.739c-0.995,0.841-1.989,1.71-2.98,2.614c-2.709,2.454-5.38,5.148-7.95,8.08
							l-12.253,8.222c-1.135,1.998,1.787,9.487-0.036,11.449l-7.487-4.251c1.674-2.046,0.253-8.683,1.388-10.681l10.668-9.123
							c2.379-3.04,4.812-5.87,7.244-8.48c0.894-0.96,1.781-1.89,2.67-2.791c3.612-3.667,7.179-6.87,10.528-9.629
							c8.026-5.124,15.141-8.297,19.274-9.942c23.502-5.169,45.153-20.317,58.319-43.505c15.89-27.983,15.436-60.58,1.583-85.988
							c-3.914-10.881-10.612-19.739-19.985-25.292C272.305,221.909,285.132,274.132,261.351,316.013z"/>
					</g>
					<path fill="#FFDE17" d="M223.783,294.674c-13.169,23.188-33.568,39.056-55.081,45.353c-5.702,2.71-17.554,9.053-29.351,19.826
						c-0.945,0.866-1.9,1.766-2.845,2.688c-2.474,2.429-4.937,5.049-7.298,7.872l-7.68,13.528c-1.383,2.429-2.992,4.644-4.746,6.646
						l-22.333-12.685c0.753-2.564,7.4-7.265,8.783-9.694l0.427-8.479c1.664-4.611,2.901-9.21,3.801-13.686
						c0.259-1.304,0.495-2.609,0.697-3.902c0.349-2.159,0.618-4.273,0.821-6.331c1.181-11.515,0.382-21.468-0.45-27.608
						c-0.551-4.105-1.113-6.511-1.125-6.545c-6.028-21.783-3.576-46.32,8.783-68.069c21.704-38.224,66.427-54.676,104.46-40.394
						C252.38,218.552,245.476,256.461,223.783,294.674z"/>
					
						<line id="XMLID_3_" fill="none" stroke="#FFF78D" stroke-width="3.9585" stroke-linecap="round" stroke-miterlimit="10" x1="190" y1="329.666" x2="149.899" y2="379.394"/>
					<path id="XMLID_2_" fill="none" stroke="#FFFFFF" stroke-width="3.9585" stroke-linecap="round" stroke-miterlimit="10" d="
						M140.046,302.571c1.466-4.421,5.814-7.365,10.435-6.781c1.476,0.186,2.939,0.71,4.277,1.601
						c4.045,2.692,5.55,8.037,3.499,12.442c-0.345,0.74-0.765,1.415-1.248,2.023c-1.547,1.947-4.708,1.212-5.178-1.23
						c-0.431-2.242-0.097-4.643,1.119-6.784c2.917-5.137,9.72-6.685,14.618-3.046c3.512,2.609,5.01,7.252,3.431,11.332
						c-0.689,1.781-1.845,3.226-3.25,4.298c-2.103,1.605-5.081-0.228-4.659-2.84c0.184-1.137,0.57-2.261,1.172-3.321
						c2.816-4.959,9.251-6.573,14.1-3.407c4.252,2.776,5.716,8.449,3.351,12.942c-1.093,2.076-2.805,3.599-4.783,4.471
						c-2.337,1.031-4.825-1.155-4.061-3.593c0.208-0.664,0.489-1.316,0.847-1.946c2.816-4.959,9.251-6.573,14.1-3.407
						c1.804,1.178,3.109,2.879,3.83,4.792c1.217,3.225,0.516,6.865-1.648,9.549"/>
					
						<line id="XMLID_1_" fill="none" stroke="#FFF78D" stroke-width="3.9585" stroke-linecap="round" stroke-miterlimit="10" x1="118.802" y1="366.649" x2="140.046" y2="302.571"/>
					<path fill="none" stroke="#FFFFFF" stroke-width="10.1848" stroke-linecap="round" stroke-miterlimit="10" d="M146.982,216.903
						c20.895-15.232,51.435-21.203,68-11.797"/>
					<path fill="none" stroke="#FFFFFF" stroke-width="10.1848" stroke-linecap="round" stroke-miterlimit="10" d="M130.118,235.097
						c1.711-3.012,3.791-5.873,6.17-8.563"/>
				</g>
				<path fill="#FCBC2D" d="M171.763,378.257c-0.995,0.841-1.989,1.71-2.98,2.614l-61.327-34.824c0.172-0.847,0.33-1.69,0.473-2.526
					c0.074-0.397,0.138-0.788,0.198-1.181c0.014-0.065,0.025-0.132,0.035-0.2L171.763,378.257z"/>
				<path opacity="0.55" fill="#C6392A" d="M196.793,362.248c-1.709,0.798-3.587,1.743-5.589,2.823
					c-5.814,3.149-12.651,7.467-19.444,13.191c-0.99,0.832-1.991,1.709-2.98,2.609c-1.305,1.181-2.598,2.418-3.869,3.7
					l-42.654-29.07l37.392-5.623l7.31-9.84l28.395,5.623c0.562,2.249,3.374,6.747,1.125,10.964
					C195.545,358.368,195.984,360.426,196.793,362.248z"/>
				<g>
					<g>
						<path fill="#758E9B" d="M162.146,394.141c-2.103,3.677-6.376,5.184-9.581,3.374l-50.616-28.744
							c-1.192-0.686-2.069-1.732-2.586-2.969c-0.878-2.069-0.742-4.689,0.562-6.995c1.057-1.844,2.643-3.138,4.374-3.756
							c0.18-0.067,0.371-0.112,0.551-0.169c1.586-0.405,3.239-0.247,4.667,0.562l22.502,12.775l28.114,15.969
							c1.428,0.81,2.395,2.137,2.845,3.7C163.54,389.822,163.304,392.094,162.146,394.141z"/>
					</g>
					<g>
						<path fill="#758E9B" d="M154.573,407.462c-2.093,3.686-6.374,5.187-9.57,3.372l-50.619-28.743
							c-3.211-1.823-4.116-6.27-2.024-9.955c1.052-1.852,2.642-3.137,4.375-3.761c1.739-0.596,3.618-0.515,5.215,0.392
							l50.619,28.743C155.765,399.325,156.667,403.775,154.573,407.462z"/>
					</g>
					<g>
						<path fill="#758E9B" d="M147.006,420.788c-2.092,3.684-6.376,5.191-9.572,3.375L86.815,395.42
							c-3.211-1.823-4.113-6.275-2.022-9.959c1.051-1.851,2.641-3.136,4.375-3.761c1.739-0.596,3.619-0.515,5.215,0.392
							l50.619,28.743C148.199,412.65,149.1,417.102,147.006,420.788z"/>
						<g>
							<path fill="#BADCE8" d="M128.351,401.383l-32.362-18.552c-1.021-0.585-2.289-0.524-3.509,0.043
								c-1.218,0.589-2.383,1.67-3.221,3.146c-0.006,0.01-0.011,0.02-0.017,0.029c-0.818,1.455-0.348,3.154,0.933,3.578
								l39.402,13.059C129.285,402.139,128.879,401.686,128.351,401.383z"/>
						</g>
						<g>
							<path fill="#BADCE8" d="M135.305,388.612l-32.355-18.564c-1.021-0.586-2.32-0.469-3.59,0.186
								c-1.269,0.679-2.504,1.883-3.42,3.497c-0.006,0.011-0.012,0.021-0.018,0.032c-0.895,1.59-0.483,3.39,0.811,3.794
								l39.776,12.401C136.23,389.384,135.833,388.915,135.305,388.612z"/>
						</g>
						<g>
							<path fill="#95B7C6" d="M142.944,375.789l-32.346-18.579c-1.02-0.586-2.358-0.402-3.69,0.362
								c-1.332,0.789-2.652,2.143-3.664,3.925c-0.007,0.012-0.013,0.024-0.02,0.035c-0.989,1.755-0.647,3.679,0.661,4.056
								l40.231,11.599C143.858,376.58,143.472,376.092,142.944,375.789z"/>
						</g>
					</g>
					<polygon fill="#758E9B" points="170.693,381.388 166.014,389.609 162.978,387.888 127.701,367.86 104.85,354.882 
						101.251,352.836 105.918,344.604 153.847,371.818 					"/>
					<path opacity="0.67" fill="#465B66" d="M154.573,407.463c2.094-3.688,1.192-8.137-2.004-9.952
						c3.197,1.815,7.48,0.31,9.572-3.375c1.16-2.044,1.396-4.319,0.835-6.252l3.044,1.728l4.673-8.229l-64.772-36.78l55.071,31.271
						l-4.673,8.229l-1.779-1.01c0.562,1.933,0.326,4.208-0.835,6.252c-2.092,3.685-6.375,5.19-9.572,3.375
						c3.197,1.815,4.098,6.265,2.004,9.952c-2.093,3.685-6.373,5.187-9.57,3.372c3.197,1.815,4.097,6.267,2.004,9.953
						c-2.092,3.684-6.376,5.191-9.572,3.375l8.436,4.79c3.197,1.815,7.481,0.308,9.572-3.375c2.093-3.686,1.193-8.138-2.004-9.953
						C148.199,412.65,152.48,411.148,154.573,407.463z"/>
				</g>
				<path opacity="0.55" fill="#C6392A" d="M256.968,322.979c-9.368,13.573-21.85,23.863-35.772,30.363
					c-0.022-0.034-0.011-0.056,0.023-0.09c1.125-1.125,19.211-14.057-2.53-27.927c-15.274-9.744-41.984-17.618-57.071-20.429
					c0,0,0.843-1.125-1.406-3.655c-2.249-2.53-0.843-5.623-2.249-8.434c-1.406-2.811-0.562-8.997-0.843-11.527
					c-0.281-2.53,4.779-6.185,5.342-7.029c0.562-0.843,28.676,5.623,29.52,6.466c0.844,0.843,11.808,15.182,11.808,15.182
					l36.267,10.121l16.025,13.495C256.08,319.515,256.563,321.326,256.968,322.979z"/>
				<path opacity="0.55" fill="#C6392A" d="M127.318,329.074l2.856,5.915c-0.484,0.045-1.057,0.135-1.732,0.27
					c-7.028,1.406-17.431,0.843-17.431,0.843s-0.81-0.112-2.035-0.292c1.181-11.515,0.382-21.468-0.45-27.608
					C112.26,317.03,118.547,325.711,127.318,329.074z"/>
				<path opacity="0.55" fill="#C6392A" d="M273.173,275.826c-0.708,13.607-4.543,27.383-11.819,40.192
					c-0.247,0.439-0.495,0.866-0.753,1.293l-13.045,3.52c0,0-22.12-2.249-25.122-11.246c-0.934-2.823-1.844-5.746-2.632-8.445
					c-1.754-5.904-2.991-10.672-2.991-10.672l5.432-6.624c2.069,0.45,4.33,0.844,6.702,1.17
					C246.465,287.364,270.553,285.801,273.173,275.826z"/>
				<path fill="#465B66" d="M153.847,371.818l-21.828-3.599l-3.295-0.54l-1.023,0.18l-9.851,1.698c0,0-10.492-2.249-17.993-3.374
					l-0.495-0.382c-0.878-2.069-0.742-4.689,0.562-6.995c1.057-1.844,2.643-3.138,4.374-3.756c0.18-0.067,0.371-0.112,0.551-0.169
					l-3.599-2.047l4.667-8.232L153.847,371.818z"/>
			</g>
			<g>
				<g>
					<path fill="#F7941E" d="M277.447,289.152c-10.121,6.185-37.301-1.743-55.45-5.458l-5.116,28.982
						c0.14,0.048,1.748,2.571,3.337,5.079c1.578,2.505,3.124,4.994,3.124,4.994c5.393,1.578,7.76,2.33,15.979,3.83l0.188,0.034
						c24.298,4.41,46.653,3.305,59.867-7.66L277.447,289.152z"/>
				</g>
			</g>
			<g>
				<path fill="#FBB040" d="M37.088,315.807c11.759,20.308,42.719,38.78,78.304,48.004c0,0,12.055-3.34,13.18-3.261l4.363-26.697
					l0.371-2.249c-0.023,0-0.742-0.236-2.002-0.675c-3.396-1.169-10.773-3.812-19.309-7.23c0,0-0.011,0-0.022-0.012
					c-12.224-4.892-26.81-11.381-35.402-17.453c-4.363-3.081-7.186-6.073-7.377-8.681c-0.039-0.547-0.068-1.098-0.088-1.652
					L37.088,315.807z"/>
				<g>
					<path fill="#FFB287" d="M148.813,367.515c-1.34-0.218-2.594-0.948-3.449-2.138c-0.496-0.687-0.795-1.455-0.922-2.24
						l-15.867-2.592l4.73-28.944l15.689,2.564c0.164-0.568,0.417-1.121,0.774-1.635c0.484-0.702,1.102-1.255,1.796-1.655
						l13.004-7.514c0.769-0.392,1.613-0.507,2.402-0.378c0.078,0.013,0.155,0.034,0.232,0.051c0.082,0.009,0.165,0.014,0.248,0.027
						l11.766,1.924c2.135,0.348,3.583,2.364,3.234,4.499c-0.349,2.138-2.363,3.585-4.499,3.235l-10.409-1.701l-3.123,3.649
						l8.015,1.31h-0.001l22.785,3.724c2.136,0.349,3.586,2.364,3.236,4.499c-0.349,2.136-2.363,3.585-4.5,3.236l-22.785-3.725
						l-0.197,1.207l24.634,4.027c2.137,0.349,3.586,2.363,3.238,4.499c-0.349,2.134-2.363,3.584-4.499,3.235l-24.637-4.026
						l-0.19,1.165l21.436,3.502c2.135,0.349,3.583,2.364,3.234,4.5c-0.349,2.137-2.363,3.584-4.498,3.235l-21.436-3.503l-0.19,1.165
						l17.901,2.926c2.136,0.349,3.585,2.363,3.235,4.499c-0.349,2.135-2.365,3.586-4.499,3.236l-17.901-2.926l-0.001,0.002
						L148.813,367.515z"/>
				</g>
				<g>
					<path fill="#FFB287" d="M195.069,311.983c1.331,0.268,2.761,0.027,3.98-0.785c0.707-0.468,1.257-1.081,1.653-1.771
						l15.759,3.167l5.778-28.753l-15.582-3.131c0.047-0.589,0.005-1.196-0.148-1.803c-0.206-0.827-0.589-1.563-1.096-2.182
						l-9.518-11.615c-0.581-0.638-1.331-1.043-2.114-1.2c-0.077-0.016-0.157-0.023-0.235-0.034c-0.08-0.021-0.159-0.045-0.242-0.062
						l-11.687-2.348c-2.12-0.427-4.186,0.949-4.612,3.07c-0.427,2.124,0.948,4.188,3.069,4.614l10.338,2.078l1.636,4.515
						l-7.961-1.599l0.001,0l-22.631-4.547c-2.122-0.426-4.188,0.949-4.614,3.07c-0.426,2.122,0.947,4.187,3.07,4.614l22.631,4.546
						l-0.242,1.199l-24.467-4.915c-2.122-0.427-4.188,0.947-4.615,3.069c-0.426,2.12,0.948,4.187,3.069,4.613l24.47,4.917
						l-0.233,1.157l-21.29-4.279c-2.121-0.426-4.186,0.949-4.612,3.071c-0.426,2.122,0.948,4.187,3.068,4.613l21.29,4.278
						l-0.233,1.158l-17.779-3.572c-2.121-0.426-4.187,0.948-4.613,3.07c-0.426,2.121,0.948,4.189,3.069,4.614l17.78,3.572l0,0.002
						L195.069,311.983z"/>
				</g>
			</g>
			<polygon opacity="0.19" fill="#465B66" points="143.047,333.194 141.656,362.623 137.533,362.061 			"/>
			
				<rect x="121.148" y="341.934" transform="matrix(-0.1613 0.9869 -0.9869 -0.1613 500.0439 268.7807)" fill="#FFFFFF" width="29.327" height="9.872"/>
			<polygon opacity="0.19" fill="#465B66" points="212.562,281.898 202.945,309.769 207.443,310.893 			"/>
			<polygon fill="#FFFFFF" points="206.784,310.651 212.562,281.898 222.238,283.842 217.197,312.943 			"/>
		</g>
	</g>
	<g>
		<g opacity="0.49">
			<polygon fill="#FFFFFF" points="177.989,82.556 173.473,98.294 167.808,98.791 172.73,83.58 			"/>
			<polygon fill="#FFFFFF" points="143.807,89.213 139.291,104.95 133.626,105.447 138.548,90.237 			"/>
		</g>
		<path fill="none" stroke="#D88E7D" stroke-width="1.611" stroke-miterlimit="10" d="M137.613,106.111l16.494-3.212
			c1.837-0.358,3.048-2.154,2.69-3.991l-1.771-9.095c-0.358-1.837-2.154-3.048-3.991-2.69l-16.494,3.212
			c-1.837,0.358-3.048,2.154-2.69,3.991l1.771,9.095C133.979,105.258,135.775,106.469,137.613,106.111z"/>
		<path fill="none" stroke="#D88E7D" stroke-width="1.675" stroke-miterlimit="10" d="M169.838,99.836l18.108-3.526
			c1.91-0.372,3.169-2.24,2.797-4.15l-1.719-8.829c-0.372-1.91-2.239-3.169-4.15-2.797l-18.108,3.526
			c-1.91,0.372-3.169,2.24-2.797,4.15l1.719,8.829C166.06,98.949,167.927,100.208,169.838,99.836z"/>
	</g>
	
		<line fill="none" stroke="#D88E7D" stroke-width="1.675" stroke-miterlimit="10" x1="164.73" y1="92.421" x2="155.372" y2="94.221"/>
</g>
</svg>
