<?xml version="1.0" encoding="utf-8"?>
<!-- Generator: Adobe Illustrator 17.0.0, SVG Export Plug-In . SVG Version: 6.00 Build 0)  -->
<!DOCTYPE svg PUBLIC "-//W3C//DTD SVG 1.1//EN" "http://www.w3.org/Graphics/SVG/1.1/DTD/svg11.dtd">
<svg version="1.1" id="Layer_1" xmlns="http://www.w3.org/2000/svg" xmlns:xlink="http://www.w3.org/1999/xlink" x="0px" y="0px"
	 width="170px" height="170px" viewBox="0 0 170 170" enable-background="new 0 0 170 170" xml:space="preserve">
<g>
	<path fill="#21A0A0" d="M121.99,31.418c-2.115,0-4.23-0.007-6.345,0.004c-0.645,0.004-1.268-0.071-1.262-0.872
		c0.006-0.79,0.633-0.889,1.274-0.889c4.23,0.002,8.46,0.002,12.69,0c0.637,0,1.279,0.073,1.263,0.883
		c-0.015,0.776-0.618,0.885-1.275,0.88C126.22,31.408,124.105,31.418,121.99,31.418z"/>
	<path fill="#21A0A0" d="M50.743,138.926c2.117,0,4.234,0.017,6.35-0.009c0.687-0.008,1.265,0.199,1.284,0.9
		c0.021,0.786-0.665,0.861-1.293,0.861c-4.196,0-8.393-0.001-12.589,0.001c-0.674,0-1.354-0.07-1.317-0.948
		c0.035-0.819,0.71-0.808,1.326-0.807C46.583,138.929,48.663,138.926,50.743,138.926z"/>
	<path fill="#21A0A0" d="M31.615,66.644c0-1.933,0.012-3.865-0.006-5.798c-0.006-0.667,0.13-1.255,0.9-1.259
		c0.794-0.004,0.878,0.608,0.876,1.265c-0.013,3.828-0.01,7.656-0.004,11.484c0.001,0.676-0.072,1.381-0.906,1.382
		c-0.858,0-0.87-0.719-0.865-1.388C31.624,70.435,31.615,68.539,31.615,66.644z"/>
	<path fill="#21A0A0" d="M109.606,120.597c0,1.935-0.004,3.87,0.002,5.804c0.002,0.64-0.056,1.263-0.887,1.251
		c-0.829-0.012-0.873-0.664-0.873-1.284c-0.004-3.832,0-7.665-0.005-11.497c-0.001-0.638,0.085-1.287,0.858-1.314
		c0.888-0.031,0.91,0.676,0.907,1.346C109.6,116.802,109.606,118.7,109.606,120.597z"/>
	<path fill="#21A0A0" d="M39.94,135.978c-1.448,0-2.896,0-4.344,0c-0.649,0-1.25-0.137-1.233-0.934
		c0.015-0.725,0.584-0.865,1.19-0.865c2.933-0.001,5.867-0.001,8.8,0c0.61,0,1.149,0.132,1.163,0.88
		c0.015,0.839-0.599,0.916-1.231,0.918C42.836,135.981,41.388,135.978,39.94,135.978z"/>
	<path fill="#21A0A0" d="M132.809,36.154c-1.448,0-2.896,0.003-4.344-0.001c-0.638-0.001-1.265-0.111-1.233-0.921
		c0.029-0.733,0.625-0.817,1.221-0.816c2.933,0.002,5.867,0.005,8.8-0.002c0.646-0.002,1.131,0.216,1.118,0.924
		c-0.013,0.679-0.547,0.811-1.106,0.813C135.779,36.158,134.294,36.154,132.809,36.154z"/>
	<path fill="#FBB040" d="M42.876,102.343c-0.369-0.107-0.712-0.151-0.858-0.518c-0.164-0.412,0.013-0.747,0.312-0.983
		c0.871-0.686,1.726-1.406,2.665-1.99c1.126-0.7,2.33-1.273,3.502-1.898c0.478-0.255,0.859-0.142,1.116,0.335
		c0.272,0.504,0.054,0.854-0.392,1.098c-2.012,1.102-3.967,2.294-5.781,3.705C43.273,102.225,43.042,102.272,42.876,102.343z"/>
	<path fill="#FBB040" d="M116.667,95.21c0.689,0.3,1.619,0.659,2.507,1.102c1.253,0.626,2.476,1.313,3.711,1.976
		c0.57,0.306,0.676,0.742,0.349,1.291c-0.326,0.546-0.753,0.49-1.225,0.208c-1.933-1.151-3.898-2.235-6.01-3.036
		c-0.432-0.164-0.759-0.512-0.568-1.05C115.592,95.244,115.968,95.128,116.667,95.21z"/>
	<path fill="#FBB040" d="M131.609,109.741c-0.04,0.364-0.164,0.832-0.782,0.886c-0.66,0.058-0.954-0.321-0.969-0.935
		c-0.05-2.023-0.956-3.693-2.149-5.244c-0.379-0.493-0.784-1.039-0.154-1.548c0.683-0.552,1.153-0.015,1.549,0.515
		C130.48,105.255,131.468,107.255,131.609,109.741z"/>
	<path fill="#FBB040" d="M55.654,95.644c-0.472-0.065-0.895-0.18-0.973-0.657c-0.086-0.523,0.251-0.793,0.728-0.954
		c1.867-0.63,3.805-0.986,5.707-1.478c0.107-0.028,0.221-0.031,0.33-0.054c0.554-0.118,1.254-0.537,1.506,0.305
		c0.255,0.853-0.473,1.018-1.112,1.177C59.754,94.498,57.644,94.926,55.654,95.644z"/>
	<path fill="#21A0A0" d="M135.364,31.417c-0.705,0-1.409,0.002-2.114-0.001c-0.565-0.003-0.925-0.257-0.953-0.849
		c-0.026-0.552,0.326-0.857,0.813-0.869c1.519-0.035,3.039-0.029,4.558,0.004c0.462,0.01,0.734,0.324,0.724,0.818
		c-0.011,0.526-0.279,0.853-0.804,0.875c-0.74,0.031-1.483,0.008-2.224,0.008C135.364,31.407,135.364,31.412,135.364,31.417z"/>
	<path fill="#21A0A0" d="M37.326,140.671c-0.702,0-1.405,0.022-2.107-0.007c-0.529-0.022-0.947-0.244-0.944-0.86
		c0.004-0.591,0.357-0.87,0.92-0.874c1.405-0.009,2.81-0.008,4.214,0.003c0.547,0.004,0.946,0.241,0.952,0.842
		c0.006,0.597-0.393,0.86-0.93,0.884c-0.701,0.032-1.404,0.008-2.106,0.008C37.326,140.669,37.326,140.67,37.326,140.671z"/>
	<path fill="#21A0A0" d="M109.6,132.899c0,0.666-0.006,1.332,0.002,1.998c0.007,0.599-0.339,0.908-0.878,0.92
		c-0.515,0.011-0.834-0.36-0.845-0.852c-0.033-1.367-0.038-2.737,0.004-4.103c0.014-0.475,0.306-0.846,0.861-0.822
		c0.535,0.023,0.802,0.387,0.836,0.864c0.048,0.662,0.012,1.331,0.012,1.996C109.595,132.899,109.598,132.899,109.6,132.899z"/>
	<path fill="#21A0A0" d="M33.376,79.015c0,0.594,0.022,1.189-0.006,1.781c-0.027,0.558-0.203,1.055-0.89,1.045
		c-0.667-0.01-0.869-0.448-0.866-1.046c0.006-1.225,0.016-2.45-0.005-3.674c-0.011-0.625,0.254-1.043,0.867-1.052
		c0.634-0.009,0.88,0.472,0.896,1.053C33.389,77.753,33.376,78.384,33.376,79.015z"/>
	<path fill="#21A0A0" d="M50.113,136.066c-0.484,0-0.971,0.035-1.45-0.009c-0.543-0.05-0.931-0.37-0.892-0.938
		c0.033-0.489,0.37-0.811,0.895-0.818c1.004-0.013,2.009-0.013,3.014,0.001c0.524,0.007,0.865,0.332,0.892,0.82
		c0.03,0.558-0.344,0.894-0.896,0.935C51.157,136.096,50.634,136.066,50.113,136.066z"/>
	<path fill="#FBB040" d="M37.339,109.412c0.082-0.804,0.235-1.593,0.496-2.368c0.172-0.512,0.486-0.753,0.987-0.653
		c0.581,0.116,0.746,0.568,0.655,1.1c-0.118,0.688-0.338,1.364-0.405,2.055c-0.062,0.637-0.095,1.258-0.925,1.192
		C37.358,110.675,37.284,110.057,37.339,109.412z"/>
	<path fill="#21A0A0" d="M122.468,34.449c0.556,0,1.112-0.013,1.667,0.004c0.512,0.016,0.737,0.401,0.744,0.816
		c0.007,0.416-0.211,0.823-0.72,0.834c-1.11,0.023-2.222,0.032-3.332,0.001c-0.468-0.013-0.75-0.348-0.75-0.809
		c0-0.517,0.312-0.827,0.834-0.853c0.518-0.025,1.038-0.006,1.557-0.006C122.468,34.44,122.468,34.444,122.468,34.449z"/>
	<path fill="#FBB040" d="M107.004,92.454c0.775,0.187,1.68,0.377,2.567,0.631c0.477,0.137,0.751,0.498,0.577,1.026
		c-0.16,0.489-0.539,0.716-1.04,0.605c-0.865-0.192-1.73-0.397-2.576-0.656c-0.46-0.141-0.739-0.489-0.594-1.027
		C106.068,92.55,106.423,92.42,107.004,92.454z"/>
	<path fill="#E5007E" d="M56.359,75.174c-0.037,0.604-2.026,2.59-2.54,2.628c-0.318,0.023-0.585-0.088-0.771-0.353
		c-0.215-0.307-0.251-0.647,0.009-0.923c0.635-0.675,1.283-1.34,1.959-1.974c0.264-0.248,0.634-0.2,0.944-0.029
		C56.243,74.681,56.315,74.977,56.359,75.174z"/>
	<path fill="#E5007E" d="M45.481,27.255c-0.032,0.411-0.227,0.631-0.44,0.842c-0.526,0.522-1.032,1.067-1.585,1.559
		c-0.381,0.339-0.859,0.297-1.211-0.035c-0.338-0.319-0.318-0.768-0.003-1.103c0.608-0.648,1.248-1.267,1.896-1.874
		c0.271-0.254,0.604-0.241,0.926-0.042C45.345,26.775,45.438,27.042,45.481,27.255z"/>
	<path fill="#E5007E" d="M39.949,32.824c0.007,0.28-0.126,0.497-0.316,0.684c-0.582,0.569-1.145,1.159-1.756,1.694
		c-0.339,0.296-0.753,0.294-1.095-0.059c-0.335-0.345-0.362-0.756-0.053-1.096c0.598-0.655,1.231-1.279,1.878-1.886
		c0.262-0.246,0.617-0.238,0.937-0.07C39.832,32.24,39.954,32.502,39.949,32.824z"/>
	<path fill="#E5007E" d="M50.847,80.815c0.021,0.285-0.126,0.499-0.31,0.686c-0.518,0.528-1.041,1.052-1.567,1.572
		c-0.399,0.394-0.859,0.476-1.285,0.093c-0.45-0.406-0.32-0.875,0.047-1.265c0.531-0.565,1.089-1.106,1.646-1.645
		c0.297-0.288,0.671-0.339,1.027-0.16C50.674,80.231,50.85,80.483,50.847,80.815z"/>
	<path fill="#E5007E" d="M131.628,131.038c-0.017,0.32-0.162,0.584-0.435,0.731c-0.277,0.15-0.6,0.145-0.836-0.08
		c-0.645-0.614-1.285-1.236-1.892-1.887c-0.243-0.261-0.237-0.624-0.046-0.935c0.163-0.265,0.408-0.418,0.744-0.4
		C129.7,128.495,131.613,130.482,131.628,131.038z"/>
	<path fill="#E5007E" d="M136.704,61.651c-0.681-0.148-1.04-0.761-1.497-1.224c-0.511-0.518-1.507-1.082-0.72-1.89
		c0.89-0.914,1.38,0.257,1.939,0.732c0.363,0.308,0.698,0.678,0.95,1.081C137.751,60.952,137.376,61.66,136.704,61.651z"/>
	<path fill="#E5007E" d="M134.68,133.953c0.142,0.064,0.386,0.106,0.529,0.249c0.575,0.575,1.143,1.162,1.667,1.785
		c0.32,0.38,0.319,0.827-0.071,1.19c-0.381,0.354-0.771,0.209-1.089-0.091c-0.566-0.533-1.108-1.093-1.646-1.655
		c-0.278-0.29-0.361-0.641-0.179-1.021C134.034,134.112,134.296,133.995,134.68,133.953z"/>
	<path fill="#E5007E" d="M42.808,32.003c0.483,0.026,2.463,1.982,2.51,2.481c0.03,0.316-0.066,0.579-0.333,0.767
		c-0.273,0.192-0.587,0.21-0.821,0.002c-0.714-0.634-1.413-1.288-2.084-1.967c-0.254-0.257-0.223-0.604-0.024-0.92
		C42.234,32.085,42.488,31.979,42.808,32.003z"/>
	<path fill="#E5007E" d="M37.448,26.465c0.091,0.041,0.297,0.075,0.416,0.195c0.624,0.633,1.245,1.271,1.826,1.943
		c0.319,0.369,0.212,0.795-0.133,1.089c-0.312,0.267-0.714,0.256-1.017-0.03c-0.619-0.585-1.213-1.199-1.804-1.814
		c-0.262-0.272-0.271-0.625-0.104-0.932C36.775,26.657,37.027,26.474,37.448,26.465z"/>
	<path fill="#E5007E" d="M50.722,76.967c-0.018,0.311-0.13,0.576-0.409,0.737c-0.284,0.163-0.583,0.156-0.821-0.068
		c-0.696-0.654-1.433-1.278-2.041-2.008c-0.435-0.523,0.013-1.211,0.699-1.204C48.718,74.43,50.713,76.403,50.722,76.967z"/>
	<path fill="#E5007E" d="M56.211,82.495c-0.01,0.678-0.7,1.04-1.276,0.586c-0.697-0.549-1.31-1.209-1.938-1.842
		c-0.266-0.268-0.241-0.631-0.08-0.939c0.143-0.273,0.422-0.426,0.738-0.425C54.207,79.876,56.22,81.955,56.211,82.495z"/>
	<path fill="#E5007E" d="M129.072,137.378c-0.56-0.008-1.029-0.77-0.662-1.222c0.603-0.743,1.292-1.433,2.028-2.046
		c0.478-0.398,1.16,0.026,1.188,0.655C131.649,135.266,129.577,137.386,129.072,137.378z"/>
	<path fill="#E5007E" d="M131.924,55.439c-0.101,0.552-0.532,0.966-1.067,0.616c-0.858-0.563-1.643-1.288-2.151-2.207
		c-0.294-0.531,0.205-1.126,0.818-1.081C130.069,52.806,131.942,54.827,131.924,55.439z"/>
	<path fill="#E5007E" d="M129.384,61.651c-0.581-0.009-0.98-0.692-0.628-1.216c0.537-0.799,1.246-1.471,2.017-2.041
		c0.515-0.38,1.134,0.011,1.153,0.651C131.94,59.564,129.897,61.658,129.384,61.651z"/>
	<path fill="#E5007E" d="M137.093,129.346c-0.031,0.538-1.99,2.49-2.507,2.503c-0.332,0.009-0.555-0.13-0.707-0.43
		c-0.177-0.348-0.113-0.68,0.12-0.93c0.58-0.624,1.192-1.219,1.806-1.811c0.267-0.258,0.592-0.296,0.916-0.091
		C136.995,128.762,137.105,129.027,137.093,129.346z"/>
	<path fill="#E5007E" d="M136.684,52.769c0.35-0.009,0.533,0.223,0.679,0.49c0.161,0.296,0.097,0.596-0.118,0.821
		c-0.613,0.642-1.215,1.302-1.889,1.876c-0.505,0.43-1.147,0.124-1.225-0.508C134.059,54.865,136.081,52.743,136.684,52.769z"/>
	<path fill="#FBB040" d="M52.41,97.023c-0.654-0.022-0.972-0.328-0.958-0.831c0.022-0.823,0.717-0.965,1.329-1.062
		c0.537-0.085,0.838,0.283,0.838,0.798C53.62,96.798,52.806,96.735,52.41,97.023z"/>
	<path fill="#FBB040" d="M41.571,103.678c-0.204,0.646-0.509,1.228-1.247,1.236c-0.583,0.006-0.887-0.539-0.791-1.007
		c0.117-0.573,0.532-1.072,1.222-1.101C41.333,102.783,41.475,103.215,41.571,103.678z"/>
	<path fill="#FBB040" d="M125.581,100.251c0.557,0.189,1.134,0.452,1.223,1.168c0.066,0.527-0.331,0.907-0.784,0.871
		c-0.642-0.051-1.184-0.438-1.284-1.153C124.658,100.584,125.054,100.367,125.581,100.251z"/>
	<path fill="#FBB040" d="M114.266,94.953c-0.1,0.553-0.428,0.813-0.938,0.738c-0.552-0.081-1.137-0.226-1.174-0.937
		c-0.027-0.532,0.337-0.877,0.829-0.809C113.561,94.025,114.121,94.277,114.266,94.953z"/>
	<path fill="#8ECCC6" d="M112.108,62.007c-1.031-4.321-3.614-7.428-7.525-9.429c-3.633-1.859-5.637-4.996-6.779-8.715
		c-1.187-3.863-2.379-7.721-3.703-11.54c-2.019-5.825-4.869-11.215-8.428-16.239c-0.791-1.116-1.188-1.116-1.986,0.003
		c-2.115,2.966-4.058,6.035-5.596,9.345c-2.712,5.836-4.58,11.97-6.499,18.095c-1.253,3.998-3.443,7.28-7.392,9.302
		c-3.825,1.958-6.211,5.227-7.094,9.487c-0.289,1.396-0.042,1.648,1.356,1.649c3.757,0.001,7.515,0.014,11.272-0.013
		c0.636-0.005,0.92,0.084,0.891,0.826c-0.064,1.634-0.041,3.273-0.008,4.91c0.011,0.551-0.176,0.872-0.642,1.164
		c-2.198,1.377-3.271,3.489-3.682,5.962c-0.462,2.782-0.845,5.577-1.053,8.394c-0.302,4.08-0.703,8.18-0.171,12.244
		c0.494,3.774,0.76,7.535,0.709,11.333c-0.044,3.265,1.572,5.022,4.841,5.284c0.637,0.051,0.781,0.198,0.754,0.832
		c-0.16,3.712-0.279,7.425-0.393,11.139c-0.269,8.767-0.522,17.533-0.798,26.3c-0.02,0.631,0.176,1.009,0.739,1.34
		c2.922,1.718,5.76,1.179,8.587-0.226c0.582-0.289,0.685-0.843,0.758-1.403c0.767-5.894,1.526-11.789,2.297-17.682
		c0.602-4.599,1.218-9.197,1.828-13.795c0.044-0.001,0.088-0.002,0.132-0.002c0.754,5.702,1.511,11.404,2.259,17.107
		c0.628,4.788,1.243,9.578,1.866,14.367c0.073,0.561,0.184,1.089,0.766,1.39c2.862,1.482,5.728,1.664,8.623,0.09
		c0.585-0.318,0.847-0.73,0.823-1.424c-0.186-5.496-0.337-10.994-0.507-16.491c-0.215-6.944-0.428-13.889-0.672-20.833
		c-0.026-0.738,0.19-0.898,0.912-0.934c2.823-0.139,4.519-2.016,4.538-4.868c0.016-2.452-0.066-4.904,0.152-7.355
		c0.175-1.962,0.639-3.881,0.719-5.859c0.261-6.444-0.263-12.85-0.98-19.237c-0.277-2.471-1.447-4.599-3.694-5.935
		c-0.442-0.263-0.609-0.56-0.6-1.068c0.028-1.599,0.075-3.203-0.015-4.797c-0.051-0.904,0.291-1.006,1.064-0.998
		c3.645,0.038,7.292,0.019,10.937,0.016C112.184,63.739,112.444,63.415,112.108,62.007z M69.276,62.312
		c-3.343-0.048-6.686-0.029-10.029-0.012c-0.583,0.003-0.891,0.001-0.632-0.759c1.129-3.305,3.097-5.885,6.286-7.415
		c2.056-0.987,3.682-2.45,5.258-4.223c0,0.541,0,1.082,0,1.622c0,3.269-0.014,6.538,0.012,9.807
		C70.175,62.001,70.082,62.324,69.276,62.312z M72.201,45.73c1.102-3.262,2.13-6.548,3.197-9.822
		c2.042-6.268,4.619-12.28,8.512-17.656c0.171-0.236,0.348-0.469,0.549-0.741c3.157,4.313,5.633,8.933,7.464,13.908
		c1.562,4.243,2.834,8.581,4.285,12.857c0.718,2.115,0.82,4.186,0.819,6.332c-0.005,6.355-0.002,12.711-0.002,19.183
		c-1.576-0.546-3.09-1.021-4.563-1.6c-0.882-0.347-1.337-0.112-1.773,0.698c-1.563,2.905-3.234,5.752-4.764,8.673
		c-0.433,0.826-1.011,0.769-1.716,0.824c-0.739,0.058-1.026-0.318-1.327-0.895c-1.507-2.892-3.078-5.751-4.57-8.651
		c-0.48-0.933-1.015-1.238-2.034-0.811c-1.423,0.596-2.896,1.072-4.445,1.635c0-3.75,0-7.355,0-10.959
		c0-3.757,0.007-7.513-0.007-11.27C71.824,46.827,72.009,46.298,72.201,45.73z M101.351,77.407
		c0.453,5.183,0.851,10.366,0.979,15.571c0.078,3.185-0.723,6.27-0.849,9.423c-0.092,2.301-0.098,4.606-0.138,6.91
		c-0.023,1.306-0.768,2.397-1.901,2.888c-0.718,0.311-0.971,0.127-1.01-0.648c-0.135-2.745-0.307-5.489-0.477-8.232
		c-0.43-6.934-0.871-13.867-1.291-20.801c-0.038-0.626-0.149-1.175-0.885-1.142c-0.772,0.034-0.775,0.676-0.757,1.248
		c0.292,9.545,0.598,19.089,0.875,28.634c0.057,1.967,0.008,3.938,0.008,5.907c0.053,0,0.105,0,0.158,0
		c0.271,9.658,0.54,19.316,0.814,28.974c0.052,1.82,0.093,3.64,0.201,5.457c0.038,0.649-0.228,0.924-0.784,1.124
		c-1.885,0.678-3.706,0.525-5.522-0.276c-0.472-0.208-0.551-0.541-0.605-0.956c-1.282-9.836-2.563-19.672-3.849-29.507
		c-0.342-2.615-0.721-5.225-1.039-7.843c-0.077-0.637-0.267-1.141-0.943-1.128c-0.674,0.012-0.749,0.648-0.818,1.152
		c-0.41,3.019-0.793,6.041-1.19,9.062c-0.935,7.109-1.874,14.217-2.811,21.326c-0.306,2.321-0.635,4.638-0.904,6.963
		c-0.066,0.57-0.319,0.848-0.811,1.043c-1.769,0.699-3.53,0.734-5.331,0.093c-0.606-0.216-0.776-0.538-0.757-1.144
		c0.207-6.424,0.396-12.849,0.584-19.274c0.232-7.911,0.449-15.822,0.692-23.733c0.259-8.43,0.548-16.859,0.8-25.289
		c0.02-0.682,0.326-1.728-0.743-1.798c-1.195-0.079-0.917,1.029-0.959,1.748c-0.554,9.494-1.099,18.988-1.618,28.484
		c-0.044,0.798-0.331,0.834-0.967,0.607c-1.201-0.429-1.942-1.434-1.946-2.812c-0.008-3.234,0.12-6.479-0.412-9.683
		c-1.041-6.271-0.336-12.523,0.106-18.78c0.084-1.185,0.197-2.369,0.317-3.551c0.295-2.91,1.682-5.028,4.495-6.066
		c1.356-0.501,2.747-0.91,4.092-1.439c0.608-0.239,0.824-0.059,1.098,0.466c1.512,2.893,3.091,5.75,4.589,8.65
		c0.38,0.735,0.836,1.013,1.654,0.988c3.591-0.111,2.689,0.573,4.44-2.669c1.198-2.219,2.411-4.43,3.546-6.681
		c0.385-0.764,0.743-1.029,1.591-0.666c1.19,0.508,2.436,0.883,3.659,1.315C99.489,72.29,101.097,74.501,101.351,77.407z
		 M109.429,62.311c-3.307-0.05-6.615-0.017-9.923-0.023c-0.41-0.001-0.896,0.172-0.891-0.592c0.026-3.968,0.012-7.936,0.012-11.903
		c1.648,2.062,3.629,3.538,5.924,4.703c2.812,1.428,4.608,3.779,5.585,6.772C110.367,61.976,110.366,62.326,109.429,62.311z"/>
	<path fill="#FBB040" d="M51.907,113.532c-2.239,0.008-4,1.792-4.001,4.051c0,2.283,1.724,4.026,3.991,4.033
		c2.272,0.008,4.056-1.725,4.084-3.969C56.011,115.368,54.185,113.524,51.907,113.532z M51.823,120.006
		c-1.315-0.012-2.407-1.109-2.41-2.422c-0.003-1.301,1.119-2.408,2.43-2.396c1.358,0.013,2.41,1.139,2.387,2.556
		C54.21,119.017,53.146,120.017,51.823,120.006z"/>
	<path fill="#FBB040" d="M118.498,76.928c-2.247-0.048-4.149,1.82-4.132,4.059c0.017,2.208,1.846,4.053,4.032,4.07
		c2.2,0.017,4.045-1.797,4.082-4.013C122.517,78.868,120.686,76.975,118.498,76.928z M118.416,83.278
		c-1.336,0-2.401-1.062-2.401-2.392c0-1.308,1.095-2.408,2.398-2.408c1.302-0.001,2.408,1.103,2.408,2.403
		C120.82,82.202,119.74,83.279,118.416,83.278z"/>
	<path fill="#8ECCC6" d="M92.04,40.362c0.017,0.328-0.087,0.641-0.447,0.777c-0.395,0.149-0.749,0.039-0.954-0.337
		c-0.14-0.257-0.221-0.548-0.305-0.831c-1.412-4.77-3.196-9.391-5.456-13.826c-0.117-0.23-0.252-0.468-0.29-0.716
		c-0.065-0.422,0.188-0.726,0.553-0.873c0.536-0.214,0.83,0.145,1.056,0.556c1.106,2.016,2.017,4.123,2.884,6.251
		c1.12,2.748,2.001,5.576,2.828,8.422C91.961,39.962,91.992,40.146,92.04,40.362z"/>
	<path fill="#8ECCC6" d="M75.449,45.139c0.501-2.984,1.295-5.795,2.314-8.543c0.321-0.866,0.661-1.725,1.017-2.578
		c0.206-0.493,0.574-0.836,1.132-0.598c0.506,0.216,0.667,0.637,0.437,1.191c-1.438,3.46-2.688,6.978-3.24,10.708
		c-0.075,0.506-0.428,0.802-0.948,0.711C75.652,45.94,75.453,45.547,75.449,45.139z"/>
	<path fill="#8ECCC6" d="M85.355,47.712c-4.507-0.41-8.052,2.404-8.424,6.792c-0.173,2.038,0.065,4.091,0.406,6.096
		c0.605,3.566,3.577,5.995,7.111,6.008c3.504,0.012,6.517-2.456,7.15-5.985c0.255-1.42,0.27-2.882,0.395-4.325
		c-0.012-0.001-0.025-0.002-0.037-0.003c0.015-0.148,0.033-0.295,0.045-0.443C92.362,51.65,89.45,48.085,85.355,47.712z
		 M90.339,56.318c-0.086,0.886-0.152,2.488-0.414,4.057c-0.45,2.692-2.818,4.604-5.503,4.582c-2.738-0.023-5.08-2.017-5.469-4.764
		c-0.218-1.541-0.349-3.101-0.406-4.656c-0.135-3.683,2.284-6.191,5.899-6.195C88.112,49.339,90.507,51.875,90.339,56.318z"/>
</g>
</svg>
