<svg width="420" height="420" xmlns="http://www.w3.org/2000/svg">
 <title>Slice 1</title>CSS SVG Logo source http://jaspreetchahal.org

 <g>
  <title>background</title>
  <rect fill="none" id="canvas_background" height="422" width="422" y="-1" x="-1"/>
 </g>
 <g>
  <title>Layer 1</title>
  <g fill-rule="evenodd" fill="none" id="Page 1">
   <g id="Group">
    <path fill="#E44F26" id="Shape" d="m88.344994,386.205478l-27.07,-303.62l297.45,0l-27.098,303.571l-121.809,33.769l-121.473,-33.72zm0,0"/>
    <path fill="#F1662A" id="Shape" d="m209.999994,394.114478l98.427,-27.288l23.158,-259.416l-121.585,0l0,286.704zm0,0"/>
    <path fill="#EBEBEB" id="Shape" d="m209.999994,220.019478l-49.275,0l-3.404,-38.132l52.679,0l0,-37.239l-0.129,0l-93.246,0l0.892,9.991l9.152,102.616l83.331,0l0,-37.236zm0,0"/>
    <path fill="#EBEBEB" id="Shape" d="m209.999994,316.727478l-0.163,0.046l-41.472,-11.199l-2.652,-29.698l-20.151,0l-17.229,0l5.217,58.467l76.278,21.176l0.172,-0.048l0,-38.744zm0,0"/>
    <path fill="#010101" id="Shape" d="m88.949994,0.074478l18.924,0l0,18.696l17.311,0l0,-18.696l18.925,0l0,56.618l-18.924,0l0,-18.958l-17.31,0l0,18.958l-18.926,0l0,-56.618l0,0zm0,0"/>
    <path fill="#010101" id="Shape" d="m168.993994,18.849478l-16.66,0l0,-18.775l52.252,0l0,18.775l-16.667,0l0,37.843l-18.924,0l0,-37.843l-0.001,0l0,0zm0,0"/>
    <path fill="#010101" id="Shape" d="m212.878994,0.074478l19.733,0l12.137,19.894l12.127,-19.894l19.739,0l0,56.618l-18.846,0l0,-28.063l-13.021,20.13l-0.325,0l-13.028,-20.13l0,28.063l-18.517,0l0,-56.618l0.001,0zm0,0"/>
    <path fill="#010101" id="Shape" d="m286.032994,0.074478l18.929,0l0,37.903l26.612,0l0,18.714l-45.542,0l0,-56.617l0.001,0zm0,0"/>
    <path fill="#FFFFFF" id="Shape" d="m209.870994,220.019478l0,37.236l45.854,0l-4.322,48.294l-41.532,11.21l0,38.742l76.34,-21.158l0.559,-6.29l8.751,-98.035l0.908,-9.999l-10.034,0l-76.524,0zm0,0"/>
    <path fill="#FFFFFF" id="Shape" d="m209.870994,144.648478l0,23.128l0,14.019l0,0.092l89.827,0l0.12,0l0.747,-8.37l1.696,-18.878l0.891,-9.991l-93.281,0zm0,0"/>
   </g>
  </g>
 </g></svg>