<?xml version="1.0" encoding="utf-8"?>
<!-- Generator: Adobe Illustrator 17.0.0, SVG Export Plug-In . SVG Version: 6.00 Build 0)  -->
<!DOCTYPE svg PUBLIC "-//W3C//DTD SVG 1.1//EN" "http://www.w3.org/Graphics/SVG/1.1/DTD/svg11.dtd">
<svg version="1.1" id="Layer_1" xmlns="http://www.w3.org/2000/svg" xmlns:xlink="http://www.w3.org/1999/xlink" x="0px" y="0px"
	 width="170px" height="170px" viewBox="0 0 170 170" enable-background="new 0 0 170 170" xml:space="preserve">
<g>
	<path fill="#FBB040" d="M87.914,45.729c-0.179,0.33-0.363,0.495-0.696,0.494c-0.332-0.001-0.553-0.158-0.654-0.428
		c-0.095-0.255-0.115-0.543-0.138-0.82c-0.349-4.178-0.695-8.356-1.036-12.535c-0.023-0.276-0.033-0.562,0.012-0.834
		c0.051-0.307,0.284-0.476,0.593-0.504c0.337-0.03,0.636,0.06,0.777,0.4c0.065,0.158,0.087,0.339,0.102,0.511
		c0.359,4.353,0.717,8.705,1.068,13.059C87.961,45.312,87.922,45.556,87.914,45.729z"/>
	<path fill="#FBB040" d="M107.381,41.981c-0.838,1.969-1.681,3.936-2.51,5.909c-0.223,0.531-0.488,0.987-1.16,0.696
		c-0.641-0.278-0.447-0.78-0.246-1.247c1.721-3.995,3.446-7.989,5.167-11.984c0.218-0.505,0.531-0.888,1.116-0.596
		c0.547,0.273,0.515,0.74,0.288,1.261c-0.868,1.994-1.709,4-2.561,6.001C107.444,42.008,107.413,41.994,107.381,41.981z"/>
	<path fill="#FBB040" d="M96.794,45.41c-0.169,0.499-0.472,0.766-0.897,0.672c-0.48-0.106-0.62-0.522-0.577-0.985
		c0.175-1.878,0.356-3.756,0.534-5.635c0.066-0.695,0.124-1.392,0.2-2.086c0.055-0.5,0.261-0.919,0.847-0.84
		c0.571,0.077,0.69,0.532,0.644,1.03c-0.228,2.505-0.462,5.009-0.697,7.514C96.835,45.22,96.803,45.357,96.794,45.41z"/>
	<path fill="#21A0A0" d="M70.53,137.28c1.434,0,2.867-0.003,4.301,0.002c0.548,0.002,1.066,0.089,1.056,0.803
		c-0.009,0.684-0.479,0.818-1.051,0.817c-2.901-0.004-5.802-0.005-8.704,0.001c-0.54,0.001-0.995-0.15-1.016-0.751
		c-0.022-0.638,0.416-0.879,1.011-0.879c1.468,0.001,2.935,0,4.403,0C70.53,137.276,70.53,137.278,70.53,137.28z"/>
	<path fill="#21A0A0" d="M62.943,134.07c0.991,0,1.982,0.007,2.973-0.003c0.579-0.006,1.068,0.157,1.07,0.809
		c0.001,0.584-0.446,0.8-0.988,0.801c-2.05,0.003-4.1,0.005-6.15-0.001c-0.57-0.002-0.923-0.31-0.906-0.878
		c0.016-0.551,0.424-0.727,0.926-0.727C60.893,134.071,61.918,134.071,62.943,134.07z"/>
	<path fill="#21A0A0" d="M61.2,138.888c-0.509,0-1.019,0.008-1.528-0.002c-0.448-0.009-0.693-0.282-0.731-0.7
		c-0.042-0.469,0.193-0.834,0.67-0.855c1.084-0.046,2.171-0.049,3.255-0.018c0.41,0.012,0.682,0.287,0.679,0.743
		c-0.003,0.478-0.236,0.789-0.716,0.82c-0.541,0.035-1.086,0.008-1.629,0.008C61.2,138.886,61.2,138.887,61.2,138.888z"/>
	<path fill="#21A0A0" d="M70.09,134.093c0.376,0.001,0.752-0.017,1.127,0.005c0.435,0.026,0.704,0.288,0.733,0.712
		c0.029,0.421-0.193,0.745-0.623,0.807c-0.813,0.117-1.636,0.108-2.45,0.006c-0.437-0.055-0.648-0.375-0.626-0.802
		c0.022-0.43,0.274-0.697,0.713-0.724C69.337,134.074,69.714,134.092,70.09,134.093z"/>
	<path fill="#21A0A0" d="M104.741,130.794c-2.199,0-4.398,0-6.597,0c-0.545,0-1.108-0.006-1.121-0.758
		c-0.013-0.779,0.545-0.877,1.147-0.878c4.398-0.002,8.797-0.002,13.195-0.001c0.6,0,1.186,0.103,1.185,0.854
		c-0.002,0.794-0.632,0.784-1.21,0.783C109.139,130.794,106.94,130.795,104.741,130.794z"/>
	<path fill="#21A0A0" d="M116.027,135.659c-1.462,0-2.923,0.004-4.385-0.002c-0.575-0.002-1.188-0.022-1.204-0.809
		c-0.016-0.79,0.573-0.833,1.165-0.832c2.958,0.002,5.916,0.012,8.874-0.008c0.637-0.004,1.195,0.167,1.228,0.821
		c0.036,0.725-0.585,0.834-1.188,0.832C119.02,135.656,117.523,135.66,116.027,135.659z"/>
	<path fill="#21A0A0" d="M118.638,130.92c-0.732,0-1.464,0.003-2.196-0.001c-0.536-0.003-0.892-0.272-0.879-0.811
		c0.012-0.51,0.332-0.84,0.873-0.844c1.464-0.011,2.928-0.008,4.393-0.002c0.539,0.002,0.884,0.311,0.888,0.822
		c0.005,0.517-0.358,0.819-0.883,0.832C120.102,130.935,119.37,130.921,118.638,130.92z"/>
	<path fill="#21A0A0" d="M105.429,134.03c0.519,0,1.039-0.023,1.556,0.007c0.483,0.028,0.766,0.346,0.791,0.806
		c0.027,0.503-0.314,0.777-0.78,0.79c-1.037,0.029-2.076,0.029-3.112-0.002c-0.466-0.014-0.785-0.283-0.776-0.794
		c0.01-0.555,0.343-0.802,0.868-0.815c0.484-0.011,0.969-0.002,1.453-0.002C105.429,134.023,105.429,134.027,105.429,134.03z"/>
	<path fill="#21A0A0" d="M45.943,107.503c0-2.199,0-4.398,0-6.597c0-0.545,0.006-1.108,0.758-1.121
		c0.779-0.013,0.877,0.545,0.878,1.147c0.002,4.398,0.002,8.797,0.001,13.195c0,0.6-0.103,1.186-0.854,1.185
		c-0.794-0.002-0.784-0.632-0.784-1.21C45.943,111.901,45.942,109.702,45.943,107.503z"/>
	<path fill="#21A0A0" d="M41.078,118.789c0-1.462-0.004-2.923,0.002-4.385c0.002-0.575,0.022-1.188,0.809-1.204
		c0.79-0.016,0.833,0.573,0.832,1.165c-0.002,2.958-0.012,5.916,0.008,8.874c0.004,0.637-0.167,1.195-0.821,1.228
		c-0.725,0.036-0.834-0.585-0.832-1.188C41.081,121.782,41.077,120.285,41.078,118.789z"/>
	<path fill="#21A0A0" d="M45.817,121.4c0-0.732-0.003-1.464,0.001-2.196c0.003-0.536,0.272-0.892,0.811-0.879
		c0.51,0.012,0.84,0.332,0.844,0.873c0.011,1.464,0.008,2.928,0.002,4.393c-0.002,0.539-0.311,0.884-0.822,0.888
		c-0.517,0.005-0.819-0.358-0.832-0.883C45.802,122.864,45.816,122.132,45.817,121.4z"/>
	<path fill="#21A0A0" d="M42.707,108.192c0,0.519,0.023,1.039-0.007,1.556c-0.028,0.483-0.346,0.766-0.806,0.791
		c-0.503,0.027-0.777-0.314-0.79-0.78c-0.029-1.037-0.029-2.076,0.002-3.112c0.014-0.466,0.283-0.785,0.794-0.776
		c0.555,0.01,0.802,0.343,0.815,0.868c0.011,0.484,0.002,0.969,0.002,1.453C42.714,108.192,42.71,108.192,42.707,108.192z"/>
	<path fill="#21A0A0" d="M136.196,81.936c0-1.462-0.004-2.923,0.002-4.385c0.002-0.575,0.022-1.188,0.809-1.204
		c0.79-0.016,0.833,0.573,0.832,1.165c-0.001,2.958-0.012,5.916,0.008,8.874c0.004,0.637-0.167,1.195-0.821,1.228
		c-0.725,0.036-0.834-0.585-0.832-1.188C136.199,84.929,136.196,83.433,136.196,81.936z"/>
	<path fill="#21A0A0" d="M137.825,71.339c0,0.519,0.023,1.039-0.007,1.556c-0.028,0.483-0.346,0.766-0.806,0.791
		c-0.503,0.027-0.777-0.314-0.79-0.78c-0.029-1.037-0.029-2.076,0.002-3.112c0.014-0.466,0.283-0.785,0.794-0.776
		c0.555,0.01,0.802,0.343,0.815,0.868c0.011,0.484,0.002,0.969,0.002,1.453C137.833,71.339,137.829,71.339,137.825,71.339z"/>
	<path fill="#E5007E" d="M126.224,53.352c0.008,0.306-0.135,0.551-0.379,0.7c-0.291,0.177-0.605,0.154-0.86-0.098
		c-0.595-0.585-1.195-1.166-1.768-1.773c-0.261-0.277-0.287-0.63-0.084-0.965c0.156-0.258,0.418-0.374,0.706-0.367
		C124.277,50.861,126.202,52.901,126.224,53.352z"/>
	<path fill="#E5007E" d="M120.553,47.644c-0.023,0.617-0.709,0.97-1.214,0.548c-0.662-0.553-1.247-1.203-1.835-1.839
		c-0.223-0.24-0.254-0.56-0.065-0.87c0.16-0.262,0.385-0.384,0.689-0.376C118.626,45.12,120.571,47.153,120.553,47.644z"/>
	<path fill="#E5007E" d="M120.578,51.68c-0.089,0.165-0.164,0.41-0.321,0.578c-0.523,0.558-1.071,1.094-1.62,1.626
		c-0.347,0.336-0.735,0.404-1.102,0.036c-0.326-0.327-0.295-0.723-0.012-1.031c0.588-0.639,1.209-1.25,1.844-1.843
		c0.196-0.183,0.469-0.3,0.765-0.114C120.389,51.094,120.503,51.332,120.578,51.68z"/>
	<path fill="#E5007E" d="M126.306,45.837c-0.005,0.252-0.082,0.47-0.267,0.653c-0.542,0.536-1.069,1.086-1.619,1.614
		c-0.342,0.328-0.749,0.394-1.103,0.043c-0.357-0.354-0.294-0.768,0.031-1.111c0.547-0.579,1.121-1.132,1.685-1.696
		c0.246-0.246,0.541-0.315,0.856-0.173C126.165,45.291,126.286,45.539,126.306,45.837z"/>
	<path fill="#E5007E" d="M41.076,69.259c0.008,0.306-0.135,0.551-0.379,0.7c-0.291,0.177-0.605,0.154-0.86-0.098
		c-0.595-0.585-1.195-1.166-1.768-1.773c-0.261-0.277-0.287-0.63-0.084-0.965c0.156-0.258,0.418-0.374,0.706-0.367
		C39.128,66.768,41.053,68.808,41.076,69.259z"/>
	<path fill="#E5007E" d="M35.404,63.551c-0.023,0.617-0.709,0.97-1.214,0.548c-0.662-0.553-1.247-1.203-1.835-1.839
		c-0.223-0.24-0.254-0.56-0.065-0.87c0.16-0.262,0.385-0.384,0.689-0.376C33.477,61.027,35.422,63.06,35.404,63.551z"/>
	<path fill="#E5007E" d="M35.429,67.586c-0.089,0.165-0.164,0.41-0.321,0.578c-0.523,0.558-1.071,1.094-1.62,1.626
		c-0.347,0.336-0.735,0.404-1.102,0.036c-0.326-0.327-0.295-0.723-0.012-1.031c0.588-0.639,1.209-1.25,1.844-1.843
		c0.196-0.183,0.469-0.3,0.765-0.114C35.24,67.001,35.354,67.239,35.429,67.586z"/>
	<path fill="#E5007E" d="M41.157,61.743c-0.005,0.252-0.082,0.47-0.267,0.653c-0.542,0.536-1.069,1.086-1.619,1.614
		c-0.342,0.328-0.749,0.394-1.103,0.043c-0.357-0.353-0.294-0.768,0.031-1.111c0.547-0.579,1.121-1.132,1.685-1.696
		c0.246-0.246,0.541-0.315,0.856-0.173C41.017,61.197,41.137,61.446,41.157,61.743z"/>
	<path fill="#FBB040" d="M51.159,44.149c-2.04-0.026-3.806,1.694-3.865,3.763c-0.059,2.068,1.749,3.893,3.845,3.883
		c2.053-0.01,3.817-1.77,3.821-3.811C54.964,45.949,53.206,44.175,51.159,44.149z M51.139,50.153
		c-1.214,0.007-2.238-1.026-2.244-2.263c-0.006-1.27,0.955-2.262,2.208-2.276c1.226-0.014,2.245,0.997,2.259,2.241
		C53.375,49.081,52.345,50.146,51.139,50.153z"/>
	<path fill="#FBB040" d="M62.996,108.309c-2.04-0.026-3.806,1.694-3.865,3.763c-0.059,2.068,1.749,3.893,3.845,3.883
		c2.053-0.01,3.817-1.77,3.821-3.811C66.801,110.109,65.042,108.335,62.996,108.309z M62.976,114.314
		c-1.214,0.007-2.238-1.026-2.244-2.263c-0.006-1.27,0.955-2.262,2.208-2.276c1.226-0.014,2.245,0.997,2.259,2.241
		C65.212,113.241,64.181,114.306,62.976,114.314z"/>
	<path fill="#FBB040" d="M128.496,108.344c-2.121-0.019-3.861,1.72-3.838,3.837c0.023,2.086,1.709,3.738,3.818,3.739
		c2.112,0.002,3.811-1.676,3.792-3.744C132.248,110.116,130.522,108.362,128.496,108.344z M128.5,114.409
		c-1.203,0.03-2.255-1.008-2.27-2.24c-0.016-1.222,1.007-2.288,2.213-2.309c1.201-0.02,2.274,1.029,2.288,2.239
		C130.744,113.288,129.69,114.379,128.5,114.409z"/>
	<path fill="#8ECCC6" stroke="#FFFFFF" stroke-miterlimit="10" d="M130.517,91.815c-0.354-2.671-0.857-5.303-1.649-7.874
		c-1.322-4.287-3.209-8.307-5.687-12.06c-3.402-5.152-7.629-9.49-12.668-13.034c-6.309-4.436-13.336-7.052-20.951-8.144
		c-2.006-0.287-3.721,0.329-4.961,1.896c-1.263,1.595-1.602,3.422-0.605,5.306c0.375,0.709,0.319,1.374,0.118,2.08
		c-1.499,5.277-2.993,10.554-4.498,15.829c-3.195,11.2-6.393,22.398-9.599,33.595c-0.157,0.549-0.178,1.034,0.243,1.477
		c0.437,0.46,0.941,0.395,1.474,0.239c3.705-1.082,7.41-2.163,11.117-3.238c0.279-0.081,0.611-0.287,0.847-0.016
		c0.218,0.251,0.026,0.574-0.054,0.859c-0.361,1.282-0.974,2.461-1.487,3.681c-1.932,4.592,1.428,9.698,6.385,9.731
		c5.107,0.033,8.534-5.028,6.67-9.873c-0.803-2.086-1.563-4.182-1.938-6.396c-0.075-0.444-0.257-0.964,0.352-1.156
		c1.154-0.364,2.325-0.679,3.492-1c0.487-0.134,0.743-0.001,0.574,0.564c-0.184,0.616-0.344,1.239-0.531,1.855
		c-0.669,2.208,0.11,4.614,1.903,5.855c2.088,1.444,4.5,1.479,6.357,0.091c1.929-1.442,2.664-3.917,1.867-6.187
		c-0.426-1.212-0.817-2.433-1.124-3.686c-0.24-0.978,0.123-1.33,1.022-1.578c4.703-1.299,9.391-2.652,14.084-3.988
		c0.742-0.211,1.391-0.185,2.164,0.153C127.23,98.454,131.086,96.106,130.517,91.815z M119.795,94.67
		c-3.91,1.177-7.818,2.363-11.727,3.544c-1.158,0.35-2.321,0.682-3.474,1.044c-0.929,0.292-1.299,0.916-1.178,1.907
		c0.235,1.929,0.753,3.781,1.354,5.622c0.777,2.379-0.726,4.343-3.007,3.991c-1.65-0.255-2.702-1.756-2.312-3.388
		c0.343-1.433,0.746-2.853,1.156-4.269c0.203-0.703,0.484-1.392-0.135-2.021c-0.576-0.585-1.216-0.386-1.902-0.188
		c-2.325,0.672-4.663,1.296-6.998,1.934c-0.937,0.256-1.225,0.904-1.156,1.81c0.193,2.548,0.772,4.996,1.729,7.37
		c0.612,1.519,1.436,3,0.642,4.776c-0.842,1.882-2.87,3.246-4.634,2.908c-2.506-0.48-3.999-2.15-4.007-4.616
		c-0.092-0.977,0.411-1.924,0.832-2.894c0.817-1.886,1.45-3.824,1.555-5.892c0.077-1.52-0.567-1.989-2.037-1.564
		c-3.416,0.985-6.833,1.97-10.252,2.944c-1.088,0.31-1.215,0.195-0.91-0.894c1.737-6.191,3.489-12.377,5.238-18.564
		c1.574-5.568,3.152-11.135,4.726-16.704c0.976-3.456,1.955-6.911,2.911-10.372c0.194-0.703,0.454-0.9,1.26-0.733
		c3.037,0.632,6.094,1.138,9.012,2.264c5.5,2.122,10.249,5.315,14.247,9.654c3.891,4.222,6.63,9.084,8.315,14.559
		c0.703,2.285,0.94,4.668,1.486,6.985C120.659,94.44,120.207,94.546,119.795,94.67z M127.589,94.133
		c-1.03,1.541-3.313,1.365-4.243-0.292c-0.56-0.998-0.596-2.114-0.776-3.183c-1.282-7.607-4.611-14.184-9.81-19.854
		c-5.091-5.552-11.263-9.329-18.501-11.377c-1.786-0.505-3.601-0.884-5.446-1.108c-1.298-0.158-2.448-1.037-2.676-2.125
		c-0.221-1.054,0.097-1.952,1.002-2.594c0.552-0.391,1.183-0.48,1.844-0.467c3.248,0.345,6.395,1.129,9.467,2.233
		c6.263,2.249,11.746,5.762,16.453,10.43c4.788,4.748,8.405,10.28,10.698,16.666c1.094,3.047,1.825,6.163,2.272,9.355
		C127.981,92.606,128.07,93.413,127.589,94.133z"/>
	<path fill="#8ECCC6" stroke="#FFFFFF" stroke-miterlimit="10" d="M89.922,65.539c0.087-2.627,2.526-4.972,5.136-4.966
		c0.818,0.002,1.358,0.381,1.411,1.161c0.053,0.78-0.431,1.208-1.242,1.331c-1.808,0.272-2.459,0.934-2.744,2.775
		c-0.128,0.825-0.563,1.224-1.37,1.185C90.346,66.987,89.894,66.394,89.922,65.539z"/>
	<path fill="#8ECCC6" stroke="#FFFFFF" stroke-miterlimit="10" d="M99.947,91.613c0.014,0.505-0.216,0.863-0.657,1.098
		c-0.436,0.232-0.899,0.297-1.271-0.053c-0.882-0.83-1.659-1.761-2.27-2.808c-0.239-0.409-0.151-0.895,0.203-1.261
		c0.334-0.345,0.759-0.504,1.235-0.417C97.828,88.29,99.925,90.928,99.947,91.613z"/>
	<path fill="#8ECCC6" stroke="#FFFFFF" stroke-miterlimit="10" d="M104.076,80.276c-1.085-0.385-2.326-0.623-3.353-1.348
		c-0.447-0.316-0.64-0.847-0.327-1.408c0.303-0.543,0.783-0.888,1.391-0.709c0.971,0.287,1.928,0.644,2.854,1.054
		c0.549,0.243,0.88,0.75,0.736,1.387C105.239,79.862,104.81,80.21,104.076,80.276z"/>
	<path fill="#8ECCC6" stroke="#FFFFFF" stroke-miterlimit="10" d="M87.258,87.193c-0.768-0.004-1.115-0.335-1.309-0.823
		c-0.223-0.563-0.078-1.095,0.438-1.39c0.884-0.507,1.787-1,2.733-1.37c0.653-0.256,1.289-0.036,1.592,0.689
		c0.307,0.733,0.022,1.24-0.668,1.563C89.059,86.322,88.137,86.926,87.258,87.193z"/>
	<path fill="#8ECCC6" stroke="#FFFFFF" stroke-miterlimit="10" d="M103.956,65.537c0.712,0.052,1.102,0.305,1.266,0.835
		c0.172,0.553,0.103,1.107-0.42,1.399c-0.952,0.532-1.942,1.003-2.937,1.452c-0.519,0.234-0.966,0.025-1.253-0.458
		c-0.29-0.488-0.424-1.108,0.014-1.467C101.647,66.461,102.884,65.988,103.956,65.537z"/>
	<path fill="#8ECCC6" stroke="#FFFFFF" stroke-miterlimit="10" d="M111.234,78.783c-3.583,0.011-6.49,2.954-6.468,6.548
		c0.021,3.539,2.919,6.414,6.467,6.414c3.609,0,6.518-2.897,6.515-6.487C117.746,81.638,114.863,78.772,111.234,78.783z
		 M111.298,89.425c-2.193,0.037-4.04-1.822-4.026-4.053c0.014-2.202,1.762-3.916,3.992-3.913c2.218,0.002,3.972,1.738,3.979,3.938
		C115.25,87.563,113.462,89.389,111.298,89.425z"/>
	<path fill="#8ECCC6" stroke="#FFFFFF" stroke-miterlimit="10" d="M90.534,69.541c-2.587,0.015-4.756,2.176-4.788,4.771
		c-0.032,2.627,2.168,4.885,4.782,4.905c2.591,0.02,4.855-2.233,4.863-4.841C95.398,71.775,93.138,69.525,90.534,69.541z
		 M90.493,76.557c-1.221-0.029-2.126-0.962-2.126-2.192c0.001-1.254,1.001-2.233,2.248-2.2c1.206,0.032,2.12,0.987,2.116,2.213
		C92.728,75.663,91.779,76.587,90.493,76.557z"/>
	<path fill="#8ECCC6" stroke="#FFFFFF" stroke-miterlimit="10" d="M84.943,90.121c-2.289-0.011-4.125,1.791-4.142,4.066
		c-0.017,2.261,1.823,4.146,4.062,4.163c2.213,0.017,4.159-1.884,4.18-4.083C89.063,92.032,87.185,90.132,84.943,90.121z
		 M84.896,95.882c-0.916-0.014-1.649-0.751-1.647-1.654c0.002-0.935,0.714-1.627,1.654-1.609c0.94,0.019,1.641,0.721,1.642,1.644
		C86.546,95.2,85.838,95.896,84.896,95.882z"/>
	<path fill="#8ECCC6" d="M73.384,45.497c-1.19-0.519-2.354-1.098-3.529-1.649c-1.095-0.514-1.131-0.502-1.631,0.565
		c-1.371,2.926-2.74,5.853-4.111,8.779c-1.452,3.098-2.907,6.194-4.361,9.291c-0.207,0.441-0.472,0.957,0.158,1.206
		c0.652,0.258,0.449,0.575,0.252,0.999c-1.027,2.213-2.066,4.42-3.036,6.658c-0.278,0.64-0.566,0.733-1.23,0.606
		c-4.593-0.877-8.577,0.367-11.647,3.881c-3.088,3.535-3.828,7.659-2.417,12.009c1.926,4.824,5.343,7.627,10.34,8.147
		c4.967,0.517,8.892-1.511,11.585-5.716c3.379-5.278,1.992-12.448-3.057-16.21c-0.353-0.263-0.724-0.403-0.43-1.011
		c1.128-2.339,2.194-4.709,3.285-7.066c0.115-0.25,0.19-0.555,0.59-0.318c0.664,0.392,0.956-0.005,1.214-0.563
		c2.826-6.093,5.656-12.183,8.503-18.266C74.165,46.184,74.07,45.797,73.384,45.497z M62.232,90.382
		c-2.708,3.608-6.405,5.102-10.831,4.297c-4.692-0.853-7.711-3.776-8.785-8.386c-1.031-4.427,0.424-8.207,3.945-11.063
		c2.805-2.275,6.074-2.777,9.719-2.015c-1.113,2.337-2.198,4.588-3.25,6.854c-0.179,0.387-0.498,0.438-0.811,0.561
		c-1.709,0.674-2.626,2.362-2.183,4.019c0.482,1.804,2.082,2.922,3.829,2.678c1.81-0.253,3.071-1.813,2.973-3.693
		c-0.013-0.249-0.017-0.537-0.141-0.734c-0.569-0.905-0.26-1.699,0.165-2.551c0.792-1.587,1.578-3.183,2.233-4.828
		c0.377-0.947,0.712-0.724,1.286-0.246C64.91,79.057,65.768,85.669,62.232,90.382z M55.462,83.089
		c0.463,1.172-0.136,2.47-1.345,2.918c-1.224,0.453-2.439-0.117-2.894-1.359c-0.44-1.202,0.169-2.49,1.373-2.905
		C53.75,81.345,55.006,81.935,55.462,83.089z M62.254,65.735c-2.405,5.019-4.818,10.033-7.236,15.061
		c-0.871-0.354-0.87-0.353-0.362-1.445c2.186-4.703,4.369-9.407,6.559-14.107c0.165-0.355,0.187-0.865,0.884-0.542
		C62.803,65.027,62.423,65.381,62.254,65.735z M72.385,47.073c-2.593,5.599-5.197,11.193-7.777,16.797
		c-0.21,0.456-0.39,0.55-0.838,0.31c-0.889-0.476-2.213-0.687-2.591-1.408c-0.351-0.669,0.615-1.729,1.019-2.606
		c2.238-4.857,4.508-9.698,6.734-14.56c0.271-0.592,0.495-0.748,1.084-0.409c0.656,0.377,1.366,0.661,2.052,0.986
		c0.168,0.08,0.334,0.165,0.475,0.235C72.646,46.705,72.473,46.882,72.385,47.073z"/>
</g>
</svg>
