<?xml version="1.0" encoding="utf-8"?>
<!-- Generator: Adobe Illustrator 17.0.0, SVG Export Plug-In . SVG Version: 6.00 Build 0)  -->
<!DOCTYPE svg PUBLIC "-//W3C//DTD SVG 1.1//EN" "http://www.w3.org/Graphics/SVG/1.1/DTD/svg11.dtd">
<svg version="1.1" id="Layer_1" xmlns="http://www.w3.org/2000/svg" xmlns:xlink="http://www.w3.org/1999/xlink" x="0px" y="0px"
	 width="170px" height="170px" viewBox="0 0 170 170" enable-background="new 0 0 170 170" xml:space="preserve">
<g>
	<path fill="#8ECCC6" d="M52.027,145.638c-5.538,0-11.076,0-16.614-0.001c-0.35,0-0.701,0.002-1.051-0.013
		c-0.505-0.023-0.785-0.323-0.783-0.802c0.002-0.468,0.277-0.791,0.763-0.849c0.311-0.037,0.63-0.019,0.945-0.019
		c11.181-0.001,22.362-0.004,33.543,0.007c0.689,0.001,1.689-0.252,1.659,0.875c-0.027,1.024-0.975,0.794-1.639,0.796
		C63.243,145.643,57.635,145.638,52.027,145.638z"/>
	<path fill="#E5007E" d="M43.377,54c-0.07,0.85-0.471,1.51-1.144,2.03c-0.755,0.584-1.614,0.971-2.473,1.364
		c-0.444,0.204-0.904,0.39-1.307,0.66c-1.02,0.682-1.043,1.455-0.046,2.154c0.57,0.399,1.206,0.704,1.817,1.042
		c0.245,0.135,0.507,0.237,0.753,0.371c1.225,0.665,2.415,1.376,2.394,3.014c-0.021,1.633-1.22,2.331-2.458,2.971
		c-0.652,0.337-1.333,0.617-1.977,0.968c-1.622,0.885-1.654,1.801-0.082,2.721c0.813,0.476,1.687,0.849,2.51,1.309
		c0.868,0.486,1.656,1.081,1.935,2.105c0.152,0.557,0.226,1.195-0.467,1.424c-0.704,0.233-1.01-0.246-1.128-0.882
		c-0.117-0.627-0.635-0.901-1.116-1.173c-1.002-0.568-2.07-1.031-3.03-1.661c-2.042-1.34-2.043-3.506,0-4.857
		c0.869-0.575,1.854-0.973,2.781-1.461c0.618-0.325,1.339-0.612,1.362-1.445c0.023-0.851-0.737-1.138-1.322-1.482
		c-0.903-0.531-1.887-0.929-2.768-1.491c-2.103-1.342-2.098-3.542-0.026-4.93c0.758-0.508,1.604-0.848,2.422-1.245
		c0.809-0.392,1.66-0.761,1.789-1.867c0.054-0.467,0.466-0.711,0.949-0.595C43.216,53.159,43.431,53.502,43.377,54z"/>
	<path fill="#E5007E" d="M54.074,51.115c-0.091,1.077-0.667,1.786-1.485,2.346c-0.871,0.597-1.868,0.946-2.789,1.442
		c-0.604,0.325-1.335,0.593-1.382,1.434c-0.049,0.875,0.704,1.147,1.291,1.486c0.846,0.488,1.76,0.862,2.595,1.366
		c2.378,1.437,2.372,3.762-0.008,5.218c-0.653,0.399-1.368,0.696-2.054,1.041c-0.874,0.439-1.79,0.813-1.948,1.987
		c-0.057,0.427-0.442,0.624-0.883,0.543c-0.49-0.089-0.69-0.416-0.673-0.907c0.032-0.917,0.506-1.578,1.198-2.114
		c0.725-0.561,1.559-0.925,2.381-1.313c0.472-0.222,0.957-0.442,1.376-0.745c0.967-0.698,0.985-1.405,0.01-2.087
		c-0.683-0.478-1.46-0.818-2.188-1.233c-0.576-0.328-1.188-0.615-1.7-1.025c-1.49-1.193-1.447-3.122,0.047-4.318
		c0.83-0.664,1.813-1.041,2.755-1.5c0.844-0.411,1.72-0.782,1.876-1.926c0.061-0.45,0.511-0.656,0.994-0.534
		C53.936,50.39,54.045,50.756,54.074,51.115z"/>
	<path fill="#FBB040" d="M102.546,29.952c0,2.105-0.005,4.209,0.003,6.314c0.002,0.61-0.071,1.194-0.846,1.162
		c-0.734-0.03-0.83-0.587-0.829-1.21c0.008-4.209-0.003-8.418-0.002-12.628c0-0.688,0.15-1.327,1.034-1.204
		c0.618,0.086,0.648,0.624,0.645,1.146C102.54,25.672,102.546,27.812,102.546,29.952z"/>
	<path fill="#FBB040" d="M62.207,70.28c-2.101,0-4.202-0.015-6.303,0.009c-0.634,0.007-1.166-0.094-1.183-0.834
		c-0.02-0.814,0.643-0.679,1.145-0.685c4.167-0.051,8.334-0.093,12.501-0.136c0.21-0.002,0.422-0.012,0.63,0.007
		c0.534,0.051,0.857,0.362,0.833,0.889c-0.025,0.526-0.425,0.654-0.898,0.652c-2.241-0.007-4.482-0.003-6.723-0.003
		C62.207,70.213,62.207,70.247,62.207,70.28z"/>
	<path fill="#FBB040" d="M129.964,84.92c0.181,0.09,0.468,0.213,0.736,0.37c3.594,2.097,7.186,4.196,10.776,6.301
		c0.239,0.14,0.478,0.298,0.673,0.492c0.245,0.245,0.269,0.578,0.118,0.876c-0.164,0.324-0.504,0.37-0.821,0.325
		c-0.197-0.028-0.386-0.151-0.565-0.256c-3.685-2.149-7.368-4.302-11.05-6.456c-0.425-0.249-0.896-0.477-0.68-1.12
		C129.263,85.118,129.477,84.922,129.964,84.92z"/>
	<path fill="#FBB040" d="M61.624,45.748c0.183,0.087,0.442,0.188,0.681,0.324c3.709,2.109,7.414,4.225,11.123,6.333
		c0.492,0.28,0.967,0.611,0.586,1.22c-0.339,0.542-0.844,0.438-1.373,0.134c-3.76-2.161-7.531-4.301-11.302-6.443
		c-0.358-0.203-0.649-0.435-0.532-0.902C60.901,46.041,61.138,45.808,61.624,45.748z"/>
	<path fill="#FBB040" d="M118.22,42.03c-0.52-0.124-0.714-0.514-0.642-1.011c0.038-0.262,0.21-0.513,0.352-0.752
		c2.119-3.571,4.243-7.138,6.364-10.708c0.291-0.49,0.576-1.081,1.272-0.656c0.672,0.411,0.334,0.965,0.043,1.456
		c-2.191,3.69-4.392,7.375-6.573,11.071C118.841,41.759,118.627,41.983,118.22,42.03z"/>
	<path fill="#FBB040" d="M78.222,28.781c0.342-0.024,0.522,0.246,0.685,0.519c2.251,3.783,4.496,7.569,6.748,11.351
		c0.294,0.493,0.326,0.935-0.222,1.252c-0.548,0.318-0.862-0.075-1.097-0.469c-2.257-3.779-4.509-7.561-6.738-11.357
		C77.198,29.397,77.523,28.77,78.222,28.781z"/>
	<path fill="#FBB040" d="M129.911,53.833c-0.374-0.036-0.598-0.14-0.727-0.447c-0.129-0.305-0.071-0.57,0.138-0.769
		c0.197-0.188,0.455-0.318,0.7-0.448c3.708-1.957,7.417-3.911,11.129-5.86c0.246-0.129,0.504-0.25,0.772-0.315
		c0.302-0.074,0.549,0.075,0.696,0.348c0.16,0.298,0.194,0.608-0.064,0.871c-0.12,0.122-0.277,0.213-0.431,0.294
		c-3.864,2.035-7.73,4.067-11.598,6.094C130.313,53.713,130.073,53.773,129.911,53.833z"/>
	<path fill="#FBB040" d="M140.98,70.28c-2.14,0-4.28-0.006-6.42,0.004c-0.576,0.002-1.1-0.062-1.094-0.795
		c0.005-0.699,0.542-0.717,1.052-0.715c4.35,0.02,8.7,0.044,13.05,0.063c0.55,0.002,1.025,0.142,0.985,0.794
		c-0.037,0.611-0.48,0.764-1.048,0.759c-2.175-0.018-4.35-0.007-6.525-0.007C140.98,70.348,140.98,70.314,140.98,70.28z"/>
	<path fill="#21A0A0" d="M128.309,148.333c1.821,0,3.641,0.01,5.462-0.006c0.603-0.005,1.098,0.166,1.093,0.824
		c-0.005,0.653-0.518,0.841-1.106,0.841c-3.676-0.002-7.352,0-11.029-0.004c-0.563-0.001-1.094-0.09-1.075-0.827
		c0.018-0.7,0.502-0.832,1.088-0.83C124.598,148.337,126.453,148.333,128.309,148.333z"/>
	<path fill="#E5007E" d="M46.421,26.277c1.82,0,3.641,0.008,5.461-0.004c0.57-0.004,1.126,0.055,1.141,0.757
		c0.015,0.709-0.508,0.928-1.14,0.929c-3.64,0.001-7.281,0.004-10.921,0c-0.559,0-1.123-0.116-1.147-0.792
		c-0.026-0.728,0.511-0.897,1.146-0.893C42.78,26.284,44.6,26.277,46.421,26.277z"/>
	<path fill="#21A0A0" d="M21.452,43.147c0-1.647,0.014-3.294-0.007-4.941c-0.008-0.594,0.122-1.124,0.777-1.138
		c0.69-0.015,0.908,0.499,0.905,1.151c-0.014,3.294-0.013,6.587-0.01,9.881c0.001,0.603-0.082,1.214-0.806,1.242
		c-0.817,0.031-0.87-0.609-0.864-1.254C21.463,46.441,21.452,44.794,21.452,43.147z"/>
	<path fill="#21A0A0" d="M143.363,112.907c0.001-1.645,0.001-3.29,0.002-4.936c0-0.622,0.025-1.284,0.868-1.266
		c0.754,0.016,0.815,0.608,0.814,1.213c-0.007,3.29-0.006,6.581,0,9.871c0.001,0.615-0.097,1.177-0.864,1.155
		c-0.764-0.022-0.824-0.608-0.822-1.207C143.365,116.128,143.361,114.517,143.363,112.907z"/>
	<path fill="#21A0A0" d="M118.969,144.375c1.224,0,2.447,0.007,3.671-0.003c0.581-0.005,1.106,0.127,1.125,0.801
		c0.021,0.744-0.538,0.883-1.155,0.883c-2.447-0.002-4.895,0.002-7.342-0.002c-0.595-0.001-1.181-0.085-1.17-0.861
		c0.011-0.785,0.614-0.817,1.2-0.818C116.521,144.374,117.745,144.375,118.969,144.375z"/>
	<path fill="#E5007E" d="M36.953,23.906c-1.222,0-2.444,0.009-3.665-0.004c-0.508-0.006-1.054-0.087-1.049-0.742
		c0.005-0.661,0.507-0.848,1.09-0.848c2.513-0.001,5.027-0.007,7.54,0.002c0.507,0.002,1.042,0.075,1.045,0.744
		c0.003,0.694-0.517,0.842-1.086,0.845C39.537,23.912,38.245,23.906,36.953,23.906z"/>
	<path fill="#FBB040" d="M125.086,47.156c-0.294,0.026-0.515-0.151-0.619-0.428c-0.144-0.385-0.073-0.746,0.219-1.067
		c1.107-1.218,2.203-2.445,3.303-3.669c0.632-0.703,1.269-1.402,1.894-2.111c0.369-0.417,0.785-0.634,1.263-0.22
		c0.474,0.41,0.349,0.851-0.034,1.276c-1.735,1.925-3.464,3.855-5.193,5.786C125.703,46.967,125.467,47.158,125.086,47.156z"/>
	<path fill="#FBB040" d="M79.046,46.345c-0.38-0.01-0.596-0.247-0.827-0.459c-1.779-1.629-3.557-3.259-5.341-4.882
		c-0.442-0.402-0.861-0.842-0.362-1.414c0.516-0.59,1.006-0.184,1.435,0.206c1.836,1.67,3.666,3.345,5.5,5.018
		c0.334,0.305,0.534,0.647,0.34,1.111C79.645,46.274,79.327,46.308,79.046,46.345z"/>
	<path fill="#FBB040" d="M112.931,29.802c-0.414,2.025-0.818,4.008-1.224,5.99c-0.119,0.58-0.247,1.159-0.365,1.739
		c-0.111,0.546-0.275,1.097-0.982,0.933c-0.644-0.149-0.706-0.678-0.584-1.252c0.441-2.081,0.874-4.164,1.311-6.247
		c0.1-0.478,0.176-0.964,0.311-1.433c0.123-0.43,0.455-0.608,0.895-0.525C112.744,29.094,112.901,29.42,112.931,29.802z"/>
	<path fill="#FBB040" d="M140.789,80.625c-2.48-0.521-5.079-1.062-7.676-1.615c-0.523-0.111-0.817-0.455-0.671-0.99
		c0.127-0.463,0.507-0.656,0.987-0.555c2.598,0.542,5.196,1.089,7.793,1.637c0.541,0.114,0.767,0.468,0.675,0.999
		C141.797,80.677,141.336,80.629,140.789,80.625z"/>
	<path fill="#FBB040" d="M70.188,60.879c-1.843-0.4-3.686-0.797-5.528-1.201c-0.785-0.172-1.567-0.356-2.349-0.54
		c-0.496-0.116-0.872-0.401-0.755-0.941c0.111-0.511,0.512-0.712,1.052-0.592c2.591,0.576,5.183,1.143,7.774,1.719
		c0.486,0.108,0.717,0.45,0.654,0.926C70.975,60.707,70.647,60.886,70.188,60.879z"/>
	<path fill="#FBB040" d="M131.356,98.405c-0.007,0.328-0.222,0.491-0.489,0.614c-0.426,0.197-0.731-0.013-1.029-0.286
		c-1.235-1.134-2.473-2.263-3.71-3.394c-0.696-0.636-1.4-1.265-2.087-1.911c-0.384-0.362-0.455-0.777-0.082-1.199
		c0.404-0.457,0.831-0.302,1.19,0.031c1.972,1.83,3.928,3.676,5.89,5.516C131.221,97.947,131.38,98.13,131.356,98.405z"/>
	<path fill="#FBB040" d="M94.703,37.359c-0.023,0.402-0.145,0.688-0.501,0.774c-0.42,0.1-0.777-0.034-0.939-0.453
		c-0.189-0.487-0.33-0.992-0.49-1.491c-0.627-1.958-1.245-3.918-1.886-5.872c-0.191-0.582-0.324-1.129,0.448-1.342
		c0.695-0.192,0.914,0.313,1.076,0.844c0.712,2.331,1.422,4.662,2.132,6.994C94.604,37.013,94.661,37.214,94.703,37.359z"/>
	<path fill="#FBB040" d="M133.68,61.88c-0.525,0.04-0.89-0.135-0.97-0.563c-0.09-0.483,0.238-0.775,0.68-0.916
		c1.797-0.574,3.596-1.143,5.394-1.714c0.666-0.211,1.329-0.431,1.998-0.632c0.482-0.145,0.948-0.119,1.104,0.451
		c0.153,0.556-0.22,0.843-0.696,0.996c-2.394,0.771-4.791,1.536-7.187,2.3C133.871,61.843,133.732,61.867,133.68,61.88z"/>
	<path fill="#E5007E" d="M34.923,27.805c-0.596,0-1.192,0.004-1.787-0.001c-0.529-0.004-0.894-0.242-0.907-0.797
		c-0.012-0.498,0.318-0.804,0.787-0.815c1.295-0.032,2.591-0.029,3.886-0.001c0.451,0.01,0.702,0.346,0.682,0.781
		c-0.021,0.456-0.243,0.812-0.769,0.821c-0.63,0.011-1.261,0.003-1.892,0.003C34.923,27.799,34.923,27.802,34.923,27.805z"/>
	<path fill="#21A0A0" d="M116.834,148.337c0.592,0,1.184,0,1.775,0c0.501-0.001,0.792,0.24,0.811,0.748
		c0.019,0.492-0.241,0.846-0.718,0.86c-1.32,0.039-2.643,0.035-3.963,0.002c-0.437-0.011-0.676-0.327-0.659-0.785
		c0.017-0.494,0.279-0.79,0.77-0.809c0.66-0.026,1.322-0.006,1.984-0.006C116.834,148.343,116.834,148.34,116.834,148.337z"/>
	<path fill="#21A0A0" d="M21.454,53.71c0-0.524-0.005-1.047,0.002-1.571c0.006-0.483,0.234-0.806,0.729-0.864
		c0.516-0.06,0.852,0.271,0.871,0.709c0.054,1.216,0.041,2.437-0.004,3.653c-0.016,0.435-0.397,0.688-0.81,0.659
		c-0.445-0.031-0.784-0.283-0.783-0.807c0.001-0.593,0-1.187,0-1.78C21.458,53.71,21.456,53.71,21.454,53.71z"/>
	<path fill="#21A0A0" d="M143.37,123.345c0-0.524-0.013-1.049,0.004-1.572c0.017-0.528,0.312-0.884,0.83-0.891
		c0.539-0.007,0.813,0.397,0.825,0.898c0.027,1.117,0.027,2.236-0.005,3.353c-0.014,0.477-0.318,0.767-0.82,0.764
		c-0.5-0.003-0.789-0.294-0.819-0.771c-0.037-0.592-0.009-1.187-0.009-1.781C143.374,123.345,143.372,123.345,143.37,123.345z"/>
	<path fill="#E5007E" d="M45.843,23.929c-0.486-0.026-0.974-0.022-1.453-0.087c-0.438-0.06-0.668-0.365-0.643-0.809
		c0.025-0.432,0.254-0.748,0.703-0.761c0.938-0.028,1.877-0.022,2.815-0.005c0.469,0.009,0.694,0.339,0.691,0.757
		c-0.003,0.405-0.212,0.758-0.659,0.816C46.816,23.903,46.328,23.902,45.843,23.929z"/>
	<path fill="#21A0A0" d="M127.785,145.896c-0.452,0-0.906,0.021-1.357-0.006c-0.436-0.026-0.719-0.284-0.745-0.725
		c-0.026-0.449,0.268-0.745,0.669-0.807c0.965-0.149,1.944-0.129,2.912-0.012c0.435,0.053,0.656,0.38,0.623,0.822
		c-0.029,0.388-0.247,0.671-0.643,0.704c-0.484,0.039-0.973,0.009-1.459,0.009C127.785,145.886,127.785,145.891,127.785,145.896z"/>
	<path fill="#E5007E" d="M65.369,21.469c-0.017,0.631-0.668,0.975-1.191,0.569c-0.576-0.448-1.089-0.981-1.608-1.498
		c-0.237-0.237-0.304-0.539-0.147-0.868c0.135-0.282,0.365-0.426,0.658-0.451C63.629,19.174,65.384,20.911,65.369,21.469z"/>
	<path fill="#E5007E" d="M62.332,26.236c0.029-0.537,1.757-2.279,2.224-2.259c0.592,0.026,0.873,0.378,0.795,0.962
		c-0.052,0.396-1.644,1.957-2.024,2.002C62.758,27.009,62.386,26.79,62.332,26.236z"/>
	<path fill="#E5007E" d="M144.955,24.077c-0.025,0.508-1.733,2.189-2.224,2.188c-0.636-0.001-1.077-0.654-0.692-1.142
		c0.511-0.647,1.105-1.256,1.76-1.752C144.293,22.997,144.985,23.474,144.955,24.077z"/>
	<path fill="#E5007E" d="M128.155,113.673c-0.486,0.005-2.242-1.631-2.283-2.122c-0.026-0.308,0.087-0.537,0.344-0.71
		c0.296-0.199,0.619-0.225,0.872,0.004c0.565,0.513,1.155,1.02,1.619,1.62C129.126,113.009,128.776,113.666,128.155,113.673z"/>
	<path fill="#E5007E" d="M133.708,111.458c-0.016,0.504-1.675,2.182-2.186,2.211c-0.65,0.037-1.025-0.551-0.658-1.132
		c0.428-0.676,1.006-1.251,1.678-1.684C133.129,110.475,133.728,110.819,133.708,111.458z"/>
	<path fill="#E5007E" d="M144.829,30.127c0.018,0.664-0.586,1.04-1.14,0.632c-0.613-0.451-1.146-1.015-1.686-1.557
		c-0.242-0.243-0.232-0.577-0.079-0.879c0.139-0.274,0.385-0.388,0.691-0.383C143.162,27.949,144.814,29.579,144.829,30.127z"/>
	<path fill="#E5007E" d="M67.912,23.975c0.488,0.002,2.199,1.698,2.215,2.204c0.01,0.296-0.075,0.561-0.359,0.7
		c-0.267,0.131-0.576,0.14-0.794-0.049c-0.578-0.5-1.135-1.027-1.675-1.569c-0.246-0.247-0.233-0.588-0.072-0.876
		C67.366,24.138,67.603,23.975,67.912,23.975z"/>
	<path fill="#E5007E" d="M140.192,28.634c0.011,0.596-1.75,2.342-2.279,2.28c-0.662-0.077-0.979-0.531-0.652-1.092
		c0.433-0.745,1.069-1.392,1.823-1.808C139.646,27.704,140.067,28.063,140.192,28.634z"/>
	<path fill="#E5007E" d="M67.941,22.225c-0.591-0.094-1.059-0.433-0.743-1.039c0.414-0.793,1.085-1.461,1.876-1.884
		c0.568-0.303,1.005,0.048,1.052,0.705C70.162,20.508,68.465,22.206,67.941,22.225z"/>
	<path fill="#E5007E" d="M88.456,147.778c0.548,0.026,2.112,1.76,2.079,2.304c-0.036,0.586-0.662,0.95-1.132,0.569
		c-0.616-0.5-1.182-1.089-1.656-1.725C87.385,148.44,87.86,147.75,88.456,147.778z"/>
	<path fill="#E5007E" d="M128.124,115.469c0.618,0.02,1.013,0.71,0.615,1.216c-0.471,0.598-1.036,1.141-1.632,1.618
		c-0.49,0.392-1.156-0.005-1.18-0.637C125.907,117.122,127.578,115.451,128.124,115.469z"/>
	<path fill="#E5007E" d="M140.203,25.284c-0.041,0.374-0.125,0.636-0.406,0.776c-0.313,0.157-0.622,0.119-0.876-0.111
		c-0.519-0.47-1.038-0.942-1.522-1.446c-0.334-0.348-0.336-0.771,0.001-1.124c0.31-0.324,0.709-0.347,1.035-0.039
		C139.086,23.956,139.846,24.485,140.203,25.284z"/>
	<path fill="#E5007E" d="M132.799,118.476c-0.506-0.011-2.176-1.73-2.166-2.23c0.012-0.611,0.706-1.028,1.191-0.628
		c0.607,0.5,1.162,1.098,1.611,1.743C133.773,117.845,133.346,118.488,132.799,118.476z"/>
	<path fill="#E5007E" d="M83.684,150.784c-0.29-0.04-0.534-0.146-0.653-0.44c-0.113-0.279-0.117-0.552,0.101-0.777
		c0.532-0.548,1.065-1.096,1.62-1.619c0.214-0.202,0.496-0.251,0.763-0.049c0.232,0.176,0.385,0.396,0.378,0.702
		C85.881,149.103,84.164,150.801,83.684,150.784z"/>
	<path fill="#E5007E" d="M83.775,143.043c0.549,0.015,2.141,1.714,2.116,2.258c-0.027,0.576-0.662,0.952-1.114,0.582
		c-0.613-0.501-1.19-1.073-1.671-1.701C82.718,143.676,83.146,143.026,83.775,143.043z"/>
	<path fill="#E5007E" d="M88.487,146.04c-0.299-0.03-0.553-0.162-0.666-0.439c-0.122-0.301-0.127-0.617,0.133-0.877
		c0.495-0.495,0.982-0.999,1.488-1.483c0.213-0.204,0.484-0.278,0.771-0.14c0.28,0.134,0.408,0.393,0.443,0.674
		C90.714,144.238,88.973,146.034,88.487,146.04z"/>
	<path fill="#8ECCC6" d="M127.507,63.424c-3.739-16.749-21.842-25.767-37.286-18.347c-9.201,4.42-14.43,11.904-15.02,22.234
		c-0.313,5.476,1.369,10.565,3.862,15.4c1.938,3.758,3.835,7.538,5.258,11.531c0.113,0.318,0.408,0.638,0.214,1.055
		c-2.346-1.07-4.745-1.443-7.333-0.875c0.064-0.552,0.102-0.967,0.162-1.379c0.431-2.988,0.633-5.995,0.622-9.01
		c-0.009-2.427-1.727-4.068-4.142-4.068c-14.558-0.004-29.116-0.005-43.673,0.001c-2.318,0.001-4.035,1.727-4.059,4.048
		c-0.04,3.83,0.329,7.628,0.944,11.404c1.207,7.412,3.613,14.438,6.976,21.133c3.257,6.484,5.579,13.193,5.579,20.562
		c0,1.673,1.4,2.801,3.195,2.804c6.174,0.011,12.348,0.011,18.522,0c1.998-0.004,3.27-1.268,3.299-3.283
		c0.07-4.845,0.893-9.552,2.788-14.017c1.228-2.892,2.662-5.697,4.064-8.669c2.38,2.319,5.091,3.552,8.29,3.586
		c3.217,0.035,5.974-1.157,8.436-3.423c0.048,0.448,0.1,0.713,0.102,0.979c0.029,4.173,0.055,8.346,0.07,12.519
		c0.002,0.533,0.068,1.008,0.364,1.491c4.059,6.623,8.095,13.26,12.142,19.891c0.631,1.034,1.054,1.024,1.693-0.021
		c3.977-6.509,7.939-13.027,11.944-19.518c0.448-0.726,0.605-1.43,0.608-2.255c0.019-5.364-0.138-10.73,0.232-16.089
		c0.466-6.748,1.752-13.307,4.366-19.579c1.763-4.23,4.025-8.222,5.832-12.431C127.722,74.053,128.723,68.871,127.507,63.424z
		 M67.163,119.217c-2.68,5.454-4.062,11.229-4.179,17.305c-0.03,1.536-0.537,2.06-2.11,2.062c-5.892,0.008-11.784,0.007-17.676,0
		c-1.418-0.002-2.097-0.532-2.093-1.778c0.024-7.067-2.056-13.57-5.174-19.816c-3.024-6.058-5.445-12.335-6.767-19.005
		c-0.888-4.479-1.387-8.995-1.4-13.562c-0.005-1.862,0.969-2.807,2.882-2.809c7.19-0.006,14.379-0.003,21.569-0.003
		c7.084,0,14.169-0.001,21.253,0.001c2.229,0.001,3.08,0.895,3.058,3.141c-0.06,6.089-0.872,12.067-2.537,17.932
		C72.351,108.462,69.798,113.854,67.163,119.217z M84.636,114.858c-3.907,2.139-8.792,1.425-12.026-1.724
		c-0.458-0.446-0.623-0.787-0.292-1.418c0.495-0.944,0.849-1.961,1.271-2.966c3.49,4.092,6.799,4.921,10.054,2.547
		c2.801-2.043,3.57-5.875,1.77-8.799c-1.555-2.525-5.191-4.422-9.196-2.139c0.237-1.321,0.462-2.565,0.683-3.81
		c0.095-0.536,0.581-0.458,0.914-0.529c5.308-1.125,10.685,2.368,11.851,7.676C90.64,108.141,88.589,112.693,84.636,114.858z
		 M74.703,106.017c-0.008-2.794,2.355-5.186,5.115-5.176c2.736,0.009,5.043,2.371,5.022,5.141c-0.021,2.789-2.316,5.05-5.106,5.031
		C76.98,110.993,74.711,108.741,74.703,106.017z M101.738,147.589c-0.824-1.366-1.608-2.667-2.461-4.081c1.681,0,3.253,0,4.989,0
		C103.426,144.867,102.616,146.174,101.738,147.589z M107.696,137.824c-0.719,1.161-1.463,2.306-2.151,3.484
		c-0.292,0.499-0.596,0.752-1.225,0.735c-1.823-0.051-3.648-0.017-5.472-0.019c-0.336,0-0.629,0.05-0.872-0.354
		c-2.685-4.465-5.4-8.912-8.178-13.481c1.651-0.202,3.065-0.697,3.999-2.057c2.5,2.721,5.687,2.578,7.953,0.023
		c2.521,2.651,5.43,2.642,7.875-0.056c0.973,1.324,2.334,1.947,4.05,2.062C111.633,131.462,109.665,134.643,107.696,137.824z
		 M89.857,122.897c0-0.942,0.025-1.885-0.01-2.826c-0.019-0.506,0.155-0.631,0.65-0.652c2.564-0.112,2.564-0.128,2.586,2.389
		c0.005,0.628,0.034,1.258-0.009,1.883c-0.095,1.406-1.226,2.621-2.536,2.803c-0.461,0.064-0.715,0.007-0.693-0.56
		C89.885,124.922,89.857,123.908,89.857,122.897z M100.864,123.51c-0.053,1.622-1.253,2.876-2.812,2.999
		c-1.752,0.138-3.172-0.857-3.386-2.573c-0.164-1.314-0.073-2.658-0.112-3.989c-0.013-0.441,0.224-0.522,0.589-0.518
		c0.877,0.009,1.754,0.003,2.63,0.003c0.807,0,1.615,0.035,2.419-0.012c0.579-0.034,0.706,0.195,0.69,0.724
		C100.848,121.265,100.901,122.389,100.864,123.51z M108.714,123.705c-0.2,1.845-1.573,2.916-3.412,2.811
		c-1.618-0.092-2.791-1.417-2.813-3.198c-0.013-1.052,0.034-2.106-0.016-3.155c-0.03-0.624,0.2-0.776,0.779-0.743
		c0.804,0.046,1.612,0.012,2.419,0.012c0.842,0,1.683,0.015,2.524-0.006c0.445-0.011,0.629,0.142,0.613,0.606
		C108.766,121.257,108.846,122.492,108.714,123.705z M113.516,125.839c0.043,0.696-0.281,0.743-0.814,0.629
		c-1.222-0.262-2.253-1.395-2.345-2.762c-0.084-1.253-0.022-2.516-0.055-3.774c-0.011-0.441,0.19-0.543,0.564-0.501
		c0.035,0.004,0.07,0.002,0.105,0c2.531-0.109,2.531-0.109,2.531,2.422c0,0.42,0,0.839,0,1.259
		C113.503,124.021,113.46,124.933,113.516,125.839z M124.297,78.305c-1.531,3.679-3.43,7.184-5.095,10.8
		c-2.702,5.867-4.311,12.032-5.031,18.434c-0.081,0.725-0.29,0.897-0.998,0.893c-5.225-0.032-10.45-0.021-15.675-0.013
		c-0.64,0.001-1.58-0.192-1.6,0.71c-0.02,0.906,0.912,0.755,1.557,0.756c5.155,0.006,10.31,0.024,15.465-0.017
		c0.846-0.007,1.056,0.215,0.988,1.047c-0.165,2.023-0.268,4.054-0.316,6.083c-0.016,0.692-0.203,0.876-0.891,0.87
		c-3.717-0.034-7.434-0.016-11.151-0.016c-3.647,0-7.294-0.02-10.941,0.017c-0.727,0.007-0.961-0.174-0.949-0.925
		c0.021-1.293-0.08-2.588-0.147-3.881c-0.022-0.434,0.069-0.801,0.287-1.192c2.787-5.018,1.813-10.741-2.465-14.588
		c-0.287-0.258-0.542-0.506-0.662-0.911c-1.66-5.634-4.573-10.716-7.038-15.999c-3.023-6.479-4.156-13.189-1.375-20.026
		c3.803-9.352,10.772-14.844,20.859-15.971c13.017-1.455,25.243,8.063,27.165,20.922C126.965,69.848,126.033,74.133,124.297,78.305z
		"/>
	<path fill="#FBB040" d="M39.185,35.723c-2.383-0.008-4.395,1.952-4.408,4.294c-0.013,2.357,1.977,4.362,4.34,4.371
		c2.401,0.009,4.358-1.914,4.379-4.304C43.519,37.692,41.58,35.732,39.185,35.723z M39.141,42.929
		c-1.572-0.005-2.764-1.222-2.75-2.808c0.014-1.589,1.221-2.756,2.82-2.729c1.532,0.026,2.716,1.217,2.72,2.737
		C41.935,41.661,40.667,42.934,39.141,42.929z"/>
	<path fill="#FBB040" d="M137.076,134.31c-1.882-0.023-3.479,1.542-3.528,3.455c-0.05,1.955,1.513,3.593,3.459,3.625
		c1.926,0.032,3.51-1.526,3.581-3.521C140.656,135.961,139.05,134.334,137.076,134.31z M137.094,139.779
		c-1.116,0.011-1.944-0.763-1.978-1.849c-0.036-1.145,0.786-2.002,1.928-2.009c1.139-0.008,1.945,0.796,1.983,1.977
		C139.06,138.951,138.222,139.767,137.094,139.779z"/>
	<path fill="#8ECCC6" d="M43.579,126.443c0.018-1.644-0.51-3.267-1.168-4.86c-1.576-3.814-3.766-7.326-5.425-11.104
		c-1.841-4.192-3.157-8.512-3.642-13.072c-0.041-0.383-0.063-0.769-0.074-1.153c-0.014-0.508,0.145-0.933,0.733-0.941
		c0.57-0.008,0.748,0.384,0.804,0.9c0.144,1.322,0.267,2.649,0.489,3.959c0.939,5.551,3.307,10.574,5.831,15.532
		c1.378,2.707,2.866,5.364,3.58,8.354c0.245,1.026,0.378,2.065,0.296,3.123c-0.042,0.541-0.097,1.171-0.807,1.108
		c-0.665-0.059-0.725-0.646-0.651-1.214C43.567,126.903,43.565,126.726,43.579,126.443z"/>
	<path fill="#8ECCC6" d="M71.818,91.045c-0.581,7.043-2.817,13.502-6.047,19.656c-0.231,0.441-0.56,0.805-1.072,0.527
		c-0.507-0.275-0.535-0.757-0.273-1.272c1.312-2.584,2.54-5.205,3.499-7.945c1.242-3.547,2.02-7.195,2.356-10.937
		c0.061-0.675-0.102-1.618,0.917-1.552C72.216,89.589,71.768,90.511,71.818,91.045z"/>
	<path fill="#8ECCC6" d="M102.202,112.662c2.311,0,4.623,0.002,6.934-0.001c0.622-0.001,1.293,0.002,1.276,0.848
		c-0.015,0.741-0.599,0.815-1.212,0.814c-4.693-0.01-9.386-0.006-14.079-0.004c-0.461,0-0.937,0.027-1.18-0.478
		c-0.299-0.622,0.205-1.175,1.116-1.18c2.381-0.014,4.763-0.005,7.144-0.005C102.202,112.658,102.202,112.66,102.202,112.662z"/>
	<path fill="#8ECCC6" d="M116.916,68.799c-1.179-6.651-4.66-11.994-9.568-16.489c-1.514-1.387-3.461-1.426-5.049-0.134
		c-0.361,0.293-0.575,0.518-1.015,0.067c-0.658-0.677-1.525-0.928-2.475-0.969c-1.414-0.061-2.317,0.791-3.256,1.659
		c-5.999,5.548-9.34,12.31-9.482,21.537c0.19,6.854,3.521,12.698,10.696,16.181c1.665,0.808,3.16,0.762,4.565-0.473
		c0.277-0.244,0.439-0.3,0.761-0.011c1.419,1.277,2.993,1.306,4.677,0.535c2.462-1.127,4.559-2.722,6.298-4.787
		C117.309,80.878,118.02,75.028,116.916,68.799z M100.502,62.865c0.009,0.7-0.051,1.015-0.89,0.789
		c-1.144-0.308-2.044,0.214-2.736,1.125c-0.257,0.339-0.363,0.707-0.031,1.043c0.365,0.37,0.758,0.287,1.119-0.036
		c0.182-0.163,0.343-0.352,0.532-0.505c0.491-0.398,0.995-0.17,1.495-0.011c0.524,0.167,0.502,0.588,0.5,1.023
		c-0.008,2.49-0.024,4.98,0.011,7.47c0.008,0.606-0.185,0.927-0.718,1.226c-1.917,1.075-4.75,1.397-6.625-1.002
		c-0.249-0.319-0.574-0.52-1.004-0.41c-0.381,0.097-0.434,0.435-0.478,0.743c-0.197,1.395-0.531,2.683-2.018,3.311
		c-0.328,0.139-0.464,0.509-0.27,0.903c0.186,0.377,0.495,0.474,0.875,0.405c1.021-0.186,1.651-0.864,2.113-1.73
		c0.179-0.337,0.31-0.699,0.501-1.137c1.779,1.339,3.657,1.87,7.363,0.48c0,1.113-0.005,2.177,0.003,3.241
		c0.003,0.312-0.102,0.353-0.423,0.386c-3.106,0.319-4.864,2.506-4.559,5.627c0.049,0.5,0.131,1.08,0.778,1.042
		c0.692-0.041,0.731-0.611,0.694-1.182c-0.153-2.354,0.715-3.472,2.962-3.94c0.435-0.091,0.544-0.035,0.553,0.404
		c0.041,1.959-0.046,3.917,0.063,5.879c0.061,1.098-1.582,1.988-2.744,1.559c-1.45-0.536-2.801-1.276-3.979-2.3
		c-0.185-0.161-0.413-0.304-0.401-0.581c0.071-1.601-0.137-3.231,0.476-4.778c0.225-0.568,0.584-1.025,1.07-1.397
		c0.424-0.325,0.37-0.719,0.064-1.095c-0.314-0.386-0.653-0.296-1.011-0.037c-1.502,1.082-1.973,2.65-2.088,4.389
		c-0.02,0.31-0.035,0.621-0.059,0.931c-0.002,0.025-0.049,0.047-0.147,0.135c-1.617-1.799-2.642-3.897-3.322-6.195
		c-0.616-2.084-0.624-4.216-0.588-6.358c0.008-0.472,0.2-0.762,0.557-1.049c2.043-1.647,4.559-1.64,6.871,0.056
		c0.254,0.186,0.485,0.403,0.732,0.599c0.459,0.364,0.928,0.356,1.296-0.095c0.368-0.451-0.01-0.773-0.307-1.067
		c-2.272-2.247-5.294-2.835-8.228-1.607c-0.126,0.053-0.257,0.091-0.553,0.194c0.176-1.651,0.633-3.106,1.229-4.719
		c0.768,0.929,1.547,1.676,2.609,1.995c0.516,0.155,1.166,0.484,1.459-0.246c0.304-0.756-0.27-1.041-0.9-1.232
		c-0.577-0.175-1.079-0.489-1.496-0.938c-0.942-1.014-1.014-1.58-0.324-2.777c0.678-1.176,1.365-2.347,2.317-3.467
		c0.449,1.009,0.854,1.908,1.25,2.81c0.239,0.546,0.609,0.938,1.214,0.618c0.551-0.291,0.427-0.774,0.171-1.27
		c-2.109-4.094-1.284-3.995,1.643-6.722c0.678-0.631,1.544-0.605,2.35-0.166c0.776,0.422,1.075,1.053,1.048,1.986
		C100.448,57.743,100.47,60.305,100.502,62.865z M111.532,84.784c-0.287-0.525-0.138-1.012-0.18-1.465
		c-0.142-1.515-0.581-2.885-1.839-3.861c-0.37-0.287-0.814-0.554-1.215-0.126c-0.42,0.449-0.253,0.912,0.21,1.254
		c1.554,1.146,1.488,4.269,1.013,5.91c-0.088,0.304-0.345,0.43-0.568,0.592c-1.161,0.847-2.358,1.64-3.7,2.175
		c-1.669,0.665-3.057-0.396-3.031-2.191c0.047-3.226,0.03-6.452,0.002-9.678c-0.007-0.79,0.066-1.051,0.965-0.688
		c2.006,0.811,4.036,0.872,5.921-0.402c0.523-0.353,0.653-0.196,0.855,0.328c0.39,1.009,1.058,1.789,2.131,2.18
		c0.742,0.27,1.018-0.189,1.303-0.696c0.341-0.607-0.18-0.692-0.534-0.882c-1.104-0.591-1.243-1.709-1.475-2.761
		c-0.09-0.409-0.041-0.873-0.56-1.018c-0.501-0.14-0.762,0.226-1.044,0.543c-2.132,2.396-4.46,2.005-6.825,0.701
		c-0.377-0.208-0.4-0.509-0.398-0.876c0.009-2.56,0.012-5.12-0.002-7.68c-0.003-0.451,0.036-0.825,0.509-1.034
		c0.508-0.224,1.006-0.324,1.488,0.033c0.167,0.124,0.302,0.292,0.446,0.445c0.332,0.354,0.75,0.468,1.116,0.158
		c0.381-0.322,0.297-0.77-0.005-1.129c-0.665-0.789-1.47-1.371-2.554-1.08c-0.906,0.243-1.019-0.096-1.01-0.9
		c0.032-2.664-0.006-5.329-0.031-7.993c-0.007-0.758,0.395-1.267,0.988-1.612c0.707-0.412,1.512-0.474,2.197-0.022
		c1.055,0.696,1.967,1.595,2.717,2.606c0.46,0.62,0.256,1.416,0.078,2.131c-0.195,0.786-0.556,1.508-0.952,2.211
		c-0.246,0.437-0.344,0.892,0.173,1.185c0.531,0.302,0.863,0.077,1.167-0.453c0.527-0.918,0.931-1.877,1.271-2.998
		c0.945,1.138,1.644,2.309,2.351,3.473c0.734,1.209,0.641,1.844-0.359,2.86c-0.481,0.489-1.075,0.773-1.718,0.972
		c-0.499,0.154-0.817,0.467-0.666,1.006c0.176,0.627,0.675,0.63,1.193,0.475c0.956-0.287,1.811-0.738,2.454-1.532
		c0.179-0.221,0.431-0.657,0.638-0.074c0.476,1.34,0.954,2.688,1.049,4.274c-1.843-0.949-3.665-1.159-5.556-0.579
		c-1.163,0.357-2.159,0.991-3.054,1.794c-0.395,0.355-0.848,0.787-0.382,1.333c0.479,0.562,0.997,0.261,1.472-0.121
		c0.935-0.752,1.939-1.337,3.145-1.595c0.945-0.202,1.815-0.056,2.669,0.267c1.824,0.691,2.148,1.179,2.141,3.111
		C115.52,77.583,114.411,81.431,111.532,84.784z"/>
	<path fill="#8ECCC6" d="M104.796,59.19c0.046-0.599,0.014-1.13,0.237-1.623c0.179-0.397,0.509-0.622,0.919-0.528
		c0.427,0.098,0.652,0.508,0.548,0.895c-0.648,2.418,0.549,3.767,2.603,4.67c0.457,0.201,0.75,0.566,0.471,1.091
		c-0.25,0.47-0.582,0.549-1.124,0.306C106.308,63.041,104.884,61.589,104.796,59.19z"/>
	<path fill="#8ECCC6" d="M107.892,85.354c-0.125,0.581,0.303,1.531-0.72,1.555c-1.084,0.026-0.695-0.885-0.683-1.488
		c0.04-1.94-0.742-3.024-2.648-3.612c-0.572-0.176-1.123-0.397-0.891-1.136c0.215-0.686,0.794-0.555,1.316-0.426
		C106.547,80.812,107.889,82.706,107.892,85.354z"/>
	<path fill="#8ECCC6" d="M97.13,59.071c-0.028-0.171-0.039-0.531-0.152-0.855c-0.209-0.6,0.006-0.979,0.571-1.112
		c0.634-0.148,0.844,0.311,0.969,0.827c0.51,2.112-0.192,4.08-1.959,5.349c-0.477,0.343-1.022,0.596-1.547,0.867
		c-0.429,0.222-0.852,0.162-1.089-0.273c-0.254-0.466-0.108-0.872,0.373-1.139c0.516-0.286,1.062-0.535,1.534-0.882
		C96.693,61.217,97.128,60.328,97.13,59.071z"/>
</g>
</svg>
