<?xml version="1.0" encoding="utf-8"?>
<!-- Generator: Adobe Illustrator 17.0.0, SVG Export Plug-In . SVG Version: 6.00 Build 0)  -->
<!DOCTYPE svg PUBLIC "-//W3C//DTD SVG 1.1//EN" "http://www.w3.org/Graphics/SVG/1.1/DTD/svg11.dtd">
<svg version="1.1" id="Layer_1" xmlns="http://www.w3.org/2000/svg" xmlns:xlink="http://www.w3.org/1999/xlink" x="0px" y="0px"
	 width="170px" height="170px" viewBox="0 0 170 170" enable-background="new 0 0 170 170" xml:space="preserve">
<g>
	<path fill="#21A0A0" d="M85.718,28.304c-2.197,0-4.394-0.007-6.592,0.004c-0.604,0.003-1.202-0.058-1.213-0.802
		c-0.011-0.734,0.577-0.852,1.183-0.852c4.394,0.002,8.789,0.002,13.183,0.003c0.591,0,1.186,0.05,1.144,0.852
		c-0.04,0.771-0.627,0.799-1.219,0.797C90.042,28.3,87.88,28.304,85.718,28.304z"/>
	<path fill="#21A0A0" d="M148.843,49.748c0-1.989,0.008-3.978-0.005-5.967c-0.004-0.607,0.069-1.207,0.803-1.213
		c0.723-0.006,0.848,0.583,0.847,1.194c-0.003,4.048-0.003,8.095,0.001,12.143c0.001,0.621-0.15,1.18-0.878,1.157
		c-0.666-0.021-0.777-0.557-0.774-1.139C148.851,53.865,148.843,51.807,148.843,49.748z"/>
	<path fill="#21A0A0" d="M84.504,132.653c-2.199,0-4.398,0-6.597,0c-0.545,0-1.108-0.006-1.121-0.758
		c-0.013-0.779,0.545-0.877,1.147-0.878c4.398-0.002,8.797-0.002,13.195-0.001c0.6,0,1.186,0.103,1.185,0.854
		c-0.002,0.794-0.632,0.784-1.21,0.784C88.903,132.652,86.704,132.653,84.504,132.653z"/>
	<path fill="#21A0A0" d="M95.79,137.518c-1.462,0-2.923,0.004-4.385-0.002c-0.575-0.002-1.188-0.022-1.204-0.809
		c-0.016-0.79,0.573-0.833,1.165-0.832c2.958,0.001,5.916,0.012,8.874-0.008c0.637-0.004,1.195,0.167,1.228,0.821
		c0.036,0.725-0.585,0.834-1.188,0.832C98.783,137.515,97.287,137.518,95.79,137.518z"/>
	<path fill="#21A0A0" d="M96.858,33.155c-1.5,0-3,0-4.5,0c-0.525,0-1.023-0.083-1.05-0.736c-0.028-0.682,0.439-0.89,1.031-0.891
		c3.07-0.004,6.14-0.003,9.209-0.001c0.578,0,1.08,0.158,1.055,0.856c-0.023,0.633-0.503,0.769-1.036,0.77
		C99.998,33.157,98.428,33.155,96.858,33.155z"/>
	<path fill="#21A0A0" d="M98.401,132.779c-0.732,0-1.464,0.003-2.196-0.001c-0.536-0.003-0.892-0.272-0.879-0.811
		c0.012-0.51,0.332-0.84,0.873-0.844c1.464-0.011,2.928-0.008,4.393-0.002c0.539,0.002,0.884,0.311,0.888,0.822
		c0.005,0.517-0.358,0.819-0.883,0.832C99.866,132.794,99.133,132.78,98.401,132.779z"/>
	<path fill="#21A0A0" d="M99.542,28.304c-0.729-0.001-1.458,0.001-2.188-0.002c-0.561-0.002-0.986-0.257-0.986-0.833
		c0.001-0.597,0.47-0.805,1.01-0.808c1.389-0.008,2.778-0.009,4.167,0.002c0.555,0.005,0.986,0.271,0.971,0.854
		c-0.014,0.57-0.405,0.823-0.996,0.795C100.862,28.281,100.201,28.305,99.542,28.304z"/>
	<path fill="#21A0A0" d="M150.485,62.576c0.001,0.627,0.015,1.254-0.003,1.88c-0.015,0.55-0.244,0.972-0.863,0.952
		c-0.553-0.017-0.777-0.39-0.776-0.916c0.001-1.288-0.003-2.576,0.005-3.865c0.003-0.561,0.233-0.952,0.856-0.947
		c0.591,0.005,0.763,0.414,0.776,0.911C150.497,61.252,150.484,61.914,150.485,62.576z"/>
	<path fill="#21A0A0" d="M85.193,135.889c0.519,0,1.039-0.023,1.556,0.007c0.483,0.028,0.766,0.346,0.791,0.806
		c0.027,0.503-0.314,0.777-0.78,0.79c-1.037,0.029-2.076,0.029-3.112-0.002c-0.466-0.014-0.785-0.283-0.776-0.794
		c0.01-0.555,0.343-0.802,0.868-0.815c0.484-0.011,0.969-0.002,1.453-0.002C85.193,135.882,85.193,135.886,85.193,135.889z"/>
	<path fill="#21A0A0" d="M86.207,33.142c-0.523,0-1.047,0.012-1.57-0.004c-0.447-0.013-0.723-0.243-0.736-0.709
		c-0.014-0.48,0.186-0.848,0.699-0.864c1.08-0.034,2.162-0.03,3.243-0.018c0.437,0.005,0.728,0.233,0.741,0.705
		c0.013,0.483-0.2,0.83-0.704,0.865c-0.555,0.038-1.115,0.009-1.673,0.009C86.207,33.131,86.207,33.136,86.207,33.142z"/>
	<path fill="#E5007E" d="M141.959,26.121c-0.097,0.154-0.196,0.384-0.357,0.553c-0.527,0.552-1.059,1.101-1.623,1.615
		c-0.347,0.316-0.778,0.327-1.129,0.001c-0.368-0.343-0.33-0.756,0.003-1.105c0.574-0.603,1.162-1.195,1.768-1.766
		c0.277-0.262,0.627-0.288,0.959-0.07C141.827,25.511,141.943,25.756,141.959,26.121z"/>
	<path fill="#E5007E" d="M133.623,25.223c0.31,0.037,0.55,0.162,0.75,0.367c0.53,0.544,1.085,1.066,1.582,1.638
		c0.306,0.353,0.299,0.797-0.075,1.111c-0.331,0.277-0.713,0.218-1.032-0.078c-0.582-0.54-1.172-1.074-1.73-1.638
		c-0.244-0.246-0.404-0.551-0.216-0.936C133.06,25.361,133.321,25.253,133.623,25.223z"/>
	<path fill="#E5007E" d="M25.913,75.343c-0.537-0.013-0.938-0.673-0.606-1.144c0.556-0.79,1.253-1.483,2.037-2.044
		c0.527-0.377,1.15,0.032,1.141,0.666C28.477,73.347,26.428,75.356,25.913,75.343z"/>
	<path fill="#E5007E" d="M135.42,30.983c0.65-0.004,1.084,0.674,0.72,1.166c-0.577,0.779-1.276,1.464-2.056,2.048
		c-0.34,0.255-0.686,0.054-0.948-0.169c-0.267-0.228-0.294-0.614-0.101-0.861c0.619-0.792,1.323-1.511,2.131-2.117
		C135.242,30.993,135.363,30.997,135.42,30.983z"/>
	<path fill="#E5007E" d="M74.921,148.964c0.008,0.306-0.135,0.551-0.379,0.7c-0.291,0.177-0.605,0.154-0.86-0.098
		c-0.595-0.585-1.195-1.166-1.768-1.773c-0.261-0.277-0.287-0.63-0.084-0.965c0.156-0.258,0.418-0.374,0.706-0.367
		C72.974,146.473,74.898,148.513,74.921,148.964z"/>
	<path fill="#E5007E" d="M119.207,106.273c-0.035-0.566,0.567-1.056,1.058-0.758c0.896,0.544,1.626,1.328,2.108,2.249
		c0.266,0.507-0.09,0.941-0.718,0.949C121.241,108.72,119.232,106.686,119.207,106.273z"/>
	<path fill="#E5007E" d="M20.334,81.01c-0.685-0.017-1.055-0.74-0.654-1.23c0.527-0.643,1.123-1.24,1.755-1.78
		c0.313-0.267,0.804-0.325,1.141,0.034c0.364,0.389,0.167,0.781-0.147,1.105c-0.508,0.525-1.023,1.045-1.556,1.544
		C20.704,80.842,20.469,80.931,20.334,81.01z"/>
	<path fill="#E5007E" d="M27.7,81.014c-0.108-0.055-0.288-0.102-0.41-0.214c-0.64-0.589-1.284-1.177-1.888-1.801
		c-0.299-0.309-0.303-0.715,0.004-1.038c0.338-0.356,0.748-0.382,1.11-0.037c0.604,0.577,1.191,1.172,1.769,1.776
		c0.272,0.284,0.271,0.637,0.086,0.965C28.246,80.888,28.019,80.994,27.7,81.014z"/>
	<path fill="#E5007E" d="M139.488,30.894c0.127,0.059,0.351,0.106,0.491,0.241c0.603,0.579,1.198,1.169,1.762,1.786
		c0.297,0.326,0.271,0.723-0.045,1.034c-0.32,0.315-0.701,0.3-1.028,0.005c-0.62-0.56-1.228-1.134-1.824-1.719
		c-0.28-0.275-0.298-0.63-0.125-0.968C138.855,31.005,139.117,30.902,139.488,30.894z"/>
	<path fill="#E5007E" d="M116.85,102.12c0.013,0.31-0.145,0.533-0.385,0.695c-0.288,0.195-0.618,0.212-0.867-0.027
		c-0.651-0.624-1.318-1.241-1.888-1.935c-0.4-0.486-0.007-1.161,0.61-1.173C114.82,99.67,116.835,101.612,116.85,102.12z"/>
	<path fill="#E5007E" d="M69.249,143.257c-0.023,0.617-0.709,0.97-1.214,0.548c-0.662-0.553-1.247-1.203-1.835-1.839
		c-0.223-0.24-0.254-0.56-0.065-0.87c0.16-0.262,0.385-0.384,0.689-0.376C67.322,140.732,69.268,142.765,69.249,143.257z"/>
	<path fill="#E5007E" d="M69.274,147.292c-0.089,0.165-0.164,0.41-0.321,0.578c-0.523,0.558-1.071,1.094-1.62,1.626
		c-0.347,0.336-0.735,0.404-1.102,0.036c-0.326-0.327-0.295-0.723-0.012-1.031c0.588-0.639,1.209-1.25,1.844-1.843
		c0.196-0.183,0.469-0.3,0.765-0.114C69.085,146.706,69.199,146.944,69.274,147.292z"/>
	<path fill="#E5007E" d="M22.748,74.604c-0.039,0.258-0.157,0.481-0.427,0.638c-0.294,0.171-0.554,0.113-0.765-0.088
		c-0.63-0.601-1.252-1.213-1.848-1.847c-0.225-0.239-0.266-0.555-0.086-0.872c0.152-0.269,0.37-0.4,0.677-0.398
		C20.801,72.039,22.754,74.057,22.748,74.604z"/>
	<path fill="#E5007E" d="M116.773,106.185c0.003,0.258-0.105,0.472-0.281,0.649c-0.538,0.543-1.077,1.083-1.621,1.62
		c-0.347,0.342-0.732,0.407-1.096,0.05c-0.321-0.315-0.325-0.714-0.033-1.03c0.588-0.637,1.184-1.276,1.844-1.835
		C116.097,105.207,116.74,105.539,116.773,106.185z"/>
	<path fill="#E5007E" d="M120.079,102.952c-0.259-0.007-0.484-0.107-0.619-0.324c-0.179-0.287-0.206-0.624,0.027-0.872
		c0.618-0.658,1.261-1.294,1.913-1.918c0.252-0.241,0.578-0.217,0.873-0.058c0.248,0.134,0.27,0.385,0.261,0.637
		C122.516,100.934,120.576,102.938,120.079,102.952z"/>
	<path fill="#E5007E" d="M75.003,141.449c-0.005,0.252-0.082,0.47-0.267,0.653c-0.542,0.536-1.069,1.086-1.619,1.614
		c-0.342,0.328-0.749,0.394-1.103,0.043c-0.357-0.354-0.294-0.768,0.031-1.111c0.547-0.579,1.121-1.132,1.685-1.696
		c0.246-0.246,0.541-0.315,0.856-0.173C74.862,140.903,74.982,141.151,75.003,141.449z"/>
	<path fill="#8ECCC6" d="M74.245,39.031c-3.319-11.015-13.815-18.812-26.187-18.809c-1.064-0.016-2.956,0.238-4.831,0.689
		c-8.059,1.94-14.041,6.565-17.881,13.902c-2.288,4.372-3.08,9.073-2.717,13.974c0.51,6.873,3.316,12.685,8.309,17.392
		c3.569,3.364,7.784,5.587,12.644,6.491c0.595,0.111,0.958,0.315,1.073,1.027c0.273,1.705,0.157,3.409,0.161,5.115
		c0.001,0.424-0.044,0.889,0.388,1.117c0.446,0.236,0.904,0.064,1.27-0.229c0.461-0.368,0.921-0.751,1.31-1.192
		c1.338-1.515,2.648-3.054,3.963-4.59c0.444-0.518,0.946-0.923,1.653-1.007c3.824-0.459,7.254-1.999,10.377-4.133
		C73.464,62.16,77.618,50.226,74.245,39.031z M68.817,61.388c-3.588,4.817-8.307,8.297-14.365,9.377
		c-2.528,0.451-4.091,1.874-5.506,3.751c-0.731,0.97-1.526,1.891-2.35,2.906c-0.401-0.447-0.256-0.845-0.271-1.219
		c-0.027-0.663,0.009-1.336-0.097-1.986c-0.485-2.949-0.813-2.798-2.935-3.345c-9.319-2.405-15.639-8.181-18.264-17.454
		c-2.824-9.972,0.476-20.085,8.702-26.338c7.48-5.686,15.794-6.89,24.47-3.403c7.616,3.061,12.622,8.764,14.708,16.806
		C74.879,48.085,73.466,55.146,68.817,61.388z"/>
	<path fill="#8ECCC6" d="M146.68,112.535c-2.233-0.087-3.439-1.018-3.508-3.394c-0.03-1.043-0.814-1.207-1.598-0.445
		c-1.226,1.192-2.418,2.421-3.634,3.624c-2.103,2.082-2.128,2.083-1.526,4.913c0.117,0.549,0.054,0.908-0.352,1.29
		c-0.864,0.813-1.719,1.64-2.515,2.519c-0.461,0.509-0.748,0.484-1.265,0.048c-2.579-2.173-5.593-3.201-7.782-3.228
		c-9.794-0.034-16.512,8.004-14.95,16.481c1.227,6.662,6.895,11.485,13.748,11.7c6.498,0.203,12.297-4.385,13.823-10.981
		c0.637-2.754,0.428-5.47-0.576-8.121c-0.2-0.529-0.51-0.869-1.097-0.629c-0.501,0.205-0.624,0.611-0.392,1.116
		c0.087,0.189,0.145,0.391,0.21,0.59c2.917,8.868-4.335,17.668-13.597,16.501c-5.449-0.687-9.951-5.184-10.759-10.749
		c-0.778-5.353,2.301-11.034,7.304-13.116c4.484-1.865,8.787-1.414,12.744,1.536c0.585,0.436,0.754,0.78,0.094,1.353
		c-0.894,0.776-1.709,1.647-2.522,2.51c-0.414,0.439-0.675,0.551-1.276,0.146c-3.112-2.099-7.561-1.278-9.588,1.693
		c-2.323,3.404-1.707,7.795,1.415,10.091c2.417,1.778,6.212,1.687,8.7-0.254c1.812-1.413,2.697-3.326,2.826-5.601
		c0.032-0.561-0.095-1.126-0.754-1.177c-0.7-0.054-0.812,0.509-0.831,1.073c-0.014,0.418,0.007,0.845-0.069,1.253
		c-0.416,2.202-2.466,4.019-4.832,4.315c-2.217,0.277-4.561-0.984-5.544-2.983c-1.104-2.245-0.629-4.798,1.231-6.614
		c1.665-1.626,4.101-1.981,6.184-0.9c1.063,0.551,1.063,0.551,0.223,1.393c-1.06,1.063-2.126,2.12-3.177,3.192
		c-0.366,0.374-0.447,0.838-0.035,1.201c0.363,0.319,0.779,0.202,1.117-0.141c0.245-0.248,0.494-0.492,0.739-0.74
		c3.735-3.769,7.53-7.48,11.169-11.339c1.208-1.281,2.343-1.773,3.99-1.162c0.502,0.186,1.119,0.335,1.587-0.127
		c1.861-1.84,3.725-3.679,5.543-5.563C147.684,113.252,147.445,112.565,146.68,112.535z M140.997,117.866
		c-0.751,0.633-1.71-0.133-2.58-0.201c-0.49-0.038-0.329-0.605-0.47-0.935c-0.568-1.331-0.085-2.258,0.947-3.153
		c1.013-0.878,1.876-1.93,2.983-2.909c0.034,2.128,0.977,3.214,3.39,3.019C143.675,115.269,142.42,116.667,140.997,117.866z"/>
	<path fill="#8ECCC6" d="M51.789,108.059c-0.848-0.311-1.222-0.056-1.394,0.789c-0.212,1.04-0.688,1.95-1.428,2.742
		c-1.608,1.719-3.661,2.396-5.915,2.494c-3.453,0.149-7.348-1.638-8.05-5.402c-0.151-0.811-0.681-0.826-1.348-0.607
		c-5.926,1.949-10.351,8.29-10.122,14.57c0.172,4.708,0.379,9.414,0.575,14.121c0.062,1.477,0.177,1.586,1.67,1.586
		c5.585,0.002,11.17,0.001,16.755,0.001c5.69,0,11.38-0.011,17.069,0.011c0.903,0.003,1.498-0.215,1.541-1.235
		c0.204-4.845,0.813-9.67,0.826-14.523C61.984,116.056,57.911,110.308,51.789,108.059z M60.241,125.827
		c-0.205,3.343-0.459,6.683-0.641,10.027c-0.039,0.721-0.262,0.913-0.98,0.909c-5.34-0.032-10.68-0.017-16.02-0.017
		c-5.305,0-10.611-0.018-15.915,0.02c-0.772,0.006-1.015-0.2-1.056-0.967c-0.228-4.284-0.629-8.563-0.736-12.849
		c-0.142-5.689,2.528-9.841,7.435-12.629c0.807-0.458,1.174-0.477,1.65,0.537c1.578,3.361,4.584,4.726,8.065,4.868
		c4.208,0.172,7.648-1.362,9.547-5.41c0.336-0.717,0.751-0.312,1.098-0.133c2.847,1.467,4.973,3.621,6.386,6.527
		C60.497,119.638,60.432,122.717,60.241,125.827z"/>
	<path fill="#8ECCC6" d="M147.441,76.414c-0.155-5.972-4.5-11.833-10.141-13.713c-0.694-0.231-1.122-0.149-1.28,0.672
		c-0.251,1.304-0.877,2.408-1.898,3.288c-2.2,1.897-4.792,2.408-7.542,1.908c-3.009-0.547-5.312-2.051-5.99-5.319
		c-0.157-0.757-0.69-0.723-1.304-0.522c-6.113,1.995-10.542,8.604-10.17,15.049c0.265,4.597,0.414,9.202,0.602,13.804
		c0.053,1.311,0.143,1.43,1.456,1.431c5.619,0.003,11.239,0.001,16.858,0.001c5.689,0,11.378-0.015,17.067,0.014
		c0.998,0.005,1.487-0.317,1.515-1.362c0.035-1.289,0.183-2.575,0.247-3.864C147.05,84.005,147.54,80.224,147.441,76.414z
		 M145.7,82.089c-0.088,2.682-0.364,5.357-0.48,8.039c-0.04,0.914-0.285,1.23-1.263,1.221c-5.302-0.053-10.605-0.025-15.908-0.025
		c-5.128,0-10.257,0-15.385,0c-1.44,0-1.44,0-1.527-1.392c-0.261-4.176-0.525-8.353-0.781-12.529
		c-0.313-5.101,3.307-10.839,8.053-12.771c0.302-0.123,0.592-0.394,0.779,0.201c1.063,3.386,5.453,5.945,9.897,5.423
		c3.526-0.414,6.395-1.896,7.943-5.295c0.24-0.527,0.467-0.542,0.945-0.304c4.365,2.17,6.936,5.653,7.808,10.444
		C146.208,77.443,145.776,79.763,145.7,82.089z"/>
	<path fill="#8ECCC6" d="M104.665,98.744c-0.656-6.442-4.124-10.854-10.088-13.334c-0.805-0.335-1.222-0.149-1.388,0.758
		c-0.24,1.308-0.926,2.381-1.953,3.245c-2.221,1.871-4.814,2.325-7.559,1.805c-2.974-0.564-5.206-2.077-5.881-5.292
		c-0.191-0.907-0.867-0.701-1.498-0.458c-6.256,2.402-10.139,8.162-9.936,14.874c0.138,4.567,0.381,9.13,0.566,13.695
		c0.063,1.552,0.125,1.633,1.706,1.634c5.582,0.003,11.164,0.001,16.746,0.001c5.652,0,11.303,0.004,16.955-0.003
		c1.359-0.001,1.477-0.132,1.566-1.483c0.085-1.287,0.207-2.573,0.268-3.861C104.353,106.464,105.059,102.61,104.665,98.744z
		 M102.85,105.675c-0.101,2.475-0.322,4.944-0.426,7.419c-0.033,0.797-0.253,1.051-1.096,1.044
		c-5.305-0.044-10.61-0.022-15.916-0.022c-5.305,0-10.611-0.025-15.915,0.025c-0.874,0.008-1.041-0.307-1.083-1.061
		c-0.23-4.075-0.503-8.148-0.754-12.222c-0.354-5.731,2.716-11.015,7.736-13.384c0.643-0.304,0.922-0.352,1.277,0.449
		c1.408,3.183,4.112,4.662,7.411,5.026c3.507,0.387,6.636-0.549,9.057-3.284c0.464-0.524,0.881-1.096,1.096-1.765
		c0.227-0.707,0.575-0.801,1.217-0.464c4.204,2.206,6.73,5.624,7.539,10.309C103.451,100.396,102.958,103.033,102.85,105.675z"/>
	<path fill="#8ECCC6" d="M96.389,71.805c-0.012-0.732-0.281-1.988-0.712-3.211c-1.895-5.373-7.291-8.435-12.686-7.2
		c-4.542,1.04-7.954,5.099-8.569,10.196c-0.622,5.154,2.371,10.364,6.924,12.217C88.908,86.888,96.776,80.752,96.389,71.805z
		 M90.009,81.819c-3.877,2.412-9.066,1.387-11.858-2.384c-2.632-3.555-3.011-7.468-1.059-11.424
		c1.751-3.549,4.731-5.501,8.749-5.303c4.159,0.206,6.845,2.606,8.357,6.385c0.495,1.237,0.703,2.548,0.69,3.895
		C94.746,76.749,93.252,79.802,90.009,81.819z"/>
	<path fill="#8ECCC6" d="M53.383,93.028c-1.561-7.965-10.265-11.86-16.731-7.343c-4.163,2.907-5.631,7.108-4.853,12.1
		c0.985,6.32,7.131,10.643,13.139,9.252c5.053-1.17,8.687-5.937,8.695-11.408C53.614,94.755,53.551,93.889,53.383,93.028z
		 M47.086,104.531c-5.41,3.109-12.123,0.008-13.615-6.28c-0.203-0.855-0.27-1.72-0.334-2.59
		c-0.218-6.028,4.753-10.816,10.619-10.227c3.762,0.378,6.949,3.375,8.006,7.528C52.909,97.464,50.95,102.311,47.086,104.531z"/>
	<path fill="#8ECCC6" d="M138.616,46.681c-2.227-7.832-11.449-10.845-17.414-5.692c-4.331,3.741-5.4,10.091-2.565,15.241
		c2.691,4.888,8.261,6.925,13.445,4.916c4.115-1.594,7.006-6.057,7.024-10.848C139.125,49.068,138.952,47.863,138.616,46.681z
		 M130.018,60.194c-0.656,0.159-1.315,0.142-1.977,0.15c-4.704-0.001-8.707-3.681-9.307-8.521c-0.388-3.13,0.267-5.967,2.318-8.406
		c4.12-4.897,11.162-4.495,14.724,0.823C139.804,50.255,136.806,58.554,130.018,60.194z"/>
	<path fill="#FBB040" d="M32.766,141.418c-2.04-0.026-3.806,1.694-3.865,3.763c-0.059,2.068,1.749,3.893,3.845,3.883
		c2.053-0.01,3.817-1.77,3.821-3.811C36.572,143.218,34.813,141.444,32.766,141.418z M32.746,147.422
		c-1.214,0.007-2.238-1.026-2.244-2.263c-0.006-1.27,0.955-2.262,2.208-2.276c1.226-0.014,2.245,0.997,2.259,2.241
		C34.983,146.349,33.952,147.415,32.746,147.422z"/>
	<path fill="#FBB040" d="M101.832,46.693c-2.121-0.019-3.861,1.72-3.838,3.837c0.023,2.086,1.709,3.738,3.818,3.74
		c2.112,0.002,3.811-1.676,3.792-3.744C105.584,48.466,103.857,46.711,101.832,46.693z M101.835,52.758
		c-1.203,0.03-2.255-1.008-2.27-2.24c-0.016-1.222,1.007-2.288,2.213-2.309c1.201-0.02,2.274,1.029,2.288,2.239
		C104.08,51.637,103.026,52.729,101.835,52.758z"/>
	<path fill="#FBB040" d="M32.973,46.69c-0.837,0-1.673,0.008-2.51-0.003c-0.569-0.007-0.952-0.27-0.931-0.878
		c0.021-0.613,0.493-0.688,0.972-0.689c1.673-0.005,3.347-0.008,5.02,0.003c0.52,0.004,1.031,0.125,0.992,0.79
		c-0.035,0.605-0.48,0.788-1.033,0.783c-0.837-0.007-1.673-0.002-2.51-0.002C32.973,46.693,32.973,46.691,32.973,46.69z"/>
	<path fill="#FBB040" d="M48.107,29.836c0.001-0.833,0.007-1.666-0.002-2.498c-0.005-0.517,0.183-0.909,0.729-0.953
		c0.603-0.049,0.905,0.35,0.913,0.898c0.024,1.735,0.022,3.47-0.005,5.204c-0.008,0.499-0.279,0.877-0.844,0.85
		c-0.544-0.025-0.791-0.367-0.791-0.898C48.105,31.571,48.106,30.704,48.107,29.836z"/>
	<path fill="#FBB040" d="M32.947,35.835c0.169,0.076,0.366,0.148,0.545,0.249c1.415,0.8,2.822,1.616,4.242,2.405
		c0.477,0.265,0.842,0.593,0.542,1.146c-0.313,0.576-0.811,0.513-1.331,0.215c-1.441-0.825-2.895-1.626-4.335-2.452
		c-0.327-0.188-0.688-0.413-0.517-0.891C32.228,36.13,32.47,35.844,32.947,35.835z"/>
	<path fill="#FBB040" d="M38.373,52.392c0,0.357-0.214,0.575-0.494,0.739c-1.496,0.878-2.998,1.746-4.49,2.629
		c-0.507,0.3-0.954,0.248-1.264-0.238c-0.33-0.518,0.028-0.848,0.442-1.094c1.491-0.886,2.977-1.783,4.491-2.63
		C37.722,51.426,38.364,51.758,38.373,52.392z"/>
	<path fill="#FBB040" d="M65.918,36.629c-0.027,0.398-0.299,0.611-0.608,0.785c-1.446,0.817-2.895,1.628-4.342,2.444
		c-0.424,0.239-0.843,0.375-1.169-0.132c-0.356-0.553-0.063-0.917,0.409-1.185c1.504-0.856,3.004-1.718,4.525-2.541
		C65.322,35.683,65.936,36.045,65.918,36.629z"/>
	<path fill="#FBB040" d="M65.832,55.334c-0.104,0.578-0.572,0.796-1.056,0.53c-1.67-0.915-3.302-1.901-4.932-2.885
		c-0.41-0.247-0.334-0.671-0.133-1.019c0.205-0.354,0.579-0.422,0.911-0.231c1.623,0.93,3.233,1.884,4.844,2.834
		C65.727,54.717,65.827,54.974,65.832,55.334z"/>
	<path fill="#FBB040" d="M59.23,29.773c-0.091,0.186-0.195,0.44-0.332,0.675c-0.799,1.377-1.615,2.743-2.403,4.126
		c-0.268,0.471-0.586,0.844-1.144,0.545c-0.595-0.319-0.494-0.804-0.185-1.318c0.873-1.453,1.719-2.922,2.584-4.38
		c0.206-0.347,0.475-0.61,0.933-0.422C58.992,29.127,59.199,29.338,59.23,29.773z"/>
	<path fill="#FBB040" d="M43.01,34.424c-0.034,0.33-0.155,0.613-0.487,0.734c-0.329,0.121-0.655,0.049-0.834-0.247
		c-0.985-1.635-1.959-3.278-2.913-4.932c-0.209-0.362,0.005-0.667,0.308-0.895c0.341-0.257,0.723-0.213,0.92,0.112
		c1.006,1.661,1.971,3.347,2.948,5.026C42.987,34.281,42.991,34.356,43.01,34.424z"/>
	<path fill="#FBB040" d="M64.762,46.688c-0.835,0.001-1.67,0.003-2.505,0.001c-0.515-0.001-0.902-0.199-0.93-0.759
		c-0.03-0.594,0.397-0.781,0.888-0.786c1.739-0.018,3.479-0.018,5.218-0.005c0.465,0.003,0.818,0.221,0.83,0.742
		c0.013,0.592-0.406,0.781-0.892,0.797C66.502,46.707,65.632,46.686,64.762,46.688z"/>
	<path fill="#8ECCC6" d="M60.159,45.24c-0.307-4.857-2.826-8.217-7.303-10.022c-4.151-1.673-8.838-0.54-11.98,2.791
		c-3.382,3.585-3.93,8.907-1.717,12.688c2.432,4.154,4.064,8.524,4.625,13.298c0.168,1.432,1.093,2.318,2.554,2.38
		c0.906,0.038,1.814,0.007,2.721,0.008s1.815,0.026,2.721-0.005c1.477-0.052,2.472-0.992,2.643-2.449
		c0.506-4.303,1.78-8.351,3.92-12.134C59.487,49.773,60.308,47.599,60.159,45.24z M52.733,64.077
		c-0.089,0.569-0.47,0.837-1.028,0.839c-1.849,0.006-3.699,0-5.549,0.003c-0.56,0.001-0.846-0.312-0.889-0.827
		c-0.118-1.389-0.4-2.749-0.721-4.153c0.246-0.018,0.446-0.045,0.646-0.045c2.719-0.003,5.437-0.002,8.163-0.002
		C53.142,61.331,52.947,62.705,52.733,64.077z M58.566,46.135c-0.105,1.58-0.536,3.085-1.332,4.461
		c-1.276,2.207-2.352,4.502-3.087,6.944c-0.183,0.609-0.466,0.819-1.101,0.796c-1.359-0.049-2.722-0.015-4.083-0.015
		c-1.361,0-2.725-0.054-4.082,0.021c-0.747,0.041-0.951-0.339-1.118-0.917c-0.709-2.456-1.845-4.712-3.111-6.927
		c-1.872-3.274-1.87-6.631,0.206-9.787c2.142-3.256,5.261-4.867,9.194-4.391C55.153,36.938,58.887,41.317,58.566,46.135z"/>
	<path fill="#8ECCC6" d="M48.617,38.319c0.621-0.013,1.004,0.166,1.006,0.752c0.002,0.593-0.353,0.873-0.921,0.914
		c-1.628,0.12-3.023,0.732-4.145,1.938c-0.858,0.922-1.303,2.039-1.546,3.25c-0.108,0.539-0.251,1.108-0.956,0.916
		c-0.644-0.176-0.586-0.704-0.473-1.279C42.31,41.097,45.375,38.289,48.617,38.319z"/>
</g>
</svg>
