<?xml version="1.0" encoding="utf-8"?>
<!-- Generator: Adobe Illustrator 17.0.0, SVG Export Plug-In . SVG Version: 6.00 Build 0)  -->
<!DOCTYPE svg PUBLIC "-//W3C//DTD SVG 1.1//EN" "http://www.w3.org/Graphics/SVG/1.1/DTD/svg11.dtd">
<svg version="1.1" id="Layer_1" xmlns="http://www.w3.org/2000/svg" xmlns:xlink="http://www.w3.org/1999/xlink" x="0px" y="0px"
	 width="170px" height="170px" viewBox="0 0 170 170" enable-background="new 0 0 170 170" xml:space="preserve">
<g>
	<path fill="#21A0A0" d="M133.122,27.226c-2.277,0-4.555,0.001-6.832-0.001c-0.615-0.001-1.251-0.03-1.229-0.877
		c0.021-0.812,0.618-0.868,1.253-0.867c4.628,0.006,9.257,0.006,13.885,0c0.592-0.001,1.182,0.043,1.187,0.796
		c0.006,0.757-0.555,0.95-1.212,0.949C137.824,27.225,135.473,27.226,133.122,27.226z"/>
	<path fill="#21A0A0" d="M33.77,136.208c-2.271,0-4.541-0.001-6.812,0.001c-0.615,0.001-1.258-0.022-1.262-0.844
		c-0.004-0.805,0.623-0.887,1.245-0.887c4.615-0.002,9.229,0.002,13.844-0.005c0.669-0.001,1.222,0.196,1.214,0.939
		c-0.009,0.731-0.609,0.799-1.197,0.798C38.458,136.206,36.114,136.208,33.77,136.208z"/>
	<path fill="#21A0A0" d="M145.758,96.374c0,1.872-0.004,3.745,0.002,5.617c0.002,0.638-0.091,1.261-0.885,1.24
		c-0.762-0.021-0.864-0.614-0.862-1.267c0.014-3.818,0.01-7.637,0.004-11.455c-0.001-0.626,0.025-1.271,0.85-1.24
		c0.751,0.028,0.896,0.619,0.893,1.267C145.753,92.483,145.758,94.428,145.758,96.374z"/>
	<path fill="#21A0A0" d="M20.571,67.502c0-1.909,0.001-3.817,0-5.726c0-0.626,0.061-1.246,0.885-1.227
		c0.741,0.017,0.839,0.594,0.839,1.181c0.003,3.854,0.005,7.708-0.002,11.562c-0.001,0.579-0.085,1.165-0.844,1.169
		c-0.823,0.005-0.881-0.605-0.88-1.233C20.573,71.319,20.571,69.41,20.571,67.502z"/>
	<path fill="#21A0A0" d="M22.081,131.112c-1.614,0-3.228-0.009-4.841,0.005c-0.585,0.005-1.063-0.167-1.097-0.801
		c-0.037-0.699,0.471-0.953,1.086-0.954c3.227-0.006,6.455,0.003,9.682,0.01c0.626,0.001,1.129,0.245,1.101,0.934
		c-0.026,0.62-0.494,0.818-1.089,0.812C25.308,131.101,23.694,131.112,22.081,131.112z"/>
	<path fill="#21A0A0" d="M144.854,30.574c1.61,0,3.22,0.011,4.829-0.006c0.639-0.007,1.139,0.212,1.131,0.884
		c-0.008,0.674-0.548,0.882-1.158,0.881c-3.219-0.003-6.439-0.007-9.658-0.013c-0.563-0.001-1.05-0.138-1.053-0.825
		c-0.003-0.703,0.431-0.931,1.08-0.926C141.635,30.583,143.245,30.574,144.854,30.574z"/>
	<path fill="#21A0A0" d="M147.767,25.487c0.769,0,1.537-0.002,2.306,0c0.523,0.002,0.831,0.252,0.848,0.789
		c0.016,0.519-0.271,0.893-0.762,0.906c-1.645,0.041-3.293,0.043-4.937-0.003c-0.472-0.013-0.805-0.361-0.75-0.903
		c0.052-0.517,0.367-0.78,0.88-0.786C146.157,25.482,146.962,25.488,147.767,25.487z"/>
	<path fill="#21A0A0" d="M19.302,136.199c-0.771,0-1.542-0.002-2.313,0.001c-0.546,0.002-0.829-0.324-0.855-0.809
		c-0.027-0.502,0.279-0.87,0.79-0.879c1.613-0.027,3.228-0.036,4.841,0.014c0.536,0.016,0.879,0.442,0.817,0.986
		c-0.058,0.508-0.468,0.7-0.967,0.696c-0.771-0.006-1.542-0.002-2.313-0.002C19.302,136.203,19.302,136.201,19.302,136.199z"/>
	<path fill="#21A0A0" d="M145.835,108.464c0,0.624,0,1.247,0,1.871c0,0.487-0.275,0.767-0.725,0.81
		c-0.493,0.048-0.936-0.202-0.957-0.698c-0.059-1.39-0.059-2.784-0.012-4.174c0.014-0.415,0.361-0.738,0.828-0.735
		c0.524,0.004,0.815,0.351,0.846,0.836c0.044,0.694,0.011,1.393,0.011,2.09C145.83,108.464,145.832,108.464,145.835,108.464z"/>
	<path fill="#21A0A0" d="M22.397,79.719c0,0.585,0.021,1.171-0.006,1.754c-0.025,0.531-0.258,0.906-0.863,0.92
		c-0.559,0.012-0.834-0.352-0.849-0.813c-0.044-1.314-0.038-2.631-0.002-3.945c0.013-0.483,0.313-0.816,0.849-0.819
		c0.544-0.003,0.814,0.35,0.849,0.821c0.051,0.69,0.013,1.387,0.013,2.082C22.39,79.719,22.393,79.719,22.397,79.719z"/>
	<path fill="#21A0A0" d="M133.702,32.39c-0.512,0-1.024-0.003-1.536,0.001c-0.475,0.003-0.787-0.235-0.84-0.69
		c-0.056-0.484,0.159-0.935,0.673-0.962c1.201-0.064,2.408-0.065,3.61-0.029c0.453,0.014,0.726,0.384,0.687,0.839
		c-0.036,0.414-0.234,0.796-0.731,0.815c-0.62,0.025-1.242,0.006-1.864,0.006C133.702,32.377,133.702,32.383,133.702,32.39z"/>
	<path fill="#21A0A0" d="M33.105,131.108c-0.477,0.001-0.954,0.005-1.43,0c-0.509-0.005-0.855-0.247-0.897-0.764
		c-0.048-0.579,0.311-0.923,0.845-0.944c1.098-0.044,2.2-0.042,3.297,0.004c0.489,0.02,0.817,0.362,0.791,0.882
		c-0.025,0.501-0.318,0.81-0.847,0.819C34.279,131.114,33.692,131.106,33.105,131.108z"/>
	<path fill="#E5007E" d="M21.46,30.864c0.312,0.07,0.59,0.149,0.733,0.449c0.154,0.324,0.161,0.659-0.076,0.924
		c-0.606,0.678-1.224,1.347-1.87,1.987c-0.328,0.324-0.741,0.279-1.095,0.008c-0.37-0.284-0.469-0.744-0.22-1.074
		c0.633-0.838,1.352-1.613,2.241-2.201C21.259,30.9,21.376,30.89,21.46,30.864z"/>
	<path fill="#E5007E" d="M25.581,28.389c-0.635-0.035-1.058-0.693-0.691-1.186c0.63-0.845,1.379-1.606,2.248-2.221
		c0.325-0.23,0.646-0.057,0.889,0.182c0.211,0.208,0.395,0.514,0.211,0.789c-0.632,0.947-1.452,1.722-2.368,2.393
		C25.793,28.403,25.658,28.379,25.581,28.389z"/>
	<path fill="#E5007E" d="M95.575,34.807c-0.1,0.181-0.169,0.402-0.314,0.552c-0.582,0.607-1.178,1.201-1.788,1.78
		c-0.371,0.352-0.802,0.369-1.182,0.022c-0.398-0.362-0.358-0.8-0.015-1.165c0.6-0.639,1.229-1.253,1.863-1.858
		c0.252-0.24,0.565-0.326,0.908-0.148C95.37,34.158,95.51,34.434,95.575,34.807z"/>
	<path fill="#E5007E" d="M92.97,27.945c0.087,0.04,0.283,0.079,0.405,0.196c0.657,0.629,1.318,1.257,1.932,1.927
		c0.335,0.365,0.333,0.813-0.059,1.167c-0.363,0.327-0.76,0.236-1.085-0.06c-0.645-0.588-1.271-1.199-1.892-1.814
		c-0.293-0.29-0.323-0.658-0.119-1.003C92.305,28.102,92.556,27.939,92.97,27.945z"/>
	<path fill="#E5007E" d="M100.792,27.931c0.591,0.114,1.02,0.516,0.733,1.061c-0.526,1.002-1.392,1.758-2.336,2.384
		c-0.318,0.211-0.655-0.019-0.886-0.242c-0.213-0.205-0.314-0.532-0.128-0.804c0.623-0.907,1.441-1.632,2.286-2.324
		C100.536,27.945,100.67,27.957,100.792,27.931z"/>
	<path fill="#E5007E" d="M74.395,142.531c-0.064,0.134-0.115,0.366-0.255,0.515c-0.574,0.612-1.161,1.215-1.772,1.79
		c-0.311,0.293-0.715,0.428-1.084,0.1c-0.387-0.344-0.409-0.809-0.079-1.173c0.612-0.675,1.282-1.298,1.938-1.933
		c0.236-0.228,0.539-0.255,0.812-0.099C74.216,141.88,74.36,142.142,74.395,142.531z"/>
	<path fill="#E5007E" d="M146.282,128.779c0,0.316-0.114,0.588-0.401,0.723c-0.274,0.129-0.608,0.146-0.831-0.067
		c-0.685-0.655-1.355-1.328-1.993-2.029c-0.236-0.259-0.192-0.625-0.001-0.922c0.171-0.267,0.452-0.362,0.761-0.338
		C144.346,126.186,146.276,128.256,146.282,128.779z"/>
	<path fill="#E5007E" d="M100.737,37.396c-0.118-0.06-0.34-0.12-0.492-0.258c-0.618-0.561-1.222-1.139-1.817-1.725
		c-0.393-0.387-0.452-0.839-0.068-1.252c0.361-0.388,0.808-0.338,1.167-0.001c0.635,0.596,1.245,1.22,1.84,1.857
		c0.271,0.29,0.295,0.662,0.088,1.009C101.321,37.253,101.11,37.397,100.737,37.396z"/>
	<path fill="#E5007E" d="M28.289,33.555c-0.028,0.676-0.751,1.032-1.293,0.59c-0.707-0.577-1.339-1.249-1.988-1.895
		c-0.3-0.299-0.313-0.682-0.074-1.003c0.222-0.298,0.56-0.547,0.946-0.285c0.913,0.621,1.676,1.406,2.314,2.308
		C28.253,33.355,28.263,33.475,28.289,33.555z"/>
	<path fill="#E5007E" d="M152.25,134.844c-0.036,0.682-0.7,1.071-1.177,0.673c-0.726-0.605-1.382-1.3-2.016-2.005
		c-0.292-0.325-0.267-0.748,0.085-1.079c0.304-0.286,0.691-0.372,0.989-0.083c0.705,0.684,1.364,1.415,2.025,2.142
		C152.242,134.586,152.232,134.768,152.25,134.844z"/>
	<path fill="#E5007E" d="M19.702,24.895c0.12,0.055,0.32,0.095,0.444,0.213c0.663,0.632,1.327,1.265,1.948,1.937
		c0.303,0.328,0.299,0.754-0.02,1.098C21.74,28.503,21.341,28.471,21,28.16c-0.677-0.616-1.338-1.25-1.985-1.898
		c-0.262-0.262-0.247-0.619-0.088-0.924C19.066,25.072,19.33,24.923,19.702,24.895z"/>
	<path fill="#E5007E" d="M80.348,144.261c0.004,0.316-0.124,0.556-0.393,0.733c-0.333,0.219-0.662,0.139-0.908-0.091
		c-0.644-0.599-1.265-1.223-1.867-1.864c-0.276-0.293-0.282-0.672-0.088-1.025c0.156-0.284,0.427-0.385,0.742-0.367
		C78.291,141.673,80.319,143.785,80.348,144.261z"/>
	<path fill="#E5007E" d="M71.806,135.69c0.322-0.02,0.564,0.154,0.767,0.364c0.506,0.525,0.991,1.07,1.49,1.602
		c0.38,0.406,0.473,0.86,0.063,1.259c-0.372,0.362-0.821,0.262-1.175-0.077c-0.58-0.556-1.144-1.13-1.694-1.714
		c-0.271-0.287-0.335-0.642-0.158-1.015C71.24,135.812,71.489,135.692,71.806,135.69z"/>
	<path fill="#E5007E" d="M152.43,126.966c-0.1,0.198-0.16,0.427-0.302,0.577c-0.579,0.611-1.176,1.206-1.783,1.79
		c-0.331,0.319-0.74,0.366-1.089,0.064c-0.394-0.341-0.404-0.798-0.058-1.169c0.623-0.67,1.281-1.309,1.947-1.936
		c0.225-0.212,0.524-0.233,0.815-0.063C152.242,126.394,152.321,126.67,152.43,126.966z"/>
	<path fill="#E5007E" d="M77.846,139.138c-0.276-0.032-0.545-0.129-0.694-0.414c-0.168-0.323-0.147-0.654,0.103-0.915
		c0.63-0.658,1.273-1.305,1.93-1.936c0.263-0.252,0.593-0.267,0.904-0.059c0.265,0.178,0.366,0.444,0.341,0.758
		C80.391,137.065,78.346,139.113,77.846,139.138z"/>
	<path fill="#E5007E" d="M146.279,133.04c0,0.229-0.077,0.427-0.24,0.591c-0.59,0.595-1.169,1.202-1.773,1.784
		c-0.323,0.311-0.712,0.4-1.071,0.055c-0.372-0.357-0.401-0.784-0.046-1.159c0.626-0.661,1.278-1.299,1.935-1.93
		c0.228-0.219,0.518-0.273,0.8-0.072C146.132,132.485,146.308,132.71,146.279,133.04z"/>
	<path fill="#8ECCC6" d="M137.188,48.036c0-3.433-1.693-5.109-5.149-5.109c-16.087,0-32.174,0-48.261,0
		c-16.234,0-32.468-0.001-48.702,0.001c-2.799,0-4.533,1.738-4.533,4.525c-0.001,21.008-0.001,42.017,0.004,63.025
		c0,0.547-0.006,1.113,0.123,1.638c0.525,2.151,2.164,3.283,4.713,3.284c10.394,0.005,20.788,0.002,31.182,0.002
		c0.22,0,0.443,0.021,0.661-0.004c0.51-0.059,0.624,0.162,0.549,0.635c-0.427,2.68-0.865,5.359-1.228,8.048
		c-0.086,0.634-0.375,0.667-0.857,0.656c-0.844-0.019-1.691-0.033-2.534,0.003c-1.886,0.081-3.053,1.283-3.095,3.157
		c-0.013,0.587-0.004,1.175-0.004,1.763c0.001,1.765,0.068,1.832,1.884,1.832c14.618,0,29.236,0,43.853,0
		c0.33,0,0.664,0.018,0.991-0.017c0.493-0.053,0.857-0.332,0.863-0.84c0.015-1.136,0.083-2.289-0.082-3.405
		c-0.22-1.492-1.385-2.406-2.931-2.484c-0.843-0.043-1.692-0.058-2.533,0.001c-0.648,0.046-0.905-0.167-0.994-0.813
		c-0.341-2.47-0.7-4.939-1.115-7.398c-0.149-0.885,0.001-1.163,0.99-1.159c10.394,0.041,20.788,0.028,31.182,0.024
		c3.347-0.001,5.021-1.671,5.021-5.001C137.19,89.612,137.19,68.824,137.188,48.036z M103.756,126.239
		c1.967,0,2.808,1.133,2.279,3.009c-0.146,0.517-0.514,0.321-0.792,0.323c-2.02,0.018-4.04,0.01-6.06,0.01
		c-5.142,0-10.284,0-15.427,0c-6.905,0-13.811,0.012-20.716-0.025c-0.491-0.003-1.397,0.558-1.403-0.707
		c-0.009-1.849,0.297-2.488,1.458-2.602c0.255-0.025,0.514-0.008,0.771-0.008C77.164,126.238,90.46,126.238,103.756,126.239z
		 M68.215,123.559c0.471-2.482,0.807-4.991,1.132-7.498c0.106-0.818,0.623-0.655,1.11-0.656c5.614-0.003,11.228-0.002,16.842-0.002
		c3.229,0,6.458,0.025,9.687-0.017c0.813-0.011,1.203,0.096,1.322,1.053c0.303,2.433,0.751,4.85,1.187,7.265
		c0.141,0.779,0.043,1.063-0.873,1.053c-4.953-0.052-9.907-0.025-14.86-0.025c-4.807,0-9.614-0.02-14.42,0.018
		C68.421,124.757,68,124.694,68.215,123.559z M131.96,113.675c-32.096,0-64.192,0-96.288,0c-2.671,0-3.527-0.866-3.527-3.568
		c0-20.712,0-41.424,0-62.136c0-2.623,0.873-3.501,3.482-3.501c16.085,0,32.17,0,48.255,0c16.085,0,32.17,0,48.254,0
		c2.513,0,3.389,0.863,3.389,3.355c0.002,20.749,0.001,41.497,0,62.246C135.524,112.694,134.549,113.675,131.96,113.675z"/>
	<path fill="#FBB040" d="M149.732,57.254c-2.198,0-4.054,1.839-4.094,4.056c-0.04,2.272,1.8,4.15,4.077,4.159
		c2.297,0.009,4.129-1.795,4.151-4.089C153.888,59.135,152.003,57.254,149.732,57.254z M149.737,63.864
		c-1.381-0.002-2.491-1.14-2.472-2.533c0.019-1.373,1.054-2.398,2.447-2.422c1.433-0.025,2.508,1.025,2.513,2.456
		C152.231,62.782,151.152,63.866,149.737,63.864z"/>
	<path fill="#FBB040" d="M60.919,25.559c-2.236-0.002-4.146,1.917-4.137,4.158c0.009,2.19,1.856,4.067,4.059,4.125
		c2.226,0.058,4.141-1.831,4.158-4.101C65.017,27.454,63.17,25.562,60.919,25.559z M60.94,32.163
		c-1.442,0.014-2.502-1.028-2.505-2.461c-0.002-1.397,0.999-2.429,2.386-2.459c1.448-0.032,2.537,0.985,2.57,2.399
		C63.425,31.06,62.365,32.149,60.94,32.163z"/>
	<path fill="#FBB040" d="M121.922,123.339c-2.269-0.018-4.088,1.731-4.127,3.969c-0.041,2.391,1.74,4.235,4.089,4.232
		c2.235-0.003,4.071-1.807,4.102-4.032C126.018,125.227,124.194,123.357,121.922,123.339z M121.935,129.946
		c-1.369,0.036-2.537-1.094-2.558-2.474c-0.021-1.389,1.094-2.523,2.485-2.527c1.376-0.005,2.531,1.148,2.521,2.514
		C124.374,128.776,123.257,129.911,121.935,129.946z"/>
	<path fill="#8ECCC6" d="M129.014,49.206c-15.024,0-30.048,0-45.072,0c-15.061,0-30.121,0-45.182,0c-1.754,0-1.82,0.064-1.82,1.769
		c0,18.734,0,37.468,0,56.202c0,1.74,0.098,1.834,1.892,1.834c30.085,0,60.17,0,90.254,0c1.72,0,1.776-0.058,1.776-1.818
		c0-18.697,0-37.395,0-56.092C130.863,49.314,130.758,49.206,129.014,49.206z M129.147,106.225c0.002,0.978-0.243,1.192-1.201,1.19
		c-14.725-0.033-29.451-0.023-44.176-0.023c-14.652,0-29.304-0.008-43.956,0.02c-0.957,0.002-1.297-0.17-1.295-1.235
		c0.038-17.994,0.037-35.987,0.001-53.981c-0.002-1.053,0.32-1.243,1.288-1.242c29.377,0.025,58.755,0.025,88.132-0.002
		c0.944-0.001,1.21,0.191,1.208,1.182C129.113,70.164,129.114,88.195,129.147,106.225z"/>
	<path fill="#E5007E" d="M59.73,79.188c3.605,2.248,7.119,4.424,10.614,6.632c0.56,0.354,1.607,0.592,1.036,1.575
		c-0.597,1.028-1.282,0.155-1.831-0.179c-3.909-2.378-7.797-4.789-11.691-7.192c-0.853-0.526-0.873-0.97,0.001-1.513
		c4.073-2.53,8.16-5.039,12.241-7.556c0.467-0.288,0.938-0.51,1.327,0.098c0.422,0.66-0.103,0.9-0.545,1.175
		c-3.294,2.051-6.586,4.104-9.878,6.157C60.607,78.631,60.214,78.882,59.73,79.188z"/>
	<path fill="#E5007E" d="M107.881,79.293c-3.664-2.281-7.176-4.451-10.666-6.655c-0.558-0.352-1.617-0.636-0.976-1.586
		c0.624-0.924,1.241,0.038,1.743,0.342c3.854,2.327,7.679,4.704,11.511,7.067c1.192,0.735,1.193,1.084,0.005,1.818
		c-3.862,2.385-7.726,4.767-11.589,7.15c-0.218,0.134-0.426,0.289-0.656,0.398c-0.489,0.231-0.862,0.018-1.129-0.385
		c-0.293-0.443-0.054-0.768,0.316-1.011c0.581-0.382,1.174-0.746,1.764-1.114C101.371,83.344,104.539,81.373,107.881,79.293z"/>
	<path fill="#E5007E" d="M78.569,90.664c0.07-0.212,0.162-0.528,0.279-0.834c2.812-7.418,5.626-14.834,8.44-22.251
		c0.078-0.205,0.144-0.417,0.244-0.611c0.238-0.463,0.588-0.816,1.136-0.57c0.522,0.235,0.575,0.695,0.376,1.214
		c-0.616,1.604-1.218,3.213-1.827,4.819c-2.29,6.051-4.58,12.102-6.871,18.153c-0.09,0.239-0.169,0.489-0.301,0.704
		c-0.237,0.385-0.607,0.539-1.037,0.385C78.598,91.526,78.519,91.167,78.569,90.664z"/>
	<path fill="#FBB040" d="M106.073,101.17c-1.17-0.001-2.34,0.001-3.51-0.001c-0.571-0.001-1.044-0.172-1.051-0.838
		c-0.007-0.658,0.46-0.879,1.026-0.882c2.413-0.012,4.826-0.01,7.239-0.003c0.602,0.002,1.009,0.315,0.998,0.923
		c-0.012,0.66-0.52,0.802-1.083,0.802C108.486,101.17,107.28,101.171,106.073,101.17z"/>
	<path fill="#FBB040" d="M94.087,101.17c-1.174,0-2.349-0.012-3.522,0.005c-0.588,0.009-1.072-0.178-1.105-0.799
		c-0.036-0.692,0.475-0.932,1.098-0.933c2.385-0.005,4.77-0.004,7.155-0.001c0.576,0.001,1.044,0.181,1.031,0.857
		c-0.012,0.639-0.423,0.876-1.025,0.873C96.508,101.165,95.298,101.17,94.087,101.17z"/>
	<path fill="#FBB040" d="M118.137,101.171c-1.171,0-2.342-0.003-3.513,0.001c-0.592,0.002-1.163-0.089-1.188-0.816
		c-0.024-0.711,0.509-0.909,1.115-0.911c2.342-0.007,4.684-0.007,7.025-0.001c0.599,0.002,1.14,0.161,1.126,0.893
		c-0.014,0.738-0.564,0.839-1.163,0.836C120.406,101.166,119.272,101.171,118.137,101.171z"/>
	<path fill="#FBB040" d="M46.672,60.525c0.843,0,1.686,0.006,2.529-0.002c0.556-0.006,0.946,0.201,0.959,0.8
		c0.012,0.574-0.358,0.905-0.891,0.914c-1.795,0.032-3.591,0.027-5.386,0.009c-0.495-0.005-0.844-0.268-0.84-0.815
		c0.004-0.569,0.305-0.891,0.882-0.898c0.916-0.012,1.832-0.003,2.748-0.003C46.672,60.527,46.672,60.526,46.672,60.525z"/>
	<path fill="#FBB040" d="M57.468,60.525c0.877-0.001,1.754-0.002,2.631,0c0.502,0.001,0.858,0.192,0.89,0.744
		c0.034,0.573-0.274,0.95-0.82,0.96c-1.826,0.035-3.653,0.034-5.479-0.002c-0.477-0.01-0.819-0.335-0.798-0.869
		c0.023-0.587,0.391-0.828,0.944-0.83C55.714,60.523,56.591,60.526,57.468,60.525z"/>
	<path fill="#FBB040" d="M119.177,94.765c-0.842,0-1.685-0.01-2.527,0.004c-0.588,0.01-0.917-0.311-0.951-0.84
		c-0.037-0.57,0.345-0.877,0.899-0.882c1.758-0.015,3.515-0.015,5.273,0.002c0.534,0.005,0.958,0.284,0.961,0.847
		c0.003,0.615-0.408,0.884-1.019,0.876c-0.879-0.012-1.758-0.003-2.637-0.003C119.177,94.768,119.177,94.766,119.177,94.765z"/>
	<path fill="#FBB040" d="M103.984,55.719c0.808,0,1.616,0.003,2.423,0c0.535-0.002,1.008,0.176,1.024,0.756
		c0.017,0.622-0.442,0.885-1.033,0.886c-1.726,0.004-3.451,0.008-5.177-0.006c-0.478-0.004-0.904-0.177-0.903-0.741
		c0.001-0.565,0.36-0.875,0.912-0.888C102.148,55.702,103.066,55.718,103.984,55.719z"/>
	<path fill="#FBB040" d="M108.245,94.769c-0.841-0.001-1.681,0.005-2.522-0.002c-0.611-0.005-0.969-0.297-0.955-0.936
		c0.014-0.632,0.461-0.786,0.975-0.789c1.681-0.012,3.363-0.014,5.044,0.001c0.605,0.006,1.124,0.225,1.082,0.941
		c-0.038,0.651-0.536,0.792-1.102,0.788C109.926,94.764,109.086,94.77,108.245,94.769z"/>
	<path fill="#FBB040" d="M92.868,57.365c-0.845,0-1.689,0.003-2.534-0.001c-0.49-0.002-0.904-0.152-0.894-0.727
		c0.009-0.495,0.313-0.881,0.805-0.89c1.872-0.035,3.745-0.027,5.617-0.001c0.429,0.006,0.636,0.326,0.609,0.76
		c-0.033,0.528-0.352,0.816-0.85,0.833c-0.917,0.031-1.835,0.009-2.753,0.009C92.868,57.353,92.868,57.359,92.868,57.365z"/>
	<path fill="#FBB040" d="M82.081,55.718c0.807,0.001,1.615,0.006,2.422-0.001c0.562-0.005,1.096,0.112,1.122,0.769
		c0.025,0.637-0.462,0.871-1.039,0.873c-1.724,0.006-3.449,0.007-5.173-0.008c-0.476-0.004-0.897-0.166-0.889-0.746
		c0.008-0.576,0.367-0.868,0.916-0.882C80.32,55.701,81.201,55.717,82.081,55.718z"/>
	<path fill="#FBB040" d="M114.747,55.717c0.844,0.001,1.688-0.009,2.532,0.005c0.514,0.009,0.989,0.15,0.993,0.775
		c0.004,0.588-0.408,0.849-0.942,0.854c-1.761,0.017-3.522,0.015-5.283-0.003c-0.471-0.005-0.885-0.16-0.872-0.756
		c0.013-0.604,0.404-0.849,0.931-0.868C112.985,55.694,113.867,55.716,114.747,55.717z"/>
	<path fill="#FBB040" d="M97.455,94.764c-0.84,0-1.681,0.008-2.521-0.003c-0.494-0.006-0.864-0.222-0.909-0.751
		c-0.049-0.58,0.302-0.93,0.838-0.941c1.753-0.036,3.507-0.032,5.26-0.01c0.506,0.006,0.813,0.315,0.784,0.855
		c-0.027,0.511-0.3,0.827-0.823,0.839c-0.876,0.019-1.754,0.005-2.631,0.005C97.455,94.76,97.455,94.762,97.455,94.764z"/>
	<path fill="#FBB040" d="M68.277,60.524c0.805,0,1.611,0.005,2.416-0.002c0.566-0.005,0.923,0.224,0.928,0.824
		c0.005,0.587-0.364,0.888-0.899,0.896c-1.683,0.027-3.367,0.027-5.051,0.004c-0.523-0.007-0.943-0.278-0.943-0.859
		c-0.001-0.643,0.426-0.87,1.023-0.864C66.593,60.53,67.435,60.525,68.277,60.524z"/>
	<path fill="#FBB040" d="M55.703,99.346c0.693,0.001,1.386-0.004,2.079,0.003c0.557,0.006,0.929,0.301,0.94,0.848
		c0.011,0.553-0.379,0.877-0.913,0.887c-1.385,0.027-2.772,0.027-4.157-0.002c-0.598-0.013-0.977-0.417-0.94-0.988
		c0.036-0.542,0.472-0.767,1.022-0.753C54.389,99.357,55.046,99.345,55.703,99.346z"/>
	<path fill="#FBB040" d="M64.525,101.167c-0.695,0-1.39-0.01-2.084,0.003c-0.571,0.011-0.947-0.273-0.975-0.812
		c-0.028-0.547,0.345-0.89,0.897-0.899c1.425-0.023,2.852-0.025,4.277,0c0.566,0.01,0.887,0.409,0.862,0.934
		c-0.023,0.482-0.364,0.774-0.893,0.77c-0.695-0.006-1.389-0.001-2.084-0.001C64.525,101.164,64.525,101.166,64.525,101.167z"/>
	<path fill="#FBB040" d="M46.984,101.163c-0.695,0-1.389,0.01-2.084-0.004c-0.499-0.01-0.86-0.25-0.894-0.771
		c-0.037-0.579,0.328-0.905,0.866-0.919c1.425-0.036,2.851-0.036,4.276-0.013c0.543,0.009,0.913,0.331,0.886,0.902
		c-0.027,0.57-0.409,0.816-0.966,0.813c-0.695-0.004-1.389-0.001-2.084-0.001C46.984,101.168,46.984,101.165,46.984,101.163z"/>
	<path fill="#FBB040" d="M124.418,55.65c0.473,0,0.946-0.01,1.419,0.003c0.463,0.013,0.761,0.252,0.798,0.723
		c0.039,0.504-0.205,0.901-0.71,0.928c-1.051,0.056-2.108,0.057-3.16,0.016c-0.498-0.019-0.786-0.375-0.754-0.892
		c0.028-0.462,0.312-0.738,0.771-0.761c0.544-0.027,1.091-0.006,1.636-0.006C124.418,55.658,124.418,55.654,124.418,55.65z"/>
	<path fill="#FBB040" d="M71.359,99.34c0.652-0.038,1.235,0.121,1.244,0.869c0.008,0.663-0.506,0.894-1.127,0.888
		c-0.601-0.007-1.251-0.013-1.289-0.81C70.15,99.522,70.728,99.357,71.359,99.34z"/>
</g>
</svg>
