<?xml version="1.0" encoding="utf-8"?>
<!-- Generator: Adobe Illustrator 17.0.0, SVG Export Plug-In . SVG Version: 6.00 Build 0)  -->
<!DOCTYPE svg PUBLIC "-//W3C//DTD SVG 1.1//EN" "http://www.w3.org/Graphics/SVG/1.1/DTD/svg11.dtd">
<svg version="1.1" id="Layer_1" xmlns="http://www.w3.org/2000/svg" xmlns:xlink="http://www.w3.org/1999/xlink" x="0px" y="0px"
	 width="700px" height="550px" viewBox="0 0 700 550" enable-background="new 0 0 700 550" xml:space="preserve">
<g>
	
		<ellipse opacity="0.6" fill="#666666" stroke="#939598" stroke-width="0.9644" stroke-miterlimit="10" cx="350" cy="508.66" rx="338.795" ry="10.572"/>
	
		<polyline fill="none" stroke="#FFEC00" stroke-width="4.8219" stroke-linecap="round" stroke-linejoin="round" stroke-miterlimit="10" points="
		287.231,88.855 276.766,85.312 266.297,81.765 264.877,92.69 263.449,103.62 	"/>
	
		<circle fill="none" stroke="#FFFFFF" stroke-width="4.8219" stroke-linecap="round" stroke-linejoin="round" stroke-miterlimit="10" cx="321.564" cy="40.855" r="10.087"/>
	
		<path fill="none" stroke="#35A8E0" stroke-width="4.8219" stroke-linecap="round" stroke-linejoin="round" stroke-miterlimit="10" d="
		M283.706,225.536c0.025-0.071,0.059-0.137,0.085-0.209c2.777-8.008-1.465-16.751-9.472-19.526
		c-8.009-2.777-16.751,1.462-19.528,9.471c-0.025,0.072-0.04,0.144-0.063,0.216"/>
	<g>
		
			<polyline fill="none" stroke="#E5007E" stroke-width="4.8219" stroke-linecap="round" stroke-linejoin="round" stroke-miterlimit="10" points="
			474.396,183.422 491.133,177.067 497.046,193.607 		"/>
		
			<polyline fill="none" stroke="#E5007E" stroke-width="4.8219" stroke-linecap="round" stroke-linejoin="round" stroke-miterlimit="10" points="
			497.046,193.607 513.783,187.249 519.695,203.787 		"/>
	</g>
	<g>
		
			<polyline fill="none" stroke="#FFEC00" stroke-width="4.8219" stroke-linecap="round" stroke-linejoin="round" stroke-miterlimit="10" points="
			410.336,66.806 410.895,48.911 428.437,49.802 		"/>
		
			<polyline fill="none" stroke="#FFEC00" stroke-width="4.8219" stroke-linecap="round" stroke-linejoin="round" stroke-miterlimit="10" points="
			428.437,49.802 428.994,31.907 446.534,32.799 		"/>
	</g>
	
		<line fill="none" stroke="#FFEC00" stroke-width="4.8219" stroke-linecap="round" stroke-linejoin="round" stroke-miterlimit="10" x1="449.431" y1="161.048" x2="475.691" y2="137.868"/>
	
		<circle fill="none" stroke="#FFFFFF" stroke-width="2.8932" stroke-linecap="round" stroke-linejoin="round" stroke-miterlimit="10" cx="219.876" cy="47.664" r="3.61"/>
	
		<circle fill="none" stroke="#FFFFFF" stroke-width="2.8932" stroke-linecap="round" stroke-linejoin="round" stroke-miterlimit="10" cx="531.657" cy="111.181" r="3.61"/>
	<g>
		
			<line fill="none" stroke="#FFFFFF" stroke-width="2.8932" stroke-linecap="round" stroke-linejoin="round" stroke-miterlimit="10" x1="251.785" y1="45.591" x2="258.229" y2="51.636"/>
		
			<line fill="none" stroke="#FFFFFF" stroke-width="2.8932" stroke-linecap="round" stroke-linejoin="round" stroke-miterlimit="10" x1="258.031" y1="45.389" x2="251.985" y2="51.837"/>
	</g>
	<g>
		
			<line fill="none" stroke="#FFFFFF" stroke-width="2.8932" stroke-linecap="round" stroke-linejoin="round" stroke-miterlimit="10" x1="223.435" y1="66.931" x2="229.879" y2="72.976"/>
		
			<line fill="none" stroke="#FFFFFF" stroke-width="2.8932" stroke-linecap="round" stroke-linejoin="round" stroke-miterlimit="10" x1="229.681" y1="66.729" x2="223.635" y2="73.177"/>
	</g>
	<g>
		
			<line fill="none" stroke="#FFFFFF" stroke-width="2.8932" stroke-linecap="round" stroke-linejoin="round" stroke-miterlimit="10" x1="485.683" y1="77.959" x2="492.126" y2="84.005"/>
		
			<line fill="none" stroke="#FFFFFF" stroke-width="2.8932" stroke-linecap="round" stroke-linejoin="round" stroke-miterlimit="10" x1="491.929" y1="77.758" x2="485.882" y2="84.205"/>
	</g>
	<g>
		
			<line fill="none" stroke="#FFFFFF" stroke-width="2.8932" stroke-linecap="round" stroke-linejoin="round" stroke-miterlimit="10" x1="280.781" y1="158.026" x2="287.225" y2="164.071"/>
		
			<line fill="none" stroke="#FFFFFF" stroke-width="2.8932" stroke-linecap="round" stroke-linejoin="round" stroke-miterlimit="10" x1="287.027" y1="157.824" x2="280.981" y2="164.272"/>
	</g>
	<g>
		<path fill="#F4A01E" d="M561.771,184.788c-0.089-0.253-0.072-0.544,0.071-0.796c0.263-0.463,0.851-0.626,1.315-0.363
			c0.616,0.351,1.235,0.695,1.856,1.032c0.468,0.255,0.64,0.84,0.387,1.309c-0.255,0.467-0.84,0.64-1.309,0.386
			c-0.632-0.344-1.261-0.694-1.886-1.05C561.994,185.187,561.846,185,561.771,184.788z M570.533,189.291
			c-0.08-0.228-0.075-0.487,0.034-0.724c0.223-0.482,0.797-0.694,1.28-0.472c2.313,1.069,4.684,2.069,7.048,2.98
			c0.498,0.19,0.746,0.751,0.554,1.246c-0.191,0.496-0.749,0.745-1.246,0.554c-2.403-0.924-4.813-1.942-7.164-3.028
			C570.792,189.733,570.616,189.527,570.533,189.291z M584.926,194.825c-0.066-0.188-0.074-0.399-0.011-0.605
			c0.158-0.508,0.698-0.792,1.207-0.634c2.43,0.754,4.912,1.437,7.377,2.03c0.518,0.123,0.837,0.645,0.712,1.162
			c-0.124,0.517-0.645,0.836-1.162,0.712c-2.506-0.601-5.03-1.295-7.499-2.064C585.247,195.333,585.023,195.103,584.926,194.825z
			 M599.919,198.423c-0.053-0.151-0.07-0.315-0.04-0.482c0.089-0.525,0.588-0.878,1.113-0.789c2.51,0.43,5.06,0.78,7.579,1.04
			c0.528,0.055,0.915,0.528,0.86,1.06c-0.055,0.529-0.529,0.914-1.059,0.859c-2.56-0.265-5.152-0.621-7.705-1.057
			C600.309,198.993,600.031,198.742,599.919,198.423z M615.256,200.013c-0.039-0.111-0.058-0.23-0.054-0.354
			c0.019-0.534,0.467-0.948,0.999-0.928c2.54,0.092,5.114,0.101,7.651,0.027c0.532-0.017,0.976,0.402,0.992,0.934
			c0.016,0.532-0.403,0.977-0.935,0.993c-2.58,0.077-5.197,0.068-7.779-0.028C615.722,200.642,615.383,200.375,615.256,200.013z"/>
	</g>
	<g>
		<polygon fill="#03B9DB" points="530.78,142.405 545.408,152.779 589.217,121.798 		"/>
	</g>
	<g>
		<polygon fill="#E5007E" points="134.881,150.271 101.176,152.064 71.225,127.655 		"/>
	</g>
	
		<circle fill="none" stroke="#FFFFFF" stroke-width="4.8219" stroke-linecap="round" stroke-linejoin="round" stroke-miterlimit="10" cx="179.93" cy="111.181" r="10.087"/>
	
		<rect x="532.593" y="49.194" transform="matrix(-0.8796 0.4757 -0.4757 -0.8796 1046.6666 -147.6387)" fill="none" stroke="#FFEC00" stroke-width="4.8219" stroke-linecap="round" stroke-linejoin="round" stroke-miterlimit="10" width="18.841" height="18.841"/>
	<g>
		<g>
			<g>
				<g>
					<g>
						<defs>
							<path id="SVGID_19_" d="M306.792,466.674c-2.662-44.757-1.944-86.135,1.542-94.515c3.576-5.204,25.049-18.004,46.195-27.492
								l-11.884-26.51c-14.842,6.652-50.35,23.814-59.485,39.484c-3.857,6.614-7.555,19.528-5.749,65.165
								c0.947,23.903,2.113,42.629,2.113,42.629L306.792,466.674z"/>
						</defs>
						<clipPath id="SVGID_2_">
							<use xlink:href="#SVGID_19_"  overflow="visible"/>
						</clipPath>
					</g>
				</g>
				<g>
					<g>
						<defs>
							<path id="SVGID_21_" d="M306.792,466.674c-2.662-44.757-1.944-86.135,1.542-94.515c3.576-5.204,25.049-18.004,46.195-27.492
								l-11.884-26.51c-14.842,6.652-50.35,23.814-59.485,39.484c-3.857,6.614-7.555,19.528-5.749,65.165
								c0.947,23.903,2.113,42.629,2.113,42.629L306.792,466.674z"/>
						</defs>
						<clipPath id="SVGID_4_">
							<use xlink:href="#SVGID_21_"  overflow="visible"/>
						</clipPath>
					</g>
				</g>
				<g>
					<g>
						<defs>
							<path id="SVGID_23_" d="M306.792,466.674c-2.662-44.757-1.944-86.135,1.542-94.515c3.576-5.204,25.049-18.004,46.195-27.492
								l-11.884-26.51c-14.842,6.652-50.35,23.814-59.485,39.484c-3.857,6.614-7.555,19.528-5.749,65.165
								c0.947,23.903,2.113,42.629,2.113,42.629L306.792,466.674z"/>
						</defs>
						<clipPath id="SVGID_6_">
							<use xlink:href="#SVGID_23_"  overflow="visible"/>
						</clipPath>
					</g>
				</g>
			</g>
			<g>
				<g>
					<g>
						<defs>
							<path id="SVGID_25_" d="M306.792,466.674c-2.662-44.757-1.944-86.135,1.542-94.515c3.576-5.204,25.049-18.004,46.195-27.492
								l-11.884-26.51c-14.842,6.652-50.35,23.814-59.485,39.484c-3.857,6.614-7.555,19.528-5.749,65.165
								c0.947,23.903,2.113,42.629,2.113,42.629L306.792,466.674z"/>
						</defs>
						<clipPath id="SVGID_8_">
							<use xlink:href="#SVGID_25_"  overflow="visible"/>
						</clipPath>
					</g>
				</g>
				<g>
					<path fill="#968EAB" d="M80.287,502.506h528.881c4.169,0,7.58-3.411,7.58-7.58l0,0c0-4.169-3.411-7.58-7.58-7.58H80.287
						c-4.169,0-7.58,3.411-7.58,7.58l0,0C72.707,499.095,76.118,502.506,80.287,502.506z"/>
					<g>
						<g>
							<g>
								<path fill="#0E254A" d="M198.071,187.205L198.071,187.205c3.756-4.005,3.43-10.186-0.726-13.804l-0.47-0.41
									c-4.157-3.619-10.571-3.305-14.327,0.7l0,0c-3.756,4.005-3.43,10.186,0.727,13.804l0.47,0.41
									C187.901,191.524,194.315,191.211,198.071,187.205z"/>
								<path fill="#F66438" d="M190.095,206.643l9.879,8.6l28.05-29.915l-9.879-8.6c-6.845-5.959-16.662-6.75-24.282-2.615
									c-1.925,1.041-3.705,2.393-5.267,4.059c-3.87,4.127-5.64,9.377-5.376,14.535
									C183.499,197.864,185.812,202.915,190.095,206.643z"/>
								<path fill="#FFAC3D" d="M199.02,197.125l9.879,8.6l19.125-20.397l-9.879-8.6c-6.845-5.959-16.662-6.75-24.282-2.615
									c-1.309,2.886-1.879,5.995-1.718,9.075C192.424,188.345,194.737,193.396,199.02,197.125z"/>
							</g>
							<path fill="#323966" d="M199.462,215.128c2.98,2.661,11.787-1.785,19.67-9.948c7.884-8.164,11.869-16.941,8.884-19.61
								c-2.351-2.109-8.351,0.23-14.662,5.338c-1.662,1.357-3.357,2.9-5,4.605c-1.922,1.993-3.617,4.021-5.03,5.99
								C198.935,207.596,197.21,213.112,199.462,215.128z"/>
							<path fill="#FFFFFF" d="M203.325,201.503c2.282,2.515,6.165,3.232,9.312,1.52c3.594-1.956,4.865-6.363,2.831-9.833
								c-0.543-0.926-1.269-1.698-2.113-2.281c-1.662,1.357-3.357,2.9-5,4.605C206.432,197.506,204.737,199.534,203.325,201.503z"/>
						</g>
						<polyline fill="none" stroke="#0E254A" stroke-width="4.0055" stroke-miterlimit="10" points="148.181,283.946 
							122.573,201.288 174.428,166.744 185.312,175.997 						"/>
						<g>
							<ellipse fill="#0E254A" cx="175.11" cy="167.236" rx="6.376" ry="6.144"/>
							<ellipse fill="#323966" cx="175.11" cy="167.236" rx="3.188" ry="3.072"/>
						</g>
						<path fill="#FFAC3D" d="M122.403,294.417h65.969l0,0c0-7.238-5.868-13.106-13.106-13.106h-39.757
							C128.271,281.311,122.403,287.179,122.403,294.417L122.403,294.417z"/>
						<rect x="162.869" y="278.035" fill="#0E254A" width="11.902" height="3.604"/>
						<g>
							<ellipse fill="#0E254A" cx="123.083" cy="202.13" rx="8.926" ry="8.601"/>
							<ellipse fill="#323966" cx="123.083" cy="202.13" rx="4.463" ry="4.3"/>
						</g>
					</g>
					<g>
						<g>
							<path fill="#5E1F3F" d="M84.931,275.239h60.507v-20.932H84.931c-2.558,0-4.631,2.073-4.631,4.631v11.67
								C80.3,273.166,82.374,275.239,84.931,275.239z"/>
							<path fill="#5E1F3F" d="M106.965,275.239h60.507v-20.932h-60.507c-2.558,0-4.631,2.073-4.631,4.631v11.67
								C102.334,273.166,104.408,275.239,106.965,275.239z"/>
							<path fill="#E8EAEC" d="M109.96,272.363h57.513v-15.969H109.96c-2.191,0-3.967,1.776-3.967,3.967v8.035
								C105.992,270.587,107.769,272.363,109.96,272.363z"/>
							<rect x="84.018" y="262.569" fill="#FFFFFF" width="13.771" height="1.515"/>
							<rect x="84.018" y="265.814" fill="#FFFFFF" width="13.771" height="1.515"/>
						</g>
						<g>
							<path fill="#5E1F3F" d="M75.115,238.196h60.507v-20.932H75.115c-2.558,0-4.631,2.073-4.631,4.631v11.67
								C70.484,236.122,72.558,238.196,75.115,238.196z"/>
							<path fill="#5E1F3F" d="M97.149,238.196h60.507v-20.932H97.149c-2.558,0-4.631,2.073-4.631,4.631v11.67
								C92.518,236.122,94.592,238.196,97.149,238.196z"/>
							<path fill="#E8EAEC" d="M99.377,236.086h58.279v-16.735H99.377c-2.191,0-3.967,1.776-3.967,3.967v8.801
								C95.41,234.31,97.186,236.086,99.377,236.086z"/>
							<rect x="72.768" y="223.874" fill="#E8EAEC" width="16.846" height="7.436"/>
							<rect x="74.202" y="225.526" fill="#0E254A" width="13.771" height="1.515"/>
							<rect x="74.202" y="228.005" fill="#0E254A" width="13.771" height="1.515"/>
						</g>
						<g>
							<path fill="#0E254A" d="M80.525,295.07h60.507v-20.932H80.525c-2.558,0-4.631,2.073-4.631,4.631v11.67
								C75.893,292.996,77.967,295.07,80.525,295.07z"/>
							<path fill="#0E254A" d="M102.559,295.07h60.507v-20.932h-60.507c-2.558,0-4.631,2.073-4.631,4.631v11.67
								C97.928,292.996,100.001,295.07,102.559,295.07z"/>
							<path fill="#E8EAEC" d="M105.553,292.194h57.513v-15.203h-57.513c-2.191,0-3.967,1.776-3.967,3.967v7.269
								C101.586,290.418,103.362,292.194,105.553,292.194z"/>
							<rect x="78.178" y="280.748" fill="#E8EAEC" width="16.846" height="7.437"/>
							<rect x="79.612" y="282.4" fill="#0E254A" width="13.771" height="1.515"/>
							<rect x="79.612" y="284.879" fill="#0E254A" width="13.771" height="1.515"/>
						</g>
						<g>
							<path fill="#D04234" d="M153.336,238.044v16.278H83.805c-4.493,0-8.139-3.646-8.139-8.139c0-2.242,0.912-4.279,2.381-5.758
								c1.479-1.47,3.516-2.381,5.758-2.381H153.336z"/>
							<path fill="#FA7C50" d="M161.415,238.044v16.278h-58.514c-4.493,0-8.139-3.646-8.139-8.139c0-2.242,0.912-4.279,2.381-5.758
								c1.479-1.47,3.516-2.381,5.758-2.381H161.415z"/>
							<path fill="#E8EAEC" d="M161.415,240.835v10.436h-56.319c-2.884,0-5.218-2.335-5.218-5.218c0-1.442,0.586-2.744,1.526-3.693
								c0.949-0.94,2.251-1.526,3.693-1.526H161.415z"/>
						</g>
						<g>
							
								<line fill="none" stroke="#968EAB" stroke-width="1.1017" stroke-miterlimit="10" x1="157.663" y1="221.807" x2="97.43" y2="221.807"/>
							
								<line fill="none" stroke="#968EAB" stroke-width="1.1017" stroke-miterlimit="10" x1="157.663" y1="225.295" x2="97.43" y2="225.295"/>
							
								<line fill="none" stroke="#968EAB" stroke-width="1.1017" stroke-miterlimit="10" x1="157.663" y1="228.784" x2="97.43" y2="228.784"/>
							
								<line fill="none" stroke="#968EAB" stroke-width="1.1017" stroke-miterlimit="10" x1="157.663" y1="232.273" x2="97.43" y2="232.273"/>
						</g>
						<g>
							
								<line fill="none" stroke="#968EAB" stroke-width="1.1017" stroke-miterlimit="10" x1="167.518" y1="259.448" x2="106.925" y2="259.448"/>
							
								<line fill="none" stroke="#968EAB" stroke-width="1.1017" stroke-miterlimit="10" x1="167.518" y1="262.937" x2="106.925" y2="262.937"/>
							
								<line fill="none" stroke="#968EAB" stroke-width="1.1017" stroke-miterlimit="10" x1="167.518" y1="266.426" x2="106.925" y2="266.426"/>
							
								<line fill="none" stroke="#968EAB" stroke-width="1.1017" stroke-miterlimit="10" x1="167.518" y1="269.914" x2="106.925" y2="269.914"/>
						</g>
						<g>
							
								<line fill="none" stroke="#968EAB" stroke-width="1.1017" stroke-miterlimit="10" x1="162.928" y1="279.462" x2="102.334" y2="279.462"/>
							
								<line fill="none" stroke="#968EAB" stroke-width="1.1017" stroke-miterlimit="10" x1="162.928" y1="282.951" x2="102.334" y2="282.951"/>
							
								<line fill="none" stroke="#968EAB" stroke-width="1.1017" stroke-miterlimit="10" x1="162.928" y1="285.674" x2="102.334" y2="285.674"/>
							
								<line fill="none" stroke="#968EAB" stroke-width="1.1017" stroke-miterlimit="10" x1="162.928" y1="289.162" x2="102.334" y2="289.162"/>
						</g>
					</g>
					<rect x="486.277" y="311.747" fill="#122F51" width="17.627" height="190.961"/>
					<g>
						<path fill="#65354D" d="M320.287,367.2l105.212,7.896l29.195-148.179l-70.669-0.248
							c-19.799-0.069-36.929,13.767-41.026,33.138L320.287,367.2z"/>
						<path fill="#D04234" d="M446.897,368.163L464.398,238.5c0.78-5.777-3.309-11.141-9.085-11.92l0,0
							c-5.777-0.78-11.141,3.309-11.92,9.085l-17.501,129.663c-0.78,5.777,3.309,11.141,9.085,11.92l0,0
							C440.753,378.028,446.117,373.94,446.897,368.163z"/>
						<g>
							<g>
								<rect x="374.634" y="385.925" fill="#4E567A" width="12.328" height="72.712"/>
								<path fill="#0E254A" d="M374.634,390.157v16.433l12.328-4.77v-11.125C383.877,390.549,377.94,390.302,374.634,390.157z"/>
							</g>
							<path fill="#283154" d="M352.237,391.804h55.085c3.03,0,5.509-2.479,5.509-5.508l0,0c0-3.03-2.479-5.509-5.509-5.509h-55.085
								c-3.03,0-5.509,2.479-5.509,5.509l0,0C346.728,389.325,349.207,391.804,352.237,391.804z"/>
							<path fill="#65354D" d="M325.277,385.194h63.313c7.575,0,13.773-6.198,13.773-13.773l0,0c0-7.575-6.198-13.773-13.773-13.773
								h-63.313c-7.575,0-13.773,6.198-13.773,13.773l0,0C311.504,378.996,317.702,385.194,325.277,385.194z"/>
							<path fill="#D04234" d="M380.913,385.561h50.644c7.575,0,13.773-6.198,13.773-13.773v0c0-7.575-6.198-13.773-13.773-13.773
								h-50.644c-7.575,0-13.773,6.198-13.773,13.773v0C367.14,379.363,373.338,385.561,380.913,385.561z"/>
							<g>
								<g>
									<path fill="#0E254A" d="M328.55,482.878h7.712c0-9.213,7.496-16.709,16.709-16.709h56.187
										c9.214,0,16.709,7.496,16.709,16.709h7.712c0-13.466-10.955-24.421-24.421-24.421h-56.187
										C339.505,458.457,328.55,469.412,328.55,482.878z"/>
								</g>
								<rect x="371.884" y="446.889" fill="#0E254A" width="17.994" height="11.751"/>
							</g>
							<g>
								<circle fill="#0E254A" cx="430.017" cy="490.335" r="6.406"/>
								<path fill="#323966" d="M420.779,489.77h17.531v-1.947c0-4.656-3.774-8.43-8.43-8.43h-0.672c-4.656,0-8.43,3.774-8.43,8.43
									V489.77z"/>
								<circle fill="#0E254A" cx="332.044" cy="490.335" r="6.406"/>
								<path fill="#323966" d="M322.806,489.77h17.531v-1.947c0-4.656-3.774-8.43-8.43-8.43h-0.672c-4.656,0-8.43,3.774-8.43,8.43
									V489.77z"/>
							</g>
							<rect x="375.414" y="460.844" fill="#0E254A" width="10.208" height="23.136"/>
							<g>
								<circle fill="#0E254A" cx="380.303" cy="490.335" r="6.406"/>
								<path fill="#323966" d="M371.065,489.77h17.531v-1.947c0-4.656-3.774-8.43-8.43-8.43h-0.672c-4.656,0-8.43,3.774-8.43,8.43
									V489.77z"/>
							</g>
						</g>
					</g>
					<g>
						<g>
							<g>
								<g>
									<path fill="#FFA280" d="M250.541,267.333l-17.474,5.01c-1.276,0.366-2.62-0.379-2.985-1.655l0,0
										c-0.366-1.276,0.379-2.62,1.655-2.985l17.474-5.009c1.276-0.366,2.62,0.379,2.985,1.655l0,0
										C252.562,265.624,251.818,266.968,250.541,267.333z"/>
									<path fill="#FFA280" d="M245.724,273.122l-14.031,4.022c-1.276,0.366-2.62-0.379-2.985-1.655l0,0
										c-0.366-1.276,0.379-2.62,1.655-2.985l14.031-4.022c1.276-0.366,2.62,0.379,2.985,1.655v0
										C247.744,271.413,247,272.756,245.724,273.122z"/>
									<path fill="#FFA280" d="M249.711,276.38l-16.607,4.761c-1.276,0.366-2.62-0.379-2.985-1.655l0,0
										c-0.366-1.276,0.379-2.62,1.655-2.985l16.607-4.761c1.276-0.366,2.62,0.379,2.985,1.655l0,0
										C251.732,274.671,250.987,276.014,249.711,276.38z"/>
									<path fill="#FFA280" d="M263.563,277.611l-17.827,3.553c-1.302,0.26-2.579-0.593-2.839-1.895l0,0
										c-0.259-1.302,0.593-2.579,1.895-2.839l17.827-3.553c1.302-0.259,2.579,0.594,2.839,1.895l0,0
										C265.717,276.074,264.864,277.351,263.563,277.611z"/>
								</g>
								<path fill="#FFA280" d="M237.247,271.664c0.184-0.061,2.165-1.021,4.309-2.069c3.702-1.809,7.783-2.709,11.902-2.629
									l7.889,0.153c0,0,1.515,13.083,0.964,12.945c-0.551-0.138-17.352,2.892-17.352,2.892L237.247,271.664z"/>
							</g>
							<rect x="258.592" y="265.831" fill="#E8EAEC" width="7.528" height="20.171"/>
						</g>
						<g>
							<path fill="#968EAB" d="M304.343,482.932l-45.853-1.723c-2.734-0.103-4.868-2.403-4.765-5.137l0,0
								c0.079-2.106,1.482-3.931,3.496-4.55l22.984-7.061l24.774,1.537L304.343,482.932z"/>
							<path fill="#0E254A" d="M257.523,482.448l46.404,2.089l0.15-3.325l-49.73-2.238l0,0
								C254.265,480.809,255.687,482.365,257.523,482.448z"/>
						</g>
						<g>
							
								<line fill="none" stroke="#0E254A" stroke-width="1.1017" stroke-linecap="round" stroke-miterlimit="10" x1="280.464" y1="471.189" x2="275.34" y2="465.194"/>
							
								<line fill="none" stroke="#0E254A" stroke-width="1.1017" stroke-linecap="round" stroke-miterlimit="10" x1="276.445" y1="472.675" x2="271.321" y2="466.68"/>
							
								<line fill="none" stroke="#0E254A" stroke-width="1.1017" stroke-linecap="round" stroke-miterlimit="10" x1="272.568" y1="474.732" x2="266.802" y2="467.935"/>
						</g>
						<g>
							<defs>
								<path id="SVGID_27_" d="M306.792,466.674c-2.662-44.757-1.944-86.135,1.542-94.515c3.576-5.204,25.049-18.004,46.195-27.492
									l-11.884-26.51c-14.842,6.652-50.35,23.814-59.485,39.484c-3.857,6.614-7.555,19.528-5.749,65.165
									c0.947,23.903,2.113,42.629,2.113,42.629L306.792,466.674z"/>
							</defs>
							<clipPath id="SVGID_10_">
								<use xlink:href="#SVGID_27_"  overflow="visible"/>
							</clipPath>
							<g clip-path="url(#SVGID_10_)">
								<path fill="#0E254A" d="M306.792,466.674c-2.662-44.757-1.944-86.135,1.542-94.515c3.576-5.204,25.049-18.004,46.195-27.492
									l-11.884-26.51c-14.842,6.652-50.35,23.814-59.485,39.484c-3.857,6.614-7.555,19.528-5.749,65.165
									c0.947,23.903,2.113,42.629,2.113,42.629L306.792,466.674z"/>
							</g>
							<path clip-path="url(#SVGID_10_)" fill="#0E254A" d="M358.48,329.742c0,0-53.983,19.463-60.226,34.887
								c-6.243,15.424-4.04,101.724-4.04,101.724l17.994,0.735l59.859-140.283L358.48,329.742z"/>
						</g>
						<path fill="none" stroke="#F7941E" stroke-width="24.2254" stroke-miterlimit="10" d="M348.407,202.868l-23.095,59.031
							c-4.063,8.793-12.905,14.386-22.591,14.29l-39.721-0.393"/>
						<path fill="#FFA280" d="M369.651,185.548h5.485c5.033,0,9.151-4.118,9.151-9.151v-25.786c0-5.033-4.118-9.151-9.151-9.151
							h-5.485c-5.033,0-9.151,4.118-9.151,9.151v25.786C360.5,181.43,364.618,185.548,369.651,185.548z"/>
						<path fill="#3C2415" d="M323.161,118.534c0.041,0.58,0.093,1.158,0.158,1.736c0.326,2.782,0.932,5.486,1.802,8.051
							c3.708,10.984,12.116,19.677,22.703,23.854c5.257,2.079,11.054,3.039,17.074,2.616c9.746-0.685,18.169,3.109,24.578-3.284
							c2.066-2.059,3.904-4.328,5.454-6.79c0.609-0.97,1.182-1.949,1.706-2.961c3.192-6.167,5.041-21.273,4.519-28.701
							c-1.471-20.947-19.184-36.879-39.961-36.359c-0.593,0.018-1.185,0.048-1.777,0.089c-13.129,0.922-24.277,8.219-30.652,18.663
							c-0.011,0.013-0.011,0.013-0.011,0.013c-1.865,3.067-3.318,6.414-4.294,9.942
							C323.315,109.561,322.842,113.992,323.161,118.534z"/>
						<g>
							<path fill="#FFC7BE" d="M374.689,126.144c0.044,0.815,0.231,1.597,0.562,2.313c0.374,0.86,0.947,1.774,1.652,2.413
								c1.278,1.146,2.986,1.95,4.836,1.851l3.977-0.209l3.051-0.154l-0.452-9.056h-0.011l-0.077-1.675l-0.066-1.3l-0.066-1.19
								l-0.011-0.308h-0.011l-7.018,0.363c-1.774,0.088-3.349,0.86-4.495,2.038c-0.694,0.716-1.223,1.598-1.543,2.556
								C374.756,124.535,374.645,125.318,374.689,126.144z"/>
							<path fill="#FFC7AC" d="M326.38,122.299l0.749,14.642l0.11,2.192c0.066,1.443,0.253,2.876,0.518,4.253
								c2.512,12.934,13.242,22.86,26.408,24.491c0.396,0.066,0.804,0.099,1.201,0.121c1.41,0.143,2.831,0.154,4.286,0.088
								c1.41-0.066,2.776-0.243,4.131-0.496c2.644-0.485,5.167-1.311,7.514-2.423c0,0,0.011,0,0.022-0.011
								c10.224-4.837,17.275-15.038,17.649-26.683c0.011-0.352,0.022-0.694,0.011-1.046c0.022-0.408,0-0.826-0.022-1.245v-0.221
								l-0.044-0.991l-0.143-2.611l-0.441-8.967l-0.011-0.088v-0.011l-0.088-1.663l-0.066-1.3l-0.066-1.19l-0.022-0.308
								c-0.121-2.072-0.54-4.077-1.146-5.993c-0.407-1.344-0.914-2.655-1.476-3.911c-0.077-0.209-0.154-0.386-0.242-0.573
								c-0.463-1.035-1.002-2.06-1.586-3.03c0-0.011-0.011-0.022-0.011-0.022c-2.214-3.702-5.2-6.908-8.725-9.387
								c-0.705-0.495-1.432-0.969-2.171-1.41c-5.145-3.019-11.182-4.638-17.55-4.308c-8.516,0.441-16.151,4.264-21.472,10.103
								c-2.853,3.118-4.726,6.775-6.092,10.819c-0.529,1.542-0.87,3.129-1.058,4.748
								C326.292,117.947,326.259,120.095,326.38,122.299z"/>
							<path fill="#FFC7BE" d="M385.255,123.423l0.463,9.089l0.319,6.136l2.413-0.121c0.176-0.011,0.352-0.022,0.518-0.055
								c4.021-0.484,7.051-4.153,6.853-8.185c-0.099-2.093-1.069-3.834-2.545-5.156c-1.322-1.179-3.063-1.807-4.958-1.829h-0.011
								c-0.22-0.022-0.407-0.022-0.628,0L385.255,123.423z"/>
						</g>
						<path fill="#0E254A" d="M337.456,134.557L337.456,134.557c0.757,0,1.377-0.62,1.377-1.377v-4.407
							c0-0.757-0.62-1.377-1.377-1.377l0,0c-0.757,0-1.377,0.62-1.377,1.377v4.407C336.078,133.937,336.698,134.557,337.456,134.557
							z"/>
						<path fill="#0E254A" d="M357.653,134.557L357.653,134.557c0.757,0,1.377-0.62,1.377-1.377v-4.407
							c0-0.757-0.62-1.377-1.377-1.377l0,0c-0.757,0-1.377,0.62-1.377,1.377v4.407C356.276,133.937,356.896,134.557,357.653,134.557
							z"/>
						<path fill="#FFA280" d="M360.5,167.975c0,0,5.509,0.367,10.797-2.809c0,0,0.011,0,0.022-0.011
							c10.224-4.837,17.275-15.038,17.649-26.683c4.021-0.484,7.051-4.153,6.853-8.185c-0.099-2.093-1.069-3.834-2.545-5.156
							c-1.322-1.179-3.063-1.807-4.958-1.829v-0.011l-0.088-1.663l-0.066-1.3l-0.066-1.19l-0.011-0.308h-0.011
							c-0.121-2.072-0.54-4.077-1.146-5.993c-4.164-2.325-8.406-2.766-10.819,2.445c0,0,0.243,2.358,0.452,5.949
							c0.165,2.688,0.319,6.059,0.342,9.64c0.066,7.36-0.375,15.589-2.27,20.58C370.602,162.103,360.5,167.975,360.5,167.975z"/>
						<g>
							<path fill="#3C2415" d="M329.744,123.356h9.732c0.959,0,1.744-0.785,1.744-1.744l0,0c0-0.959-0.785-1.744-1.744-1.744h-9.732
								c-0.959,0-1.744,0.785-1.744,1.744l0,0C327.999,122.571,328.784,123.356,329.744,123.356z"/>
							<path fill="#3C2415" d="M353.43,123.356h9.732c0.959,0,1.744-0.785,1.744-1.744l0,0c0-0.959-0.785-1.744-1.744-1.744h-9.732
								c-0.959,0-1.744,0.785-1.744,1.744l0,0C351.686,122.571,352.471,123.356,353.43,123.356z"/>
							<g opacity="0.49">
								<polygon fill="#FFFFFF" points="356.827,126.845 352.237,135.842 348.748,135.475 353.522,126.845 								"/>
								<polygon fill="#FFFFFF" points="335.344,126.845 330.754,135.842 327.265,135.475 332.039,126.845 								"/>
							</g>
							<path fill="none" stroke="#D88E7D" stroke-width="0.9938" stroke-miterlimit="10" d="M329.6,136.347h10.366
								c1.155,0,2.1-0.945,2.1-2.1v-5.716c0-1.155-0.945-2.1-2.1-2.1H329.6c-1.155,0-2.1,0.945-2.1,2.1v5.716
								C327.501,135.402,328.446,136.347,329.6,136.347z"/>
							<path fill="none" stroke="#D88E7D" stroke-width="1.0333" stroke-miterlimit="10" d="M349.854,136.347h11.381
								c1.201,0,2.183-0.982,2.183-2.183v-5.549c0-1.201-0.982-2.183-2.183-2.183h-11.381c-1.201,0-2.183,0.982-2.183,2.183v5.549
								C347.671,135.365,348.653,136.347,349.854,136.347z"/>
							<path fill="none" stroke="#FA7C50" stroke-width="1.1017" stroke-miterlimit="10" d="M341.851,148.185
								c1.629,1.689,4.154,2.675,6.937,2.532c2.333-0.12,4.406-1.01,5.869-2.382"/>
							<path fill="#FFA280" d="M341.157,140.236c-0.004,0.047,0.188-0.005,0.188-0.005c0.046,1.565,1.402,2.807,4.759,2.71
								l0.395-12.332C342.918,135.154,341.403,137.678,341.157,140.236z"/>
							
								<line fill="none" stroke="#D88E7D" stroke-width="1.0333" stroke-miterlimit="10" x1="347.463" y1="131.436" x2="341.587" y2="131.619"/>
						</g>
						<path fill="#FBB040" d="M333.574,214.754v111.316l80.918,8.847l3.979-120.162c0-17.892-12.956-32.776-29.999-35.772
							c-2.05-0.353-4.153-0.54-6.313-0.54h-12.273C349.835,178.441,333.574,194.702,333.574,214.754z"/>
						<path fill="#0E254A" d="M339.997,335.842c0,5.013,1.785,9.606,4.748,13.187c3.79,4.594,9.541,7.525,15.975,7.525h34.825
							c1.035,0,2.049-0.077,3.041-0.231c2.556-0.364,4.958-1.212,7.117-2.435c0.385-0.209,0.76-0.441,1.124-0.683
							c5.674-3.69,9.43-10.092,9.43-17.362l-0.639-11.05l-75.015-0.65L339.997,335.842z"/>
						<g>
							<rect x="355.542" y="176.238" fill="#E8EAEC" width="27.99" height="130.527"/>
						</g>
						<polygon fill="#FFFFFF" points="355.057,186.99 368.187,178.002 383.531,186.99 384.618,175.928 355.057,175.928 						"/>
						<g>
							<path fill="#968EAB" d="M361.626,475.04l-42.908,16.26c-2.559,0.97-5.419-0.319-6.388-2.877l0,0
								c-0.747-1.97-0.165-4.198,1.449-5.552l18.423-15.45l23.419-8.227L361.626,475.04z"/>
							<path fill="#0E254A" d="M318.31,492.817l43.558-16.138l-1.157-3.121l-46.679,17.294l0,0
								C314.671,492.576,316.586,493.455,318.31,492.817z"/>
						</g>
						<g>
							<path fill="#122F51" d="M326.281,421.29c0.606,23.697,2.699,45.368,2.787,46.271l15.38-1.499l13.529-1.311
								c-3.922-40.399-3.746-81.041,0.342-89.711c4.737-4.462,23.147-12.593,40.267-18.718c2.413-0.859,4.803-1.675,7.117-2.435
								c0.408-0.143,0.815-0.275,1.223-0.408l-0.099-0.275c0,0-14.194-24.931-44.095-16.352
								c-6.302,1.808-11.475,7.793-17.986,12.177c-3.371,2.259-6.247,4.583-8.34,6.886
								C330.434,362.48,325.08,374.941,326.281,421.29z"/>
						</g>
						<g>
							
								<line fill="none" stroke="#0E254A" stroke-width="1.1017" stroke-linecap="round" stroke-miterlimit="10" x1="336.538" y1="472.045" x2="329.376" y2="468.74"/>
							
								<line fill="none" stroke="#0E254A" stroke-width="1.1017" stroke-linecap="round" stroke-miterlimit="10" x1="333.508" y1="475.074" x2="326.347" y2="471.769"/>
							
								<line fill="none" stroke="#0E254A" stroke-width="1.1017" stroke-linecap="round" stroke-miterlimit="10" x1="330.845" y1="478.563" x2="322.766" y2="474.799"/>
						</g>
						<path fill="#F7941E" d="M387.128,228.756l31.344-12.846v-1.157c0-17.892-12.956-32.776-29.999-35.772
							c-0.078,0.066-0.165,0.132-0.243,0.198L387.128,228.756z"/>
						<path fill="#0E254A" d="M344.448,466.062l13.529-1.311c-3.922-40.399-3.746-81.041,0.342-89.711
							c4.737-4.462,23.147-12.593,40.267-18.718c2.556-0.364,4.958-1.212,7.117-2.435c0.408-0.143,0.815-0.275,1.223-0.408
							l-0.099-0.275c5.674-3.69,9.43-10.092,9.43-17.362l-0.639-11.05l-11.965,1.642c0.286,0.859,1.906,9.298-1.047,14.366
							c-0.826,1.443-2.027,2.611-3.735,3.261c-4.682,1.785-22.497,6.148-36.676,12.493c-9.166,4.109-16.823,9.056-18.409,14.686
							C340.063,384.459,343.842,455.255,344.448,466.062z"/>
						<g>
							<g>
								<path fill="#AFAAC4" d="M186.431,293.477h72.125c4.718,0,7.836-4.905,5.834-9.177l-25.155-53.664
									c-2.193-4.679-6.895-7.667-12.062-7.667H160.77c-3.44,0-5.713,3.576-4.253,6.691L186.431,293.477z"/>
								<g>
									<g>
										<path fill="#58595B" d="M258.289,293.661h51.428c2.077,0,3.776-1.699,3.776-3.776l0,0c0-2.077-1.699-3.776-3.776-3.776
											h-51.428c-2.077,0-3.776,1.699-3.776,3.776l0,0C254.512,291.962,256.212,293.661,258.289,293.661z"/>
									</g>
									<g>
										<rect x="276.77" y="288.612" fill="#58595B" width="7.345" height="2.203"/>
										<rect x="286.318" y="288.612" fill="#58595B" width="5.325" height="2.203"/>
									</g>
								</g>
								<path fill="#414042" d="M187.517,293.477h72.295c2.595,0,4.31-2.698,3.209-5.048l-27.091-57.794
									c-2.193-4.679-6.895-7.667-12.062-7.667h-66.403c-3.44,0-5.713,3.576-4.253,6.691l28.051,59.842
									C182.399,291.928,184.837,293.477,187.517,293.477z"/>
							</g>
							
								<ellipse transform="matrix(-0.9195 0.393 -0.393 -0.9195 500.4605 418.7585)" fill="#FFFFFF" cx="207.363" cy="260.61" rx="4.407" ry="7.895"/>
						</g>
						<g>
							<g>
								<g>
									<path fill="#FFA280" d="M316.073,276.822l-17.95-2.869c-1.311-0.21-2.212-1.454-2.002-2.764l0,0
										c0.21-1.311,1.453-2.212,2.764-2.002l17.95,2.869c1.311,0.21,2.212,1.453,2.002,2.764l0,0
										C318.628,276.131,317.384,277.032,316.073,276.822z"/>
									<path fill="#FFA280" d="M310.357,281.676l-14.413-2.304c-1.311-0.21-2.212-1.454-2.002-2.764l0,0
										c0.21-1.311,1.454-2.212,2.764-2.002l14.413,2.304c1.311,0.21,2.212,1.453,2.002,2.764l0,0
										C312.912,280.984,311.668,281.885,310.357,281.676z"/>
									<path fill="#FFA280" d="M313.689,287.969l-17.059-2.727c-1.311-0.21-2.212-1.453-2.003-2.764l0,0
										c0.21-1.311,1.453-2.212,2.764-2.002l17.059,2.727c1.311,0.21,2.212,1.453,2.002,2.764l0,0
										C316.244,287.278,315,288.179,313.689,287.969z"/>
								</g>
								<path fill="#FFA280" d="M308.324,272.181c0.192,0.022,2.394-0.007,4.78-0.047c4.12-0.069,8.197,0.845,11.894,2.664
									l7.08,3.482c0,0-4.055,12.032-4.614,12.133c-13.65,2.467-18.332-3.73-18.332-3.73L308.324,272.181z"/>
							</g>
							<rect x="318.893" y="272.134" fill="#E8EAEC" width="6.059" height="19.693"/>
						</g>
						<g>
							<path fill="#F7941E" d="M364.659,293.964c14.286,0,27.347-8.339,33.349-21.326l0.296-0.641l18.699-57.1l-23.034-7.543
								l-18.222,55.644c-2.162,4.152-6.51,6.779-11.212,6.728l-39.721-0.393l-0.24,24.236l39.721,0.393
								C364.416,293.963,364.538,293.964,364.659,293.964z"/>
						</g>
						<g>
							<rect x="357.654" y="317.99" fill="#968EAB" width="20.198" height="6.956"/>
						</g>
						<circle fill="#939598" cx="367.683" cy="186.99" r="1.854"/>
						<circle fill="#939598" cx="367.683" cy="193.974" r="1.854"/>
						<circle fill="#939598" cx="367.683" cy="201.014" r="1.854"/>
						<path fill="#3C2415" d="M388.769,130.295c0,3.581-2.903,6.483-6.483,6.483l0,0c-3.581,0-6.483-2.903-6.483-6.483v-29.768
							c0-3.581,2.903-6.483,6.483-6.483l0,0c3.581,0,6.483,2.903,6.483,6.483V130.295z"/>
						<path fill="#3C2415" d="M375.802,103.844c0,0-31.35,18.806-49.49,13.622v-0.482c0,0-0.457-14.539,12.521-22.941
							c12.978-8.402,33.379-6.001,39.332,1.478C384.118,103,375.802,103.844,375.802,103.844z"/>
						<path fill="#3C2415" d="M332.701,95.058c2.138-2.701,6.061-3.157,8.762-1.018l0,0c2.701,2.138,3.157,6.061,1.018,8.762
							l-9.789,12.364c-2.138,2.701-6.061,3.157-8.762,1.018l0,0c-2.701-2.138-3.157-6.061-1.018-8.762L332.701,95.058z"/>
					</g>
					<rect x="400.344" y="311.747" fill="#827C91" width="17.627" height="190.961"/>
					<rect x="174.862" y="311.744" fill="#827C91" width="17.626" height="190.965"/>
					<rect x="88.932" y="311.744" fill="#827C91" width="17.626" height="190.965"/>
					<polygon fill="#323966" points="192.488,311.744 174.862,311.744 174.862,374.733 192.488,383.481 					"/>
					<polygon fill="#323966" points="88.932,311.744 88.932,332.09 106.558,340.837 106.558,311.744 					"/>
					<polygon fill="#323966" points="400.197,311.368 400.197,331.976 418.051,340.837 418.051,311.368 					"/>
					<g>
						<path fill="#323966" d="M520.458,317.445H124.784V301.4c0-4.288,3.476-7.764,7.764-7.764h380.146
							c4.288,0,7.764,3.476,7.764,7.764V317.445z"/>
					</g>
					<g>
						<rect x="376.147" y="275.998" fill="#C4C4C9" width="86.414" height="18.385"/>
						<rect x="375.919" y="275.789" fill="#E8EAEC" width="39.963" height="18.803"/>
						<g>
							
								<line fill="none" stroke="#968EAB" stroke-width="1.3551" stroke-miterlimit="10" x1="462.485" y1="279.381" x2="375.995" y2="279.381"/>
							
								<line fill="none" stroke="#968EAB" stroke-width="1.3551" stroke-miterlimit="10" x1="462.485" y1="283.079" x2="375.995" y2="283.079"/>
							
								<line fill="none" stroke="#968EAB" stroke-width="1.3551" stroke-miterlimit="10" x1="462.485" y1="286.777" x2="375.995" y2="286.777"/>
							
								<line fill="none" stroke="#968EAB" stroke-width="1.3551" stroke-miterlimit="10" x1="462.485" y1="290.475" x2="375.995" y2="290.475"/>
						</g>
					</g>
					<g>
						<rect x="484.36" y="347.243" fill="#65354D" width="121.328" height="155.438"/>
						<rect x="431.611" y="347.243" fill="#65354D" width="128.989" height="155.438"/>
						<g>
							<rect x="439.24" y="358.627" fill="#FA7C50" width="113.108" height="41.13"/>
							<rect x="439.24" y="406.891" fill="#FA7C50" width="113.108" height="41.13"/>
							<rect x="439.24" y="455.155" fill="#FA7C50" width="113.108" height="41.13"/>
						</g>
						<g>
							<path fill="#FFFFFF" d="M475.995,381.395h28.277c1.212,0,2.203-0.992,2.203-2.203l0,0c0-1.212-0.992-2.203-2.203-2.203
								h-28.277c-1.212,0-2.203,0.992-2.203,2.203l0,0C473.791,380.404,474.783,381.395,475.995,381.395z"/>
							<path fill="#FFFFFF" d="M474.893,429.319h28.277c1.212,0,2.203-0.992,2.203-2.203l0,0c0-1.212-0.992-2.203-2.203-2.203
								h-28.277c-1.212,0-2.203,0.992-2.203,2.203l0,0C472.689,428.328,473.681,429.319,474.893,429.319z"/>
							<path fill="#FFFFFF" d="M474.893,477.243h28.277c1.212,0,2.203-0.992,2.203-2.203l0,0c0-1.212-0.992-2.203-2.203-2.203
								h-28.277c-1.212,0-2.203,0.992-2.203,2.203l0,0C472.689,476.252,473.681,477.243,474.893,477.243z"/>
						</g>
					</g>
					<g>
						<g>
							<path fill="#27AAE1" d="M329.285,268.186v27.036h22.585v-27.036c0-1.19-0.969-2.159-2.159-2.159h-18.266
								C330.254,266.027,329.285,266.996,329.285,268.186z"/>
							<g>
								<path fill="#27AAE1" d="M351.591,290.595c0.295-0.169,7.228-4.23,7.847-11.343c0.236-2.712-0.791-4.392-1.693-5.324
									c-2.482-2.563-6.605-2.415-7.067-2.391l0.18,3.3c0.837-0.039,3.302,0.132,4.519,1.396c0.621,0.645,0.872,1.539,0.768,2.732
									c-0.471,5.412-6.143,8.73-6.2,8.763L351.591,290.595z"/>
							</g>
							<path fill="#F9ED32" d="M334.862,283.241h6.473c2.244,0,4.063-1.819,4.063-4.063l0,0c0-2.244-1.819-4.063-4.063-4.063h-6.473
								c-2.244,0-4.063,1.819-4.063,4.063l0,0C330.8,281.422,332.618,283.241,334.862,283.241z"/>
						</g>
						<path fill="#2B3990" d="M339.839,295.222h12.03v-27.036c0-1.19-0.969-2.159-2.159-2.159h-0.727
							c-0.033,1.411-0.419,12.196-3.448,19.963C342.902,292.754,340.555,294.748,339.839,295.222z"/>
					</g>
					<g>
						
							<line fill="none" stroke="#968EAB" stroke-width="1.1017" stroke-miterlimit="10" x1="162.928" y1="279.462" x2="102.334" y2="279.462"/>
						
							<line fill="none" stroke="#968EAB" stroke-width="1.1017" stroke-miterlimit="10" x1="162.928" y1="282.951" x2="102.334" y2="282.951"/>
						
							<line fill="none" stroke="#968EAB" stroke-width="1.1017" stroke-miterlimit="10" x1="162.928" y1="285.674" x2="102.334" y2="285.674"/>
						
							<line fill="none" stroke="#968EAB" stroke-width="1.1017" stroke-miterlimit="10" x1="162.928" y1="289.162" x2="102.334" y2="289.162"/>
					</g>
					<g>
						<g>
							<g>
								<polygon fill="#FFFFFF" points="424.398,276.309 409.892,245.094 395.57,275.942 								"/>
								<rect x="409.892" y="245.278" fill="#FFFFFF" width="26.074" height="30.113"/>
								<polygon fill="#323966" points="449.37,276.309 436.15,245.462 421.828,276.309 								"/>
							</g>
							<g>
								<g>
									<rect x="412.28" y="249.134" fill="#968EAB" width="13.037" height="1.285"/>
								</g>
								<g>
									<rect x="411.178" y="251.705" fill="#968EAB" width="13.037" height="1.285"/>
								</g>
								<g>
									<path fill="#968EAB" d="M401.262,272.063l7.505-15.975l15.214-0.059l-6.989,16.477L401.262,272.063z M409.448,257.204
										l-6.457,13.84l13.288,0.324l6.053-14.27L409.448,257.204z"/>
								</g>
							</g>
						</g>
						<g>
							
								<line fill="none" stroke="#968EAB" stroke-width="1.1192" stroke-miterlimit="10" x1="421.506" y1="259.462" x2="407.579" y2="259.462"/>
							
								<line fill="none" stroke="#968EAB" stroke-width="1.1192" stroke-miterlimit="10" x1="420.298" y1="262.469" x2="406.371" y2="262.469"/>
							
								<line fill="none" stroke="#968EAB" stroke-width="1.1192" stroke-miterlimit="10" x1="419.303" y1="265.476" x2="405.376" y2="265.476"/>
							
								<line fill="none" stroke="#968EAB" stroke-width="1.1192" stroke-miterlimit="10" x1="417.669" y1="268.483" x2="403.741" y2="268.483"/>
						</g>
						<g>
							
								<line fill="none" stroke="#968EAB" stroke-width="1.1192" stroke-miterlimit="10" x1="411.729" y1="256.915" x2="405.256" y2="271.306"/>
							
								<line fill="none" stroke="#968EAB" stroke-width="1.1192" stroke-miterlimit="10" x1="415.585" y1="256.984" x2="409.112" y2="271.375"/>
							
								<line fill="none" stroke="#968EAB" stroke-width="1.1192" stroke-miterlimit="10" x1="419.374" y1="256.71" x2="412.968" y2="271.65"/>
						</g>
					</g>
					<g>
						<g>
							
								<rect x="96.946" y="222.627" transform="matrix(-0.9847 0.1743 -0.1743 -0.9847 239.2671 474.9229)" fill="#4257A4" width="3.672" height="50.678"/>
							
								<rect x="92.534" y="221.649" transform="matrix(-0.9847 0.1743 -0.1743 -0.9847 229.2555 438.4072)" fill="#4257A4" width="5.692" height="15.24"/>
						</g>
						<g>
							<polygon fill="#65354D" points="107.419,279.609 111.079,279.302 106.844,228.801 104.63,225.571 103.184,229.108 							"/>
						</g>
						<g>
							<polygon fill="#122F51" points="112.505,282.19 116.11,282.891 125.794,233.147 124.544,229.436 122.19,232.445 							"/>
						</g>
						<g>
							<polygon fill="#F66438" points="104.401,293.761 120.097,293.761 125.243,252.209 99.255,252.209 							"/>
							<polygon fill="#FFAC3D" points="98.483,293.761 114.179,293.761 116.495,252.209 93.337,252.209 							"/>
						</g>
					</g>
					<g>
						<g>
							<path fill="#4257A4" d="M484.134,326.835v20.529h63.727c4.45,0,8.252-2.842,9.674-6.813c0.382-1.075,0.595-2.238,0.595-3.456
								c0-2.825-1.146-5.392-3.003-7.257c-1.865-1.857-4.433-3.002-7.266-3.002H484.134z"/>
							<path fill="#31477D" d="M508.145,340.55v6.813h39.716c4.45,0,8.252-2.842,9.674-6.813H508.145z"/>
							<path fill="#0E254A" d="M460.048,326.831v20.535l63.726,0c5.668,0,10.267-4.6,10.267-10.267c0-2.828-1.15-5.398-3.004-7.263
								c-1.866-1.854-4.435-3.004-7.263-3.004L460.048,326.831z"/>
							<path fill="#E8EAEC" d="M460.048,330.351v13.165l60.957,0c3.638,0,6.583-2.945,6.583-6.583c0-1.819-0.739-3.461-1.924-4.658
								c-1.197-1.185-2.84-1.924-4.658-1.924L460.048,330.351z"/>
						</g>
						<g>
							<path fill="#FFAC3D" d="M482.748,286.026v20.535l63.726,0c5.668,0,10.267-4.6,10.267-10.267c0-2.828-1.15-5.398-3.004-7.263
								c-1.866-1.854-4.435-3.004-7.263-3.004L482.748,286.026z"/>
							<path fill="#FFD533" d="M506.961,292.88v-6.813h39.716c4.45,0,8.252,2.843,9.674,6.813H506.961z"/>
							<path fill="#FA7C50" d="M460.048,286.026v20.535l63.726,0c5.668,0,10.267-4.6,10.267-10.267c0-2.828-1.15-5.398-3.004-7.263
								c-1.866-1.854-4.435-3.004-7.263-3.004L460.048,286.026z"/>
							<path fill="#E8EAEC" d="M460.048,289.546v13.165l60.957,0c3.638,0,6.583-2.945,6.583-6.583c0-1.819-0.739-3.461-1.924-4.658
								c-1.197-1.185-2.84-1.924-4.658-1.924L460.048,289.546z"/>
						</g>
						<g>
							<path fill="#A1CF3A" d="M479.045,306.679v20.538h63.727c5.667,0,10.26-4.601,10.26-10.269c0-1.741-0.435-3.384-1.199-4.823
								c-0.48-0.897-1.093-1.723-1.803-2.443c-1.866-1.857-4.433-3.003-7.257-3.003H479.045z"/>
							<path fill="#709D2B" d="M488.905,306.679v5.445h62.928c-0.48-0.897-1.093-1.723-1.803-2.443
								c-1.866-1.857-4.433-3.003-7.257-3.003H488.905z"/>
							<path fill="#709D2B" d="M488.905,327.225v-5.445h62.928c-0.48,0.897-1.093,1.723-1.803,2.443
								c-1.866,1.857-4.433,3.003-7.257,3.003H488.905z"/>
							<path fill="#4E8530" d="M447.54,306.679v20.535l63.726,0c5.668,0,10.267-4.6,10.267-10.267c0-2.828-1.15-5.398-3.004-7.263
								c-1.866-1.854-4.435-3.004-7.263-3.004L447.54,306.679z"/>
							<path fill="#E8EAEC" d="M447.54,310.2v13.165l60.957,0c3.638,0,6.583-2.945,6.583-6.583c0-1.819-0.739-3.461-1.924-4.658
								c-1.197-1.185-2.84-1.924-4.658-1.924L447.54,310.2z"/>
						</g>
					</g>
					<g>
						<g>
							<path fill="#53803A" d="M545.44,293.154c8.526,11.61,25.63,13.537,25.63,13.537s3.281-16.897-5.245-28.507
								c-8.526-11.61-25.63-13.537-25.63-13.537S536.914,281.544,545.44,293.154z"/>
							<path fill="#3D6A3A" d="M581.24,286.211c-7.816,7.703-7.389,20.809-7.389,20.809s13.098,0.617,20.914-7.086
								c7.816-7.703,7.389-20.809,7.389-20.809S589.056,278.508,581.24,286.211z"/>
							<path fill="#63B259" d="M561.87,280.384c-1.588,14.316,9.693,27.316,9.693,27.316s13.856-10.212,15.443-24.528
								c1.588-14.316-9.693-27.316-9.693-27.316S563.458,266.068,561.87,280.384z"/>
						</g>
						<g>
							<polygon fill="#65354D" points="562.927,347.255 592.596,347.255 602.323,303.968 553.2,303.968 							"/>
							<polygon fill="#A0533B" points="551.741,347.255 581.409,347.255 585.786,303.968 542.014,303.968 							"/>
						</g>
					</g>
				</g>
				<g>
					<g>
						<defs>
							<path id="SVGID_29_" d="M306.792,466.674c-2.662-44.757-1.944-86.135,1.542-94.515c3.576-5.204,25.049-18.004,46.195-27.492
								l-11.884-26.51c-14.842,6.652-50.35,23.814-59.485,39.484c-3.857,6.614-7.555,19.528-5.749,65.165
								c0.947,23.903,2.113,42.629,2.113,42.629L306.792,466.674z"/>
						</defs>
						<clipPath id="SVGID_12_">
							<use xlink:href="#SVGID_29_"  overflow="visible"/>
						</clipPath>
					</g>
				</g>
			</g>
			<g>
				<g>
					<g>
						<defs>
							<path id="SVGID_31_" d="M306.792,466.674c-2.662-44.757-1.944-86.135,1.542-94.515c3.576-5.204,25.049-18.004,46.195-27.492
								l-11.884-26.51c-14.842,6.652-50.35,23.814-59.485,39.484c-3.857,6.614-7.555,19.528-5.749,65.165
								c0.947,23.903,2.113,42.629,2.113,42.629L306.792,466.674z"/>
						</defs>
						<clipPath id="SVGID_14_">
							<use xlink:href="#SVGID_31_"  overflow="visible"/>
						</clipPath>
					</g>
				</g>
				<g>
					<g>
						<defs>
							<path id="SVGID_33_" d="M306.792,466.674c-2.662-44.757-1.944-86.135,1.542-94.515c3.576-5.204,25.049-18.004,46.195-27.492
								l-11.884-26.51c-14.842,6.652-50.35,23.814-59.485,39.484c-3.857,6.614-7.555,19.528-5.749,65.165
								c0.947,23.903,2.113,42.629,2.113,42.629L306.792,466.674z"/>
						</defs>
						<clipPath id="SVGID_16_">
							<use xlink:href="#SVGID_33_"  overflow="visible"/>
						</clipPath>
					</g>
				</g>
				<g>
					<g>
						<defs>
							<path id="SVGID_35_" d="M306.792,466.674c-2.662-44.757-1.944-86.135,1.542-94.515c3.576-5.204,25.049-18.004,46.195-27.492
								l-11.884-26.51c-14.842,6.652-50.35,23.814-59.485,39.484c-3.857,6.614-7.555,19.528-5.749,65.165
								c0.947,23.903,2.113,42.629,2.113,42.629L306.792,466.674z"/>
						</defs>
						<clipPath id="SVGID_18_">
							<use xlink:href="#SVGID_35_"  overflow="visible"/>
						</clipPath>
					</g>
				</g>
			</g>
		</g>
		<g>
			<path fill="#4C79C1" d="M433.057,317.445H59.417V301.4c0-4.288,3.476-7.764,7.764-7.764h358.112c4.288,0,7.764,3.476,7.764,7.764
				V317.445z"/>
		</g>
	</g>
</g>
</svg>
